<?xml version="1.0" encoding="UTF-8"?>
<!DOCTYPE svg PUBLIC "-//W3C//DTD SVG 1.1//EN" "http://www.w3.org/Graphics/SVG/1.1/DTD/svg11.dtd">
<!-- Creator: CorelDRAW 2019 (64-Bit) -->
<svg xmlns="http://www.w3.org/2000/svg" xml:space="preserve" width="25.2989mm" height="25.4mm" version="1.1" style="shape-rendering:geometricPrecision; text-rendering:geometricPrecision; image-rendering:optimizeQuality; fill-rule:evenodd; clip-rule:evenodd"
viewBox="0 0 538.64 540.79"
 xmlns:xlink="http://www.w3.org/1999/xlink">
 <defs>
  <style type="text/css">
   <![CDATA[
    .fil0 {fill:black}
   ]]>
  </style>
 </defs>
 <g id="Layer_x0020_1">
  <metadata id="CorelCorpID_0Corel-Layer"/>
  <path class="fil0" d="M389.9 510.63l0 -35.74 83.77 0c0,11.45 1.28,31.05 -1.12,41.33 -9.21,4.42 -59.26,2.23 -72.6,2.23 -4.05,0 -6.23,-0.94 -8.93,-2.23 -0.59,-2.51 -1.12,-2.57 -1.12,-5.58zm27.92 -166.42c0,-20.39 31.27,-22.05 31.27,1.12 0,17.94 -31.27,20.88 -31.27,-1.12zm-23.46 -1.12c0,22.15 17.39,38.94 38.13,40.07 10.07,0.55 21.11,-4.86 27.5,-11.29 37.3,-37.57 -16.7,-89.82 -53.65,-55.89 -5.35,4.92 -11.98,17.23 -11.98,27.11zm-303.8 2.23c0,-21.99 31.27,-22.62 31.27,-1.12 0,20.99 -31.27,19.9 -31.27,1.12zm15.64 37.97c20.82,0 39.09,-17.99 39.09,-39.09 0,-35.44 -44.08,-51.6 -66.5,-27.41 -27.09,29.22 -1.47,66.5 27.41,66.5zm132.91 -271.41c0,-40.2 62.55,-40.2 62.55,0 0,21.08 -29.34,38.61 -52.54,20.15 -4.66,-3.7 -10,-11.92 -10,-20.15zm25.69 50.26c12.86,0 19.3,0.53 31.21,-5.64 50.08,-25.96 29.65,-98.23 -25.63,-98.23 -51.2,0 -78.54,66.89 -26.36,97.84 4.68,2.77 13.83,6.04 20.77,6.04zm-59.2 -111.69l6.49 -5.8 12.79 6.63c2,1.28 0.78,0.41 1.94,1.41 26.38,-17.67 31.64,-8.7 35.13,-18.48 3.86,-10.83 0.78,-11.67 10.66,-11.67 4.33,0 4.55,7.51 6.16,11.71 3.52,9.16 9.94,-0.69 38.51,18.45 4.35,-2.3 8,-4.33 13.4,-5.58l6.49 5.8c-2.07,4.09 -4.31,7.94 -6.49,12.07 4.99,9.43 14.2,22.53 14.52,36.86 15.46,3.6 13.4,4.1 13.4,11.17 0,3.94 -7.73,5.38 -13.4,6.7 -0.21,9.59 -5.51,20.23 -8.92,26.82 -7.16,13.87 -9.66,7.32 -1.13,23.44l-6.44 6.96c-18.35,-10.5 -10.02,-6.1 -29.76,1.51 -3.18,1.22 -5.36,1.96 -8.45,2.72 -2.55,0.63 -7.15,1.13 -8.99,2.18 -7.83,4.5 1.14,14.55 -13.37,14.55 -5.66,0 -4.02,-12.11 -8.41,-15.05 -0.82,-0.55 -7.14,-1.95 -8.76,-2.41 -13.45,-3.85 -21.6,-11.24 -23.84,-12 -4.7,-1.6 -11.86,4.79 -17.07,6l-6.49 -5.8c0.74,-1.58 6.89,-13.36 7.16,-14.79 0.76,-4.07 -2.82,-6.03 -6.42,-14.98 -7.22,-17.91 -0.4,-18.56 -22.16,-23.63l0 -10.05c6.43,-0.54 10.33,-3.93 16.75,-4.47 3.71,-15.94 6.62,-22.83 14.52,-34.62l-7.82 -15.64zm6.7 -30.16c-2.85,0 -8.27,1.71 -10.48,2.93 -3.52,1.94 -5,4.16 -7.67,6.85 -10.42,10.48 -12.01,9.26 -12.01,22.62 0,5.42 4.47,8.43 4.47,12.28 0,1.8 -3.73,8.48 -4.85,11.9 -2.51,7.65 -1.54,5.17 -8.98,7.77 -20.38,7.1 -15.75,40.01 -8.04,46.87 9.55,8.5 12.41,0.74 17.11,13.05 0.62,1.64 2.62,5.92 2.9,7.15 2.11,9.18 -16.1,14.24 6.05,36.39 20.82,20.82 24.1,5.38 33.58,6.03l15.24 6.59c8.15,3.17 1.82,5.29 8.69,13.65 7.03,8.55 17.88,6.96 28.77,6.96 9.49,0 15.68,-5.41 18.5,-12.77 2.44,-6.38 1.65,-5.47 8.14,-7.5 2.34,-0.73 10.61,-4.3 12.46,-4.3 5.31,0 13.83,11.42 31.55,-6.42 8.9,-8.96 10.89,-8.68 10.89,-20.38 0,-13.77 -7.75,-0.67 5.35,-29.27 3.27,-7.14 18.1,-5.38 18.1,-23.22 0,-10.33 1.41,-19.81 -5.25,-27.14 -4.38,-4.83 -9.81,-4.18 -12.13,-7.97 -0.79,-1.3 -2.04,-5.68 -2.74,-7.31 -8.45,-19.52 -1.1,-8.16 -1.1,-23.48 0,-10.6 -18.44,-29.04 -29.04,-29.04 -3.79,0 -5.33,0.63 -8.2,1.94 -4.28,1.96 -3.22,2.77 -7.07,1.15 -2.38,-0.99 -4.04,-2.3 -6.72,-3.43 -3.01,-1.28 -5.9,-1.86 -8.39,-2.78 -10.03,-3.71 -4.82,-19.22 -23.22,-19.22 -13.53,0 -22.1,-1.99 -29.36,6.38 -3.19,3.68 -4.78,10.76 -7.32,12.78 -0.36,0.29 -13.43,5.88 -13.96,5.95 -3.45,0.48 -9.65,-5.01 -15.25,-5.01zm-147.43 490.32l0 -35.74 83.77 0 0 35.74c0,5.35 -3.78,7.82 -8.94,7.82 -13.45,0 -64.48,2.2 -73.72,-2.23 -0.58,-2.51 -1.12,-2.57 -1.12,-5.58zm-42.44 -63.66c0,-8.51 -1.69,-16.75 4.47,-16.75l484.74 0c6.15,0 4.47,8.25 4.47,16.75 0,2.61 -1.85,4.47 -4.47,4.47l-484.74 0c-2.61,0 -4.47,-1.85 -4.47,-4.47zm173.12 -72.6c0,-2.61 2.98,-5.58 5.58,-5.58l136.26 0c2.6,0 5.58,2.98 5.58,5.58l0 33.51 -147.43 0 0 -33.51zm-23.45 6.7l0 26.81 -131.79 0c0,-35.07 -4.78,-76.41 20.92,-103.06 13.48,-13.98 32.46,-25.39 59.5,-25.39l297.1 0c35.72,0 64.26,21.27 74.98,51.23 7.53,21.07 5.44,52.38 5.44,77.21l-131.79 0c0,-25.26 5.67,-62.55 -33.51,-62.55l-127.33 0c-22.4,0 -33.51,13.99 -33.51,35.74zm-154.13 27.92c-20.34,4.74 -17.87,28.25 -17.87,41.33 0,15.37 14.6,24.57 32.39,24.57l8.94 0c0,22 -3.21,42.44 7.61,56.06 3.68,4.63 12.38,9.84 20.32,9.84l74.83 0c19.03,0 27.92,-17.71 27.92,-37.97l0 -27.92 194.34 0c0,17.75 -2.39,42.09 6.34,53.97 4.21,5.73 12.26,11.93 21.58,11.93l74.83 0c7.93,0 16.64,-5.21 20.32,-9.84 10.82,-13.62 7.61,-34.05 7.61,-56.06 11.18,0 22.86,0.78 30.98,-5.88 12.82,-10.52 10.35,-18.43 10.35,-36.56 0,-10.86 -9.17,-21.43 -17.87,-23.46 0,-58.24 7.33,-104.91 -52.96,-140.26 -9.81,-5.75 -6.93,-0.83 -11.18,-12.28 -2.34,-6.31 -4.53,-11.33 -7.02,-17.55 -4.7,-11.75 -9.44,-22.91 -13.59,-34.43 -6.2,-17.21 -14.99,-35.68 -20.65,-51.95 -2.7,-7.77 -4.44,-12.7 -12.99,-12.7 -6.82,0 -11.17,4.98 -11.17,12.28 0,5.23 39.69,98.76 40.21,104.99l-322.78 0c0.38,-4.62 7.59,-20.65 9.73,-26.01 3.63,-9.06 7.26,-17.36 10.5,-26.35 3.22,-8.94 6.7,-17.21 10.4,-26.46 3.68,-9.2 9.57,-20.33 9.57,-29.52 0,-5.67 -15.58,-18.19 -23.15,1.42l-48.59 115.6c-36.93,17.04 -58.99,51.63 -58.94,94.07 0.02,16.38 0,32.76 0,49.14z"/>
 </g>
</svg>
