<?xml version="1.0" encoding="UTF-8"?>
<!DOCTYPE svg PUBLIC "-//W3C//DTD SVG 1.1//EN" "http://www.w3.org/Graphics/SVG/1.1/DTD/svg11.dtd">
<!-- Creator: CorelDRAW 2019 (64-Bit) -->
<svg xmlns="http://www.w3.org/2000/svg" xml:space="preserve" width="25.4306mm" height="25.4306mm" version="1.1" style="shape-rendering:geometricPrecision; text-rendering:geometricPrecision; image-rendering:optimizeQuality; fill-rule:evenodd; clip-rule:evenodd"
viewBox="0 0 438 438"
 xmlns:xlink="http://www.w3.org/1999/xlink">
 <defs>
  <style type="text/css">
   <![CDATA[
    .fil0 {fill:black}
   ]]>
  </style>
 </defs>
 <g id="Layer_x0020_1">
  <metadata id="CorelCorpID_0Corel-Layer"/>
  <path class="fil0" d="M227.28 402.12l-16.57 0c-0.03,3.78 -0.64,6.96 -1.26,10.17l-0.02 0.08c-0.63,3.26 -1.26,6.57 -1.29,10.58l21.68 0c-0.03,-4.05 -0.67,-7.37 -1.3,-10.65l-0 -0.02c-0.62,-3.21 -1.23,-6.39 -1.26,-10.17zm107.31 -305.05l0.53 0.26c2.03,-3.02 4.39,-6.05 6.76,-9.11l0.28 -0.37c1.15,-1.48 2.31,-2.98 3.45,-4.5l26.39 -35.2c1.1,-1.32 2.2,-2.33 3.27,-3.06 1.24,-0.85 2.46,-1.33 3.61,-1.5 0.71,-0.11 1.41,-0.09 2.07,0.02 0.71,0.12 1.37,0.35 1.97,0.67 0.57,0.3 1.11,0.69 1.6,1.15 0.49,0.45 0.92,0.97 1.29,1.53 0.58,0.9 1.01,1.88 1.23,2.87 0.23,1.01 0.26,2.05 0.05,3 -0.58,2.58 -12.88,18.59 -18.43,25.81l-2.37 3.1c-4.5,6 -8.29,11.2 -11.49,15.6l-0.22 0.31c-3.87,5.32 -6.88,9.45 -9.29,12.46 -2.54,3.17 -4.55,5.25 -6.35,6.35 -2.31,1.41 -4.37,1.18 -6.86,-0.44 -2.03,-1.32 -4.32,-3.62 -7.49,-6.8l-1.31 -1.32 -1.87 -1.73c-1.43,-1.3 -3.29,-2.99 -4.77,-4.51 -1.74,-1.8 -3.06,-3.56 -3.06,-4.83 0,-1.4 0.16,-2.75 0.5,-3.95 0.34,-1.21 0.86,-2.29 1.59,-3.18 0.68,-0.82 1.53,-1.47 2.58,-1.92 0.94,-0.4 2.04,-0.62 3.29,-0.62 1.56,0 2.97,0.7 4.31,1.78 1.18,0.95 2.28,2.13 3.38,3.33 0.66,0.71 1.32,1.43 1.98,2.08 0.64,0.63 1.32,1.24 2.05,1.79l1.33 0.93zm-270.01 -4.89c4.65,-4.09 9.39,-8.26 12.22,-12.39 -1.09,-0.81 -3.91,-3.37 -7.3,-6.59 -3.1,-2.95 -6.73,-6.52 -9.97,-9.88 -2.37,-2.46 -4.51,-4.76 -6.02,-6.55 -1.46,-1.72 -2.43,-3.12 -2.65,-3.96 -0.22,-0.86 -0.24,-1.79 -0.09,-2.7 0.15,-0.89 0.48,-1.8 0.95,-2.64 0.33,-0.6 0.74,-1.17 1.2,-1.66 0.47,-0.5 1,-0.95 1.57,-1.31 0.59,-0.38 1.25,-0.67 1.93,-0.85 0.66,-0.17 1.36,-0.25 2.08,-0.2 0.98,0.06 2.02,0.34 3.06,0.89 0.9,0.47 1.83,1.14 2.76,2.04l3.6 3.37c5.04,5.05 10.12,10.08 15.2,15.11l4.32 4.29c1.02,-0.72 2.47,-2.05 4.19,-3.74 1.86,-1.83 4.03,-4.09 6.29,-6.43 6.95,-7.22 14.79,-15.38 17.69,-15.38 1.08,0 2.14,0.06 3.14,0.24 1.09,0.19 2.09,0.52 2.94,1.05 0.85,0.53 1.55,1.28 2.04,2.32 0.44,0.94 0.69,2.09 0.69,3.5 0,2.42 -1.03,4.58 -2.69,6.69 -1.52,1.95 -3.54,3.82 -5.74,5.87l-1.9 1.78 -1.93 1.87c-1,1.01 -2.19,2.14 -3.46,3.35l-0.04 0.04c-1.87,1.78 -3.92,3.73 -5.69,5.55 -1.7,1.74 -3.2,3.41 -4.13,4.76 0.7,0.99 2.11,2.51 3.93,4.33 1.91,1.92 4.35,4.25 6.87,6.66l0.05 0.04c7.04,6.74 14.74,14.11 14.74,16.31 0,0.85 -0.06,1.64 -0.17,2.38 -0.12,0.77 -0.3,1.49 -0.54,2.14 -0.28,0.8 -0.65,1.5 -1.09,2.12 -0.48,0.67 -1.04,1.21 -1.63,1.63 -0.56,0.4 -1.19,0.7 -1.83,0.9 -0.66,0.2 -1.35,0.31 -2.03,0.31 -0.43,0 -0.87,-0.04 -1.31,-0.12 -0.44,-0.08 -0.86,-0.19 -1.27,-0.34 -2.49,-0.9 -5.26,-3.92 -7.54,-6.42l-0.09 -0.11c-0.72,-0.78 -1.38,-1.51 -1.96,-2.09 -1.39,-1.42 -2.83,-3.06 -4.26,-4.4 -4.44,-4.65 -9.99,-10.47 -13.22,-12.72 -1.97,2.83 -6.22,6.88 -9.79,10.28l-0.12 0.11c-1.3,1.24 -2.51,2.39 -3.43,3.31 -0.78,0.78 -1.61,1.7 -2.5,2.69l-0.07 0.09c-1.63,1.81 -3.51,3.89 -5.5,5.68 -1.99,1.78 -4.13,3.28 -6.28,3.87 -2.47,0.68 -4.86,0.23 -6.94,-2.1 -3.27,-3.66 -2.43,-7.61 0.53,-11.75 2.59,-3.62 6.85,-7.37 11.19,-11.18l0.01 -0.01zm192.53 287.42c-3.06,2.84 -6.58,4.52 -11.41,4.57 -0.44,1.8 -1.23,3.55 -1.98,5.23l-0.05 0.11c-0.49,1.09 -0.96,2.15 -1.31,3.14 -0.47,1.34 -0.46,3.37 -0.19,5.81 0.28,2.58 0.86,5.61 1.47,8.79l0.01 0.08c0.99,5.19 2.06,10.81 2.1,15.62l57.58 0c0.02,-3.04 0.44,-5.94 0.85,-8.84l0.02 -0.12c0.4,-2.84 0.81,-5.7 0.85,-8.71 0.04,-3.34 0.13,-6.18 0.23,-8.68 0.1,-2.56 0.22,-4.71 0.33,-6.69l0.01 -0.09c0.54,-10.1 0.86,-16.02 -2.12,-36.77l-1.04 -7.96c-1.41,-11.38 -1.95,-15.59 -9.1,-15.59 -1,0 -10.53,13.85 -16.61,22.68l-0.2 0.29c-2.18,3.17 -3.89,5.67 -4.58,6.58 -1.24,1.66 -2.43,3.35 -3.54,5 -1.2,1.78 -2.16,3.26 -3.08,4.67 -2.85,4.4 -5.28,8.15 -8.22,10.88zm-122.44 43.35l57.58 0c0.04,-4.5 1.04,-10.08 1.97,-15.26l0.06 -0.35c0.33,-1.78 0.64,-3.52 0.9,-5.17 0.7,-4.45 0.92,-6.89 0.79,-8.45 -0.1,-1.27 -0.5,-1.93 -1.06,-2.86 -0.71,-1.17 -1.67,-2.76 -2.6,-6.7 -9.04,-0.07 -11.97,-4.42 -15.6,-9.82l-0.3 -0.44c-4.82,-7.14 -9.72,-14.25 -14.63,-21.27 -4.87,-6.95 -10.04,-14.24 -15.24,-21.53l-0.03 -0.04c-0.34,-0.51 -0.65,-0.98 -1,-1.22 -0.32,-0.23 -0.82,-0.37 -1.7,-0.37 -5.67,0 -6.06,2.73 -6.7,7.16 -0.06,0.16 -0.37,2.19 -0.37,2.38 -0.65,3.72 -1.27,7.43 -1.82,11.13 -0.56,3.75 -1.06,7.5 -1.47,11.25 -0.42,3.8 -0.76,7.64 -0.99,11.51 -0.23,3.84 -0.35,7.78 -0.35,11.85 0,4.44 0.24,9.18 0.57,13.79 0.34,4.8 0.76,9.27 1.13,13.17l0 0.03c0.46,4.85 0.83,8.85 0.86,11.2zm72.33 -46.76c-0.36,0.42 -0.56,0.94 -0.56,1.74 0,0 0.33,1.55 0.99,3.44 0.33,0.95 0.75,1.94 1.23,2.75 0.42,0.7 0.9,1.29 1.43,1.67 0.36,0.26 0.77,0.41 1.21,0.41 3.68,0 6.59,0.07 8.86,0.12l0.2 0.01c1.75,0.04 3.15,0.08 4.25,0.06 1.01,-0.01 1.79,-0.07 2.4,-0.2 0.84,-0.18 1.32,-0.44 1.64,-0.85 0.43,-0.54 0.8,-1.51 1.33,-2.86l0.45 -1.14c0.53,-1.37 0.93,-2.36 1.08,-3.08 0.11,-0.51 0.09,-0.9 -0.07,-1.28 -0.14,-0.32 -0.41,-0.63 -0.8,-0.97 -0.52,-0.46 -1.23,-0.96 -2.15,-1.61l-0.14 -0.1c-0.77,-0.54 -1.7,-1.2 -2.8,-2.02l-2.33 -1.79c-1.21,-0.94 -2.11,-1.64 -2.84,-2.06 -0.55,-0.32 -1,-0.47 -1.46,-0.46 -0.97,0.02 -2.02,0.84 -4.05,2.43l-2.93 2.25 -1.35 0.96 -1.18 0.78c-1.08,0.7 -1.93,1.25 -2.41,1.81zm129.51 -34.3c-5.97,-3.47 -12.8,-6.17 -20.52,-8.02 0.52,1.41 1.05,4.02 1.53,6.98 0.53,3.23 1.04,6.92 1.43,9.88l0.53 3.82c0.49,3.25 0.78,6.35 0.97,9.2 0.18,2.72 0.27,5.32 0.34,7.56l0 0.09c0.09,2.63 0.16,4.78 0.36,6.26 1.09,8 -0.03,20.64 -0.96,31.17l-0.01 0.06c-0.5,5.64 -0.95,10.68 -0.97,14.06 7.82,0 14.54,0.08 20.27,0.14l0.23 -0.01c16.56,0.19 24.98,0.28 28.88,-1.71 3.92,-2 3.26,-6.28 1.93,-14.96l-0 -0.02c-0.4,-2.6 -0.86,-5.58 -1.26,-8.94 -1.04,-8.58 -2.96,-16.49 -5.8,-23.63 -2.75,-6.92 -6.39,-13.14 -10.96,-18.54 -4.45,-5.27 -9.77,-9.76 -16.01,-13.39zm-261.06 81.06l43.31 0c-0.01,-1.83 -0.11,-3.57 -0.25,-5.26 -0.16,-1.81 -0.36,-3.56 -0.57,-5.32l-0.01 -0.12c-0.44,-3.77 -0.89,-7.62 -0.85,-12.12 0.02,-1.92 -0.04,-3.4 -0.14,-4.63 -0.09,-1.23 -0.22,-2.16 -0.34,-3.04 -0.21,-1.51 -0.4,-2.92 -0.4,-5.2 0.01,-2.28 0.2,-5.41 0.75,-10.33 0.12,-1.06 0.2,-2.2 0.27,-3.41l0.17 -4c0.08,-2.26 0.18,-4.73 0.35,-7.25 0.18,-2.63 0.45,-5.45 0.89,-8.45 0.15,-1.06 0.27,-2.17 0.44,-3.21 0.74,-5.41 1.88,-13.79 2.95,-16.73 -7.66,1.83 -14.47,4.53 -20.45,8.01 -6.27,3.64 -11.64,8.15 -16.12,13.4 -4.59,5.38 -8.26,11.56 -11.02,18.4 -2.82,7 -4.68,14.71 -5.61,22.99 -0.3,2.66 -0.72,5.26 -1.12,7.71l-0.02 0.12c-0.31,1.9 -0.61,3.73 -0.82,5.35 -0.21,1.61 -0.34,3.14 -0.34,4.57 0,2.71 0.45,4.89 1.73,6.31 1.29,1.42 3.55,2.22 7.21,2.22zm151.26 -86.84l7.11 -9.17c-1.64,0.09 -2.74,0.39 -3.95,0.72l-0.05 0.02c-0.75,0.2 -1.56,0.43 -2.56,0.62 -3.71,0.7 -7.62,0.69 -11.2,0.39 -3.53,-0.29 -6.74,-0.86 -9.08,-1.27l-0.12 -0.02c-1.11,-0.19 -2.03,-0.36 -2.67,-0.43l7.09 9.14c0.73,0.82 1.66,1.99 2.62,3.21l0.03 0.02c0.96,1.22 1.98,2.51 2.88,3.55 0.81,0.94 1.57,1.75 2.19,2.24 0.62,-0.49 1.38,-1.3 2.19,-2.24 0.97,-1.13 1.95,-2.37 2.88,-3.54l0.02 -0.03c0.97,-1.22 1.89,-2.38 2.62,-3.21zm8.7 24.15c4.13,3.25 9.1,7.16 11.68,7.96 5.3,-7.8 10.6,-15.59 15.96,-23.33 0.98,-1.33 1.92,-2.62 3.07,-4.36l3.34 -4.97 2.63 -3.85c2.09,-3.06 3.22,-4.69 3.54,-5.56 0.2,-0.55 0.64,-0.49 0.5,-0.6 -0.13,-0.1 -0.91,-0.17 -1.96,-0.27l-0.87 -0.08 -1.12 -0.16c-1.35,-0.23 -2.77,-0.54 -4.23,-0.85l-0.08 -0.02c-3.38,-0.73 -6.98,-1.49 -10.21,-1.52 -0.52,1.43 -2.92,4.58 -5.93,8.24 -3.04,3.68 -6.74,7.96 -9.72,11.38l-0.28 0.33c-2.14,2.47 -3.88,4.48 -4.67,5.48l-2.2 2.7c-0.79,0.96 -1.53,1.86 -2.26,2.8 -0.68,0.88 -1.38,1.83 -2.12,2.92 0.58,0.4 1.28,0.92 2.05,1.51l2.88 2.25zm-70.87 -34.93c-1.12,0.26 -1.98,0.48 -2.41,0.61 0.98,1.79 2.88,4.65 5.25,8.05 2.66,3.82 5.67,7.98 8.69,12.16l0.04 0.06c6.93,9.61 13.9,19.27 14.87,22.02 0.64,-0.11 1.53,-0.5 2.57,-1.06 1.48,-0.8 3.18,-1.95 4.87,-3.22 2.01,-1.5 4.07,-3.23 5.78,-4.79 1.57,-1.43 2.8,-2.68 3.36,-3.43l-3.48 -4.05 -3.63 -4.3 -3.53 -4.26c-1.59,-1.95 -3.18,-3.88 -4.74,-5.85 -1.66,-2.14 -4.63,-5.93 -7.51,-9.18 -2.63,-2.97 -5.06,-5.45 -5.83,-5.45 -0.4,0 -1.4,0.14 -2.72,0.36 -1.51,0.25 -3.54,0.63 -5.63,1.05 -2.13,0.43 -4.29,0.89 -5.95,1.28zm-29.46 -107.09c-1.77,1.48 -2.97,3.97 -2.97,8.45 0,0.64 0.08,1.28 0.22,1.9 0.16,0.7 0.39,1.41 0.68,2.08 0.31,0.73 0.68,1.42 1.08,2.04 0.4,0.62 0.84,1.17 1.26,1.59 0.53,0.53 1.05,0.95 1.57,1.29 0.53,0.35 1.1,0.63 1.71,0.86 0.58,0.23 1.23,0.42 1.95,0.58 0.77,0.18 1.58,0.33 2.45,0.48 3.99,0.67 6.16,2.59 7.46,5.49 1.17,2.62 1.51,5.9 1.91,9.8 0.42,4.13 0.92,8.91 2.42,14.06 1.49,5.12 4.01,10.67 8.48,16.45 2.96,3.83 6.69,6.33 10.63,8.97l4.45 3c24.83,16.87 40.59,27.58 72.62,6.05l3.13 -2.14 6.41 -4.48c1.27,-0.87 2.49,-1.7 3.61,-2.44 9.11,-5.97 14.11,-12.77 16.98,-19.47 2.89,-6.75 3.67,-13.53 4.33,-19.27 0.3,-2.59 0.57,-4.97 1.01,-7.07 0.47,-2.23 1.12,-4.14 2.18,-5.6 0.87,-1.21 2.08,-1.99 3.48,-2.55 1.2,-0.49 2.57,-0.82 3.95,-1.15 2.51,-0.6 5.09,-1.23 6.9,-2.76 1.74,-1.49 2.92,-4 2.92,-8.55 0,-4.42 -1.79,-6.94 -4.1,-8.43 -2.47,-1.6 -5.66,-2.19 -8.04,-2.62l-1.61 -0.3c-0.6,-0.14 -1.09,-0.29 -1.4,-0.47 -1.63,-0.95 -2.52,-2.28 -3.04,-3.86 -0.45,-1.36 -0.59,-2.88 -0.73,-4.48 -0.3,-3.36 -0.65,-7.18 -3.83,-10.66 -0.84,-0.92 -1.69,-1.66 -2.57,-2.26 -0.88,-0.61 -1.81,-1.09 -2.8,-1.48 -0.99,-0.39 -2.04,-0.69 -3.16,-0.95 -1.19,-0.28 -2.43,-0.5 -3.77,-0.72 -2.87,-0.48 -5.45,-0.97 -7.82,-1.49 -2.39,-0.52 -4.68,-1.1 -6.96,-1.73 -2.24,-0.62 -4.42,-1.29 -6.63,-2.01 -2.28,-0.75 -4.55,-1.54 -6.93,-2.38 -1.82,-0.65 -4.2,-1.7 -6.74,-2.9 -2.52,-1.19 -5.18,-2.51 -7.66,-3.73 -2.56,-1.27 -4.94,-2.45 -6.73,-3.25 -1.6,-0.71 -2.69,-1.15 -2.92,-1.12 -0.33,0.04 -4.2,2.14 -7.41,3.89l-0.14 0.07c-1.81,0.98 -3.39,1.84 -4.03,2.16 -3.1,1.55 -6.35,2.98 -9.71,4.28 -3.34,1.3 -6.75,2.45 -10.19,3.49 -3.46,1.04 -6.98,1.97 -10.55,2.79 -3.56,0.83 -7.15,1.55 -10.74,2.19 -6.75,1.19 -10.25,3.62 -12.12,6.46 -1.87,2.84 -2.2,6.29 -2.49,9.28 -0.08,0.83 -0.16,1.63 -0.25,2.3 -0.11,0.76 -0.25,1.48 -0.47,2.13 -1.24,3.72 -4.68,4.57 -8.28,5.44l-0.22 0.05c-2.48,0.6 -5,1.25 -6.78,2.75zm-3 -23.38l0.02 6.77c1.97,-0.18 2.96,-0.45 3.43,-0.9 0.42,-0.41 0.63,-1.35 0.94,-2.75 0.15,-0.7 0.34,-1.54 0.68,-2.66 0.32,-1.05 0.77,-2.27 1.43,-3.65 0.41,-0.85 0.87,-1.71 1.37,-2.52 0.53,-0.86 1.09,-1.7 1.67,-2.49 0.6,-0.8 1.23,-1.59 1.9,-2.35 0.66,-0.75 1.34,-1.45 2.02,-2.07 0.66,-0.61 1.4,-1.22 2.18,-1.79 0.78,-0.58 1.64,-1.14 2.53,-1.67 0.89,-0.53 1.82,-1.03 2.76,-1.48 0.94,-0.45 1.88,-0.86 2.78,-1.18 1.43,-0.52 2.86,-0.89 4.31,-1.18 1.45,-0.29 2.83,-0.5 4.23,-0.7l2.45 -0.37c0.8,-0.13 1.65,-0.28 2.56,-0.47 2.98,-0.62 6.34,-1.46 9.81,-2.46 3.31,-0.95 6.79,-2.07 10.19,-3.3 3.06,-1.1 6.07,-2.31 8.87,-3.58 2.53,-1.15 4.85,-2.35 6.83,-3.55 6.38,-3.9 10.62,-5.33 14.7,-5.08 4.08,0.25 7.67,2.14 12.94,4.91l0.86 0.45c2.93,1.54 5.8,2.94 8.66,4.22 2.85,1.27 5.69,2.42 8.59,3.46 2.96,1.05 5.92,1.99 8.95,2.82 3.03,0.83 6.23,1.58 9.65,2.26l2.17 0.4 2.27 0.38c3.28,0.54 6.39,1.05 9.5,2.2 3.19,1.18 6.34,3 9.6,6.14 3.18,3.07 5.05,5.8 6.2,8.17 1.18,2.41 1.61,4.37 1.96,5.96 0.35,1.6 0.63,2.86 1.23,3.56 0.56,0.65 1.6,1.07 3.58,1.26l0.06 -8.26c0.03,-2.73 0.06,-5.49 0.06,-8.2 0,-2.71 -0.02,-5.41 -0.09,-8.07 -0.03,-1.16 -0.15,-2.48 -0.32,-3.89 -0.19,-1.58 -0.45,-3.19 -0.75,-4.76 -0.34,-1.78 -0.75,-3.66 -1.18,-5.49 -0.53,-2.22 -1.07,-4.25 -1.54,-5.92 -0.86,-3.07 -2.22,-6.52 -3.88,-10.06 -1.77,-3.76 -3.89,-7.64 -6.17,-11.31 -2.27,-3.65 -4.7,-7.09 -7.08,-10.01 -2.22,-2.72 -4.4,-4.96 -6.34,-6.44 -0.97,-0.74 -1.89,-1.47 -2.77,-2.2l-2.51 -2.1c-4.11,-3.48 -7.89,-6.66 -15.74,-10.5 -6.01,-2.94 -12.4,-5.15 -18.95,-6.63 -6.65,-1.5 -13.49,-2.25 -20.31,-2.22 -6.75,0.02 -13.52,0.81 -20.11,2.37 -6.42,1.52 -12.64,3.77 -18.48,6.77 -1.15,0.59 -2.35,1.25 -3.55,1.96 -1.25,0.73 -2.54,1.53 -3.82,2.37 -1.3,0.85 -2.61,1.74 -3.89,2.65 -1.32,0.94 -2.57,1.88 -3.7,2.76 -2.02,1.58 -3.77,3.06 -5.35,4.52 -1.55,1.43 -2.93,2.82 -4.24,4.28 -1.33,1.48 -2.58,2.99 -3.85,4.62 -1.24,1.59 -2.62,3.45 -4.19,5.58 -1.16,1.57 -2.24,3.22 -3.23,4.92 -1.09,1.85 -2.1,3.77 -3.04,5.73 -0.99,2.08 -1.93,4.25 -2.79,6.46 -0.94,2.4 -1.78,4.79 -2.52,7.08 -3.7,11.56 -3.63,23.11 -3.53,37.18l0 0.02zm146.14 -160.42l0 63.23c0,1.61 0.47,1.87 1.24,2.3 0.38,0.21 0.82,0.46 1.29,0.85 3.94,3.27 8.2,7.14 12.34,11.41 3.55,3.67 7,7.61 10.05,11.69 2.69,3.6 5.09,7.33 7.02,11.1 1.73,3.39 3.07,6.83 3.89,10.24l2.7 -0.04c1.28,-0.03 2.6,-0.1 3.87,-0.1 9,-0.25 21.31,-0.59 25.53,1.28 5.48,2.43 5.17,12.11 4.84,21.59l-0.11 3.47 -0.04 2.73c3.41,-1.51 17.76,-13.83 24.09,-19.26 1.04,-1.17 3.17,-2.46 4.21,-3.64 2.23,-1.97 5.26,-4.65 7.06,-5.33 1.88,-0.71 4.88,-0.71 8.37,-0.71 5.86,0.01 13.13,0.02 18.75,-3.15 5.5,-3.1 9.62,-9.42 9.62,-22.21l0 -80.32c0,-3.88 -0.57,-7.36 -1.66,-10.37 -1.09,-3.01 -2.7,-5.59 -4.8,-7.69 -2.1,-2.1 -4.68,-3.71 -7.68,-4.8 -3.02,-1.09 -6.49,-1.66 -10.38,-1.66l-96.55 0c-3.24,0 -6.35,0.52 -9.17,1.48 -2.89,0.98 -5.5,2.41 -7.68,4.2 -2.16,1.77 -3.9,3.9 -5.08,6.28 -1.12,2.26 -1.73,4.76 -1.73,7.43zm-160.73 110.69c2.48,0.06 4.72,0.12 6.42,0.12 0.25,-2.4 1.32,-5.34 2.94,-8.55 1.81,-3.58 4.33,-7.55 7.18,-11.52 3.3,-4.59 7.06,-9.17 10.66,-13.11 3.72,-4.07 7.29,-7.47 10.04,-9.51l1.02 -0.7c0.64,-0.42 1.36,-0.9 1.97,-1.42 0.43,-0.37 0.8,-0.58 1.11,-0.74l0.04 -0.02c0.38,-0.2 0.66,-0.36 0.72,-0.46 0.12,-0.2 0.18,-0.64 0.18,-1.55l0 -63.23c0,-2.67 -0.62,-5.17 -1.74,-7.42 -1.18,-2.38 -2.93,-4.51 -5.08,-6.28 -2.18,-1.79 -4.8,-3.23 -7.69,-4.21 -2.83,-0.96 -5.93,-1.48 -9.15,-1.48l-96.55 0c-3.88,0 -7.36,0.57 -10.37,1.65 -3.01,1.09 -5.59,2.71 -7.69,4.8 -2.1,2.1 -3.72,4.68 -4.8,7.69 -1.09,3.02 -1.66,6.49 -1.66,10.37l0 82.03c0,11.64 4.23,17.51 9.85,20.48 5.8,3.05 13.24,3.22 19.15,3.34 1.88,0.04 3.61,0.08 4.94,0.19 1.57,0.13 2.88,0.37 3.8,0.83l0.16 0.08 9.02 7.36c1.41,1.1 2.78,2.23 4.11,3.36 1.49,1.26 2.82,2.42 4.15,3.58 0.5,0.56 1.76,1.48 2.39,2.02l4.27 3.41c1.23,1.01 2.42,2 3.62,3.06 0.63,0.55 1.22,1.07 2.41,2.03 0.74,0.58 1.23,1.06 1.61,1.44l0.02 0.01c0.39,0.38 0.67,0.66 0.99,0.85 0.33,0.19 0.81,0.37 1.62,0.6 -0.01,-2.05 -0.08,-4.15 -0.15,-6.22l-0.01 -0.36c-0.16,-4.7 -0.32,-9.27 0.2,-12.98 0.59,-4.18 2.07,-7.32 5.28,-8.52 4.12,-1.53 16.09,-1.23 24.89,-1.02l0.13 0zm-117.5 -18.41l0 -93.13c0,-1.84 0.27,-3.74 0.75,-5.64 0.51,-2.07 1.27,-4.12 2.15,-6.06 1.02,-2.23 2.23,-4.35 3.47,-6.21 1.39,-2.08 2.84,-3.87 4.14,-5.17 1.31,-1.31 3.09,-2.75 5.17,-4.14 1.86,-1.24 3.98,-2.45 6.21,-3.47 1.94,-0.89 3.99,-1.64 6.06,-2.15 1.9,-0.47 3.8,-0.75 5.64,-0.75l107.66 0c2.79,0 5.58,0.46 8.28,1.28 2.86,0.87 5.6,2.14 8.14,3.7 2.71,1.66 5.2,3.66 7.38,5.84 2.22,2.23 4.11,4.68 5.55,7.18 6.99,12.12 6.23,33.94 5.51,54.38l-0.01 0.27c-0.2,5.84 -0.4,11.57 -0.41,16.92 6.51,-3.08 13.43,-5.41 20.57,-6.98 7.42,-1.63 15.08,-2.44 22.75,-2.44 7.66,0 15.33,0.81 22.75,2.44 7.13,1.56 14.06,3.89 20.57,6.98 -0.01,-3.53 -0.1,-8.19 -0.2,-13.42l-0 -0.07c-0.16,-8.36 -0.35,-18.14 -0.28,-26.87 0.08,-8.81 0.44,-16.56 1.37,-20.77 0.85,-3.82 2.41,-7.51 4.51,-10.88 2.15,-3.46 4.89,-6.62 8.01,-9.26 3.06,-2.59 6.49,-4.71 10.13,-6.14 3.5,-1.38 7.19,-2.15 10.9,-2.15l107.66 0c4.12,0 8.33,1.06 12.32,2.95 4.04,1.92 7.86,4.7 11.11,8.12 3.12,3.28 5.73,7.16 7.52,11.42 1.68,3.99 2.64,8.32 2.64,12.81l0 91.43c0,2.14 -0.26,4.25 -0.74,6.3 -0.5,2.14 -1.25,4.22 -2.19,6.23 -1.01,2.14 -2.22,4.17 -3.58,6.04 -1.43,1.97 -3.05,3.82 -4.77,5.47 -10.63,10.25 -19.77,10.16 -26.93,10.09 -2.21,-0.02 -4.25,-0.04 -6.04,0.24 -1.64,0.26 -3.12,0.8 -4.43,1.87l-0.1 0.07c-2.85,2 -7.17,5.46 -11.6,9.16 -5.27,4.41 -10.65,9.15 -13.83,12.14 -0.46,0.44 -1.05,0.88 -1.56,1.28 -1.87,1.43 -3.85,2.57 -5.86,3.37 -2,0.8 -4.06,1.25 -6.07,1.32 -2.06,0.06 -4.08,-0.29 -5.97,-1.11 -1.78,-0.78 -3.44,-1.97 -4.89,-3.61l-0.74 -0.89c-2.1,-2.75 -3.12,-5.72 -3.58,-8.97 -0.44,-3.09 -0.36,-6.41 -0.28,-10.02l0.07 -4.52 -15.68 0c0.16,1.8 0.46,3.44 0.76,5.14l0.04 0.18c0.35,1.94 0.71,3.98 0.91,6.33 1.09,12.95 0.99,26.06 0.89,39.34l-0.01 1.57c-0.02,3.42 -0.05,6.71 -0.05,10.41 0,2.59 -0.26,5.01 -0.73,7.26 -0.5,2.38 -1.24,4.56 -2.19,6.53 -0.99,2.07 -2.21,3.94 -3.6,5.6 -1.47,1.74 -3.13,3.25 -4.92,4.53 -1.6,1.14 -2.91,1.87 -3.99,2.36 -1.11,0.51 -1.93,0.76 -2.57,0.95 -0.91,0.28 -1.51,0.46 -1.77,0.77 -0.38,0.45 -0.68,1.42 -1.06,3.35 -0.19,0.99 -0.36,1.93 -0.5,2.84l-0.45 3.09c-0.2,1.38 -0.4,2.8 -0.66,4.35 -0.25,1.51 -0.53,2.99 -0.85,4.37 -0.56,2.41 -1.44,5.01 -2.54,7.63 -1.12,2.69 -2.49,5.43 -3.99,8.01 -1.47,2.53 -3.08,4.93 -4.73,7.01 -1.6,2.02 -3.23,3.75 -4.81,5.02l-13.16 9.97 5.99 1.19c7.53,1.48 15.79,3.1 21.26,4.99l8.21 1.57c7.73,1.45 14.76,2.77 21.67,4.93 6.97,2.18 13.8,5.22 21.08,10.08 2.19,1.46 3.94,2.67 5.44,3.79 1.54,1.15 2.82,2.19 4.04,3.3 1.19,1.08 2.36,2.27 3.7,3.71 1.25,1.34 2.69,2.97 4.46,4.99 3.01,3.44 5.6,7.03 7.82,10.75 2.22,3.72 4.08,7.59 5.63,11.59 1.56,4.02 2.82,8.18 3.82,12.45 1,4.24 1.77,8.67 2.38,13.26 0.21,1.62 0.47,3.32 0.72,5.01l0.07 0.45c0.94,6.3 1.87,12.51 1.29,18.22 -0.6,5.94 -2.82,11.23 -8.23,15.29 -0.73,0.54 -1.53,1.11 -2.4,1.64 -0.88,0.54 -1.83,1.06 -2.82,1.51 -0.99,0.44 -2.03,0.82 -3.12,1.08 -1.12,0.27 -2.28,0.43 -3.46,0.43l-295.63 0c-1.01,0 -2.01,-0.12 -2.99,-0.33 -1.04,-0.22 -2.06,-0.55 -3.04,-0.95 -1.12,-0.46 -2.18,-1.01 -3.15,-1.59 -1.16,-0.69 -2.21,-1.45 -3.11,-2.16 -5.22,-4.12 -7.28,-9.55 -7.77,-15.55 -0.47,-5.75 0.52,-12 1.49,-18.12l0.06 -0.35c0.27,-1.74 0.55,-3.46 0.79,-5.19 0.37,-2.72 0.74,-5.27 1.14,-7.65 0.41,-2.46 0.85,-4.77 1.37,-6.98 0.52,-2.22 1.12,-4.37 1.84,-6.47 0.72,-2.11 1.57,-4.18 2.58,-6.26 1,-2.07 1.95,-3.97 2.88,-5.75 0.95,-1.81 1.91,-3.52 2.91,-5.16 1,-1.64 2.07,-3.23 3.25,-4.82 1.16,-1.57 2.44,-3.14 3.89,-4.76 10.06,-11.26 18.87,-17.64 28.59,-21.88 9.68,-4.22 20.13,-6.27 33.59,-8.9l6.76 -1.33 27.39 -5.23 -4.89 -3.67c-3.06,-2.27 -5.9,-4.47 -8.52,-6.77 -2.65,-2.33 -5.06,-4.75 -7.19,-7.42 -2.14,-2.69 -4.03,-5.64 -5.63,-9.01 -1.6,-3.37 -2.93,-7.18 -3.96,-11.57 -1.66,-7.09 -1.98,-11.18 -2.18,-13.68l-0 -0.03c-0.16,-2.04 -0.24,-3.08 -0.62,-3.55 -0.44,-0.55 -1.64,-1.06 -4.03,-2.05 -2.54,-1.06 -4.86,-2.47 -6.89,-4.19 -2.03,-1.72 -3.79,-3.77 -5.22,-6.1 -1.4,-2.27 -2.5,-4.83 -3.23,-7.65 -0.71,-2.71 -1.09,-5.64 -1.09,-8.74l0 -38.45c0,-3.72 0.21,-6.89 0.51,-9.73 0.29,-2.75 0.68,-5.19 1.05,-7.51l0.01 -0.07c0.39,-2.44 0.76,-4.76 0.97,-7.21l-15.68 0 0 11.7c0,2.43 -0.41,4.74 -1.15,6.83 -0.77,2.17 -1.92,4.11 -3.36,5.71 -0.68,0.76 -1.42,1.45 -2.2,2.03 -0.78,0.58 -1.63,1.09 -2.54,1.51 -0.91,0.42 -1.88,0.75 -2.87,0.96 -0.98,0.21 -2,0.33 -3.05,0.33 -2.26,0 -4.68,-0.52 -7.17,-1.64 -2.24,-1.01 -4.55,-2.52 -6.88,-4.6 -7.79,-6.49 -15.72,-12.86 -23.32,-19.57 -0.74,-0.64 -1.52,-1.27 -2.3,-1.86 -1.19,-0.9 -2.34,-1.32 -3.54,-1.48 -1.31,-0.18 -2.8,-0.09 -4.5,0l-0.1 0.01c-4.88,0.28 -11.53,0.63 -22.59,-5.33 -2.28,-1.23 -4.55,-3.01 -6.66,-5.16 -2.11,-2.15 -4.07,-4.69 -5.72,-7.43 -1.58,-2.62 -2.88,-5.44 -3.78,-8.3 -0.85,-2.72 -1.33,-5.47 -1.33,-8.14z"/>
 </g>
</svg>
