<?xml version="1.0" encoding="UTF-8"?>
<!DOCTYPE svg PUBLIC "-//W3C//DTD SVG 1.1//EN" "http://www.w3.org/Graphics/SVG/1.1/DTD/svg11.dtd">
<!-- Creator: CorelDRAW 2019 (64-Bit) -->
<svg xmlns="http://www.w3.org/2000/svg" xml:space="preserve" width="25.4mm" height="25.4mm" version="1.1" style="shape-rendering:geometricPrecision; text-rendering:geometricPrecision; image-rendering:optimizeQuality; fill-rule:evenodd; clip-rule:evenodd"
viewBox="0 0 545.26 545.26"
 xmlns:xlink="http://www.w3.org/1999/xlink">
 <defs>
  <style type="text/css">
   <![CDATA[
    .fil0 {fill:black}
   ]]>
  </style>
 </defs>
 <g id="Layer_x0020_1">
  <metadata id="CorelCorpID_0Corel-Layer"/>
  <path class="fil0" d="M286.83 381.86l94.59 0 0.24 -0.14c0.31,-0.21 0.64,-0.53 0.94,-0.93 0.42,-0.55 0.77,-1.18 1,-1.82 0.22,-0.59 0.35,-1.2 0.35,-1.75l0 -19.27 -97.12 0 0 23.9zm-226.1 -236.4l0 -48.56c0,-8.14 2.61,-15.04 6.62,-20.65 4.79,-6.7 11.6,-11.53 18.33,-14.37 1.69,-0.71 3.37,-1.31 5,-1.76 1.67,-0.47 3.34,-0.82 4.94,-1.04 1.66,-0.23 3.27,-0.31 4.79,-0.26 1.55,0.05 3.01,0.26 4.31,0.61 2.59,0.7 4.73,1.93 6.22,3.71 1.45,1.73 2.26,3.92 2.26,6.57 0,6.13 -1.64,9.6 -4.28,11.77 -2.57,2.12 -5.81,2.77 -9.35,3.47 -2.38,0.47 -5,1 -7.23,2.49 -2.22,1.47 -4.26,4.01 -5.71,8.6 -1.54,4.91 -1.13,22.96 -0.83,36.04l0.02 0.62c0.1,4.5 0.19,8.43 0.19,10.24l0 268.83 0.17 5.95c0,3.56 -0.35,7.48 -1.8,10.63 -1.62,3.52 -4.49,5.99 -9.44,5.99 -6.04,0 -9.66,-1.09 -11.92,-4.06 -2.13,-2.81 -2.67,-7.03 -2.67,-13.46 0,-1.52 0.07,-4.21 0.16,-7.31l0.21 -9.68 -49.59 0c-1.46,0 -2.84,-0.34 -4.11,-0.94 -1.29,-0.61 -2.46,-1.51 -3.46,-2.61 -0.91,-0.99 -1.68,-2.17 -2.26,-3.46 -0.58,-1.27 -0.99,-2.65 -1.17,-4.05 -0.07,-0.53 -0.11,-1.23 -0.11,-1.89 0,-0.65 0.03,-1.34 0.11,-1.85 0.14,-0.96 0.38,-1.91 0.74,-2.82 0.35,-0.88 0.81,-1.74 1.39,-2.55 0.55,-0.77 1.21,-1.48 1.96,-2.12 0.7,-0.6 1.51,-1.15 2.42,-1.61 3.98,-2.06 27.48,-1.65 39.55,-1.44l5.77 0.09c2.45,0.01 4.28,0.12 5.82,0.22l0.08 0c1.27,0.08 2.26,0.14 2.89,0.12 0.45,-2.26 0.36,-7.11 0.22,-15.62 -0.45,-1.82 -0.18,-13.08 -0.2,-15.96l-42.31 0c-2.25,0 -4.28,-0.2 -6.09,-0.56 -1.99,-0.39 -3.71,-0.98 -5.17,-1.71 -1.83,-0.91 -3.3,-2.07 -4.43,-3.36 -1.25,-1.43 -2.08,-3.04 -2.53,-4.71l-0.17 -0.63 0 -4.76 0.17 -0.65c0.35,-1.4 0.97,-2.77 1.8,-4 0.81,-1.2 1.84,-2.3 3.03,-3.2 1.12,-0.85 2.43,-1.55 3.86,-2.02 1.35,-0.45 2.8,-0.7 4.3,-0.7l47.51 0 0 -31.22 -45.42 0c-1.79,0 -3.44,-0.21 -4.94,-0.59 -1.62,-0.41 -3.07,-1.04 -4.34,-1.81 -1.46,-0.89 -2.67,-1.99 -3.63,-3.23 -1.01,-1.3 -1.73,-2.76 -2.15,-4.27l-0.19 -0.68 0 -5.16 0.19 -0.67c0.42,-1.51 1.14,-2.97 2.15,-4.27 0.95,-1.23 2.17,-2.34 3.63,-3.23 1.27,-0.77 2.72,-1.4 4.34,-1.81 1.5,-0.38 3.14,-0.59 4.94,-0.59l45.42 0 0 -31.22 -47.51 0c-1.63,0 -3.14,-0.25 -4.52,-0.69 -1.48,-0.47 -2.8,-1.18 -3.92,-2.05 -1.24,-0.96 -2.25,-2.12 -3.01,-3.4 -0.79,-1.32 -1.34,-2.79 -1.61,-4.29 -0.11,-0.59 -0.16,-1.5 -0.16,-2.35 0,-0.84 0.06,-1.75 0.16,-2.33 0.18,-1.02 0.49,-2.02 0.92,-2.97 0.42,-0.94 0.96,-1.83 1.6,-2.65 0.64,-0.79 1.37,-1.52 2.19,-2.15 0.79,-0.6 1.69,-1.14 2.68,-1.56 3.04,-1.31 11.76,-1.85 21.68,-2.02 9.71,-0.17 20.67,-0.02 28.42,0.09l3.11 0.04 0.07 -7.44 0.13 -8.23c0.14,-8.74 0.23,-13.66 -0.26,-15.9 -0.72,-0.04 -1.82,0.03 -3.26,0.12l-0.11 0.01c-1.71,0.11 -3.75,0.24 -6.46,0.24 -2.09,0.04 -4.24,0.13 -6.32,0.13 -12.29,0.29 -34.64,0.82 -39.05,-2.16 -0.74,-0.5 -1.41,-1.06 -1.99,-1.65 -0.6,-0.61 -1.14,-1.28 -1.59,-1.99 -0.49,-0.75 -0.87,-1.52 -1.16,-2.3 -0.3,-0.84 -0.52,-1.68 -0.64,-2.5 -0.07,-0.51 -0.11,-1.23 -0.11,-1.91 0,-0.69 0.04,-1.42 0.11,-1.92 0.2,-1.4 0.61,-2.75 1.18,-3.99 0.61,-1.28 1.38,-2.45 2.28,-3.43 1,-1.08 2.17,-1.97 3.46,-2.58 1.26,-0.6 2.64,-0.93 4.08,-0.93l49.6 0zm14.91 328.95c-3.9,-2.95 -7.13,-6.47 -9.37,-10.24 -2.2,-3.71 -3.45,-7.67 -3.45,-11.63 0,-1.6 0.27,-3.05 0.73,-4.34 0.51,-1.45 1.28,-2.7 2.18,-3.75 1.09,-1.27 2.39,-2.23 3.7,-2.88 1.54,-0.76 3.13,-1.14 4.45,-1.14l0.19 0c3.75,0 5.57,0 7.87,1.46 1.95,1.23 2.99,2.83 5,5.93l0.57 0.87c5.63,8.64 9.83,8.6 18.72,8.52l321.25 -0.06c4.41,-0.01 7.96,0.61 10.75,1.64 3.37,1.25 5.68,3.13 7.09,5.28 0.6,0.92 1.04,1.9 1.34,2.91 0.31,1.03 0.45,2.11 0.44,3.18 -0.01,1 -0.14,1.98 -0.39,2.91 -0.26,0.96 -0.63,1.89 -1.11,2.77 -1.2,2.22 -3.1,4.2 -5.43,5.58 -2.17,1.28 -4.74,2.06 -7.49,2.06l-32.87 0 0 50.65c0,2.56 -0.81,4.7 -2.14,6.41 -1.45,1.85 -3.52,3.16 -5.82,3.9 -0.73,0.24 -1.51,0.42 -2.3,0.54 -0.82,0.13 -1.62,0.19 -2.37,0.19 -0.75,0 -1.54,-0.07 -2.36,-0.19 -0.76,-0.11 -1.54,-0.3 -2.3,-0.54 -2.31,-0.74 -4.37,-2.05 -5.82,-3.9 -1.34,-1.71 -2.14,-3.85 -2.14,-6.41l0 -50.65 -31.22 0 0 43.33c0,2.25 -0.2,4.28 -0.56,6.09 -0.39,1.99 -0.98,3.71 -1.71,5.17 -0.92,1.84 -2.07,3.31 -3.36,4.44 -1.44,1.25 -3.05,2.08 -4.71,2.52l-0.63 0.17 -4.76 0 -0.65 -0.17c-1.4,-0.35 -2.76,-0.97 -4,-1.8 -1.2,-0.81 -2.3,-1.84 -3.2,-3.03 -0.85,-1.12 -1.55,-2.43 -2.02,-3.86 -0.45,-1.35 -0.7,-2.8 -0.7,-4.3l0 -48.56 -31.22 0 0 46.47c0,1.79 -0.21,3.44 -0.59,4.94 -0.43,1.64 -1.05,3.09 -1.81,4.34 -0.89,1.46 -1.99,2.67 -3.23,3.63 -1.3,1.01 -2.76,1.73 -4.27,2.15l-0.68 0.19 -5.16 0 -0.67 -0.19c-1.51,-0.42 -2.97,-1.14 -4.27,-2.15 -1.23,-0.95 -2.34,-2.17 -3.23,-3.63 -0.76,-1.25 -1.38,-2.7 -1.8,-4.34 -0.39,-1.5 -0.6,-3.14 -0.6,-4.94l0 -46.47 -31.22 0 0 48.56c0,1.63 -0.25,3.14 -0.69,4.52 -0.47,1.48 -1.18,2.8 -2.05,3.92 -0.96,1.24 -2.12,2.25 -3.4,3.01 -1.32,0.79 -2.78,1.33 -4.29,1.6 -0.59,0.11 -1.5,0.16 -2.35,0.16 -0.84,0 -1.75,-0.06 -2.33,-0.16 -1.02,-0.18 -2.02,-0.49 -2.97,-0.92 -0.94,-0.42 -1.83,-0.96 -2.65,-1.6 -0.79,-0.64 -1.52,-1.37 -2.15,-2.19 -0.6,-0.79 -1.14,-1.69 -1.56,-2.68 -2.56,-5.92 -2.16,-35.08 -1.93,-50.98l0.04 -3.24 -31.19 0 0 50.65c0,2.56 -0.81,4.7 -2.14,6.41 -1.45,1.85 -3.51,3.16 -5.82,3.9 -0.73,0.24 -1.51,0.42 -2.3,0.54 -0.82,0.13 -1.62,0.19 -2.37,0.19 -0.75,0 -1.54,-0.07 -2.36,-0.19 -0.77,-0.11 -1.54,-0.3 -2.31,-0.54 -2.3,-0.74 -4.37,-2.05 -5.82,-3.9 -1.34,-1.71 -2.14,-3.85 -2.14,-6.41l0 -50.65 -43.33 0c-4.76,0 -9.46,-0.86 -13.84,-2.36 -4.65,-1.59 -8.97,-3.92 -12.65,-6.71zm69.82 -415.83l0 -47.45c0,-2.56 0.81,-4.7 2.14,-6.41 1.45,-1.85 3.52,-3.16 5.82,-3.9 0.73,-0.24 1.51,-0.42 2.3,-0.54 0.82,-0.13 1.62,-0.19 2.37,-0.19 0.75,0 1.54,0.07 2.36,0.19 0.76,0.11 1.54,0.3 2.3,0.54 2.31,0.74 4.37,2.05 5.82,3.9 1.34,1.71 2.14,3.85 2.14,6.41l0 47.51 31.22 0 0 -40.19c0,-2.25 0.2,-4.28 0.56,-6.09 0.39,-1.99 0.98,-3.71 1.71,-5.17 0.92,-1.84 2.07,-3.31 3.36,-4.44 1.44,-1.25 3.05,-2.08 4.71,-2.52l0.62 -0.17 4.8 0 0.63 0.16c1.4,0.36 2.76,0.98 4,1.81 1.2,0.81 2.3,1.84 3.2,3.03 0.85,1.12 1.55,2.43 2.02,3.86 0.45,1.35 0.7,2.8 0.7,4.3l0 45.42 31.22 0 0 -43.33c0,-1.79 0.21,-3.44 0.59,-4.94 0.41,-1.62 1.04,-3.07 1.81,-4.34 0.89,-1.46 1.99,-2.67 3.23,-3.63 1.3,-1.01 2.76,-1.73 4.27,-2.15l0.67 -0.19 5.16 0 0.68 0.19c1.51,0.42 2.97,1.14 4.27,2.15 1.23,0.95 2.34,2.17 3.23,3.63 0.77,1.27 1.4,2.72 1.81,4.34 0.38,1.5 0.59,3.14 0.59,4.94l0 43.33 31.22 0 0 -45.42c0,-1.63 0.25,-3.14 0.69,-4.52 0.47,-1.48 1.18,-2.8 2.05,-3.92 0.96,-1.24 2.12,-2.25 3.4,-3.01 1.32,-0.79 2.78,-1.33 4.29,-1.6 0.59,-0.11 1.49,-0.16 2.33,-0.16 0.85,0 1.76,0.06 2.35,0.16 1.02,0.18 2.02,0.49 2.97,0.92 0.94,0.42 1.83,0.96 2.65,1.6 0.79,0.64 1.52,1.37 2.15,2.19 0.6,0.79 1.14,1.69 1.56,2.68 2.53,5.86 2.15,33.15 1.93,48.21 0.02,0.06 -0.03,2.58 -0.04,2.88l31.19 0 0 -47.51c0,-2.56 0.81,-4.7 2.14,-6.41 1.45,-1.85 3.52,-3.16 5.82,-3.9 0.73,-0.24 1.51,-0.42 2.3,-0.54 0.82,-0.13 1.62,-0.19 2.37,-0.19 0.75,0 1.54,0.07 2.36,0.19 0.77,0.11 1.54,0.3 2.31,0.54 2.3,0.74 4.37,2.05 5.82,3.9 1.34,1.71 2.14,3.85 2.14,6.41l0 47.51 45.42 0c4.97,0 9.88,1.1 14.45,3.05 4.74,2.03 9.14,4.99 12.85,8.59 3.71,3.59 6.76,7.85 8.86,12.48 2.01,4.44 3.15,9.23 3.15,14.13l0 48.56 49.6 0c1.46,0 2.84,0.34 4.11,0.94 1.31,0.62 2.48,1.52 3.46,2.6 0.9,0.99 1.67,2.18 2.26,3.47 0.58,1.27 0.98,2.65 1.17,4.05 0.07,0.52 0.11,1.22 0.11,1.87 0,0.65 -0.04,1.35 -0.11,1.86 -0.14,0.96 -0.38,1.92 -0.74,2.83 -0.35,0.88 -0.81,1.74 -1.39,2.55 -0.55,0.77 -1.21,1.48 -1.96,2.12 -0.7,0.6 -1.51,1.15 -2.42,1.61 -3.98,2.06 -27.48,1.65 -39.55,1.44l-5.77 -0.09c-2.45,-0.01 -4.28,-0.12 -5.82,-0.22l-0.06 -0c-1.29,-0.08 -2.28,-0.14 -2.92,-0.12 -0.45,2.26 -0.36,7.11 -0.22,15.62 0.45,1.82 0.18,13.08 0.2,15.96l42.31 0c2.25,0 4.28,0.2 6.09,0.56 1.99,0.39 3.71,0.98 5.17,1.71 1.84,0.92 3.31,2.07 4.44,3.36 1.25,1.44 2.08,3.05 2.52,4.71l0.17 0.62 0 4.8 -0.16 0.63c-0.36,1.4 -0.98,2.76 -1.81,4 -0.81,1.2 -1.84,2.3 -3.03,3.2 -1.12,0.85 -2.43,1.55 -3.86,2.02 -1.35,0.45 -2.8,0.7 -4.3,0.7l-47.51 0 0 31.22 45.42 0c1.79,0 3.44,0.21 4.94,0.59 1.64,0.43 3.09,1.05 4.34,1.81 1.46,0.89 2.67,1.99 3.63,3.23 1.01,1.3 1.73,2.76 2.15,4.27l0.19 0.67 0 5.16 -0.19 0.68c-0.42,1.51 -1.14,2.97 -2.15,4.27 -0.95,1.23 -2.17,2.34 -3.63,3.23 -1.25,0.76 -2.7,1.38 -4.34,1.8 -1.5,0.39 -3.14,0.6 -4.94,0.6l-45.42 0 0 31.22 47.51 0c1.63,0 3.14,0.25 4.52,0.69 1.48,0.47 2.8,1.18 3.92,2.05 1.24,0.96 2.25,2.12 3.01,3.4 0.79,1.32 1.33,2.78 1.6,4.29 0.11,0.59 0.16,1.49 0.16,2.33 0,0.85 -0.06,1.76 -0.16,2.35 -0.18,1.02 -0.49,2.02 -0.92,2.97 -0.42,0.94 -0.96,1.83 -1.6,2.65 -0.64,0.79 -1.37,1.52 -2.19,2.15 -0.79,0.6 -1.69,1.14 -2.68,1.56 -3.04,1.31 -11.75,1.85 -21.68,2.02 -9.71,0.17 -20.67,0.02 -28.42,-0.09l-3.11 -0.04 -0.07 7.44 -0.13 8.23c-0.14,8.74 -0.23,13.66 0.26,15.9 0.72,0.04 1.82,-0.03 3.26,-0.12l0.11 -0.01c1.71,-0.11 3.75,-0.24 6.46,-0.24l35.64 -0.08c1.9,-0 3.6,0.18 5.11,0.51 1.67,0.37 3.11,0.93 4.34,1.62 1.55,0.88 2.76,1.97 3.67,3.18 0.99,1.34 1.63,2.84 1.95,4.39l0.11 0.53c0,1.39 0.16,3.04 -0.1,4.39 -0.25,1.32 -0.7,2.62 -1.31,3.83 -0.61,1.22 -1.4,2.37 -2.29,3.33 -0.99,1.08 -2.15,1.96 -3.4,2.58 -1.25,0.61 -2.59,0.96 -3.97,0.96l-49.6 0 0 45.42c0,2.74 -0.3,5.25 -0.84,7.56 -0.53,2.31 -1.3,4.43 -2.23,6.41 -0.9,1.91 -1.94,3.66 -3.05,5.3 -1.11,1.63 -2.27,3.13 -3.42,4.56 -1.27,1.57 -2.59,2.83 -3.92,3.8 -1.47,1.08 -2.99,1.83 -4.49,2.28 -1.3,0.39 -2.58,0.57 -3.81,0.55 -1.32,-0.02 -2.58,-0.26 -3.75,-0.68 -1.13,-0.41 -2.17,-0.98 -3.1,-1.69 -0.95,-0.72 -1.79,-1.58 -2.5,-2.55 -0.81,-1.1 -1.44,-2.35 -1.87,-3.67 -0.42,-1.3 -0.65,-2.68 -0.65,-4.09 0,-4.84 1.93,-7.55 4.14,-10.62l0.05 -0.08c1.92,-2.66 4.17,-5.78 4.17,-12.32l0 -339.95c0,-3.18 -0.56,-5.69 -1.55,-7.65 -0.95,-1.88 -2.33,-3.29 -4.01,-4.32 -1.93,-1.18 -4.28,-1.97 -6.89,-2.45 -2.73,-0.5 -5.76,-0.69 -8.89,-0.68l-276.15 0c-1.94,0.01 -4.14,0.1 -6.57,0.2l-0.3 0.01c-3.34,0.13 -7.07,0.29 -10.23,0.29 -6.06,0 -12.09,-0.45 -16.71,-2.06 -5.19,-1.82 -8.64,-5.03 -8.64,-10.52 0,-6.17 1.82,-9.8 5.17,-11.96 3.14,-2.02 7.45,-2.51 12.77,-2.51 1.18,0 3.22,0.06 5.43,0.13l2.77 0.07zm72.62 262.38c-0.61,-1.4 -1.74,-2.63 -3.47,-3.49 -1.69,-0.84 -3.94,-1.34 -6.84,-1.34 -1.2,0 -2.27,0.25 -3.2,0.68 -1.01,0.47 -1.9,1.19 -2.63,2.06 -0.39,0.47 -0.75,0.99 -1.06,1.53 -0.32,0.55 -0.59,1.15 -0.81,1.79 -0.22,0.62 -0.39,1.27 -0.5,1.94 -0.11,0.65 -0.17,1.33 -0.17,2.02 0,1.39 0.25,2.76 0.77,3.98 0.47,1.09 1.17,2.09 2.11,2.88 2.01,1.7 3.89,2.64 5.6,2.99 1.79,0.37 3.42,0.09 4.82,-0.62 1.13,-0.59 2.16,-1.45 3.02,-2.49 0.94,-1.14 1.71,-2.48 2.23,-3.89 0.53,-1.41 0.82,-2.9 0.83,-4.33 0.01,-1.31 -0.21,-2.58 -0.71,-3.7zm-28.91 34.15c-3.04,-1.97 -6.89,-4.46 -10.04,-9.36 -3.1,-4.82 -5.44,-11.89 -5.44,-22.9 0,-1.96 0.25,-3.96 0.72,-5.94 0.47,-1.99 1.18,-3.98 2.1,-5.94 1.35,-2.87 3.15,-5.64 5.33,-8.17 2.13,-2.48 4.63,-4.72 7.4,-6.61 2.92,-1.99 6.16,-3.6 9.62,-4.7 3.27,-1.03 6.75,-1.61 10.35,-1.61 2.51,0 5.09,0.28 7.72,0.89 2.48,0.57 5,1.44 7.54,2.63 0.7,0.32 1.54,0.79 2.44,1.35 0.92,0.57 1.93,1.26 2.93,1.97 1,0.72 2.01,1.48 2.91,2.2 0.88,0.71 1.66,1.39 2.22,1.96 2.9,2.87 5.13,6.14 6.73,9.63 1.69,3.69 2.68,7.61 3.01,11.56 0.22,2.63 0.14,5.31 -0.21,7.96 -0.35,2.67 -0.99,5.31 -1.88,7.82 -0.9,2.55 -2.08,5.01 -3.51,7.3 -1.4,2.25 -3.06,4.36 -4.94,6.26 -2.42,2.44 -5.21,4.53 -8.34,6.15 -2.47,1.28 -5.15,2.25 -8.03,2.88l0 21.44 42.73 0 0 -95.03 -7.6 0.07c-15.48,0.18 -23.25,0.28 -27.61,-3.45 -4.49,-3.84 -4.52,-10.71 -4.51,-24.42l-0.01 -31.6 -0.15 -0.08c-2.1,-1.07 -4.08,-2.07 -6.07,-3.34 -2.02,-1.29 -3.96,-2.8 -5.85,-4.81 -1.79,-1.9 -3.09,-3.71 -4.07,-5.35 -0.96,-1.61 -1.62,-3.04 -2.18,-4.26l-0.57 -1.2 -40.58 0 0 168.85c0,0.55 0.12,1.15 0.35,1.75 0.24,0.64 0.59,1.27 1,1.81 0.3,0.4 0.63,0.73 0.94,0.93l0.24 0.14 27.64 0 0 -25.49 -0.07 0.09c-0.03,0.08 -0.06,0.15 -0.1,0.12 -0.48,-0.39 -1.25,-0.9 -2.14,-1.47zm2.31 1.27l0 -0.06c0,-0.19 -0.03,0 -0.07,0.15l0.07 -0.09zm138.27 -97.61c-2.81,1.06 -5.3,2.84 -7.01,5.35 -1.52,2.23 -2.44,5.07 -2.44,8.52 0,2.61 0.41,4.92 1.12,6.92 0.77,2.11 1.89,3.9 3.25,5.35 0.75,0.81 1.59,1.52 2.48,2.12 0.93,0.64 1.92,1.17 2.94,1.59 1,0.41 2.07,0.73 3.15,0.94 1.09,0.21 2.22,0.32 3.36,0.32 2.06,0 4.12,-0.36 6.03,-1.1 1.82,-0.69 3.51,-1.73 4.96,-3.09 1.3,-1.22 2.26,-2.34 2.96,-3.4 0.67,-1.02 1.11,-1.98 1.39,-2.94 0.3,-1.02 0.46,-2.16 0.53,-3.4 0.08,-1.25 0.08,-2.74 0.08,-4.36 0,-3.18 -0.87,-5.81 -2.32,-7.88 -1.64,-2.32 -4.02,-4 -6.72,-5 -1.09,-0.39 -2.22,-0.7 -3.35,-0.89 -1.18,-0.2 -2.37,-0.31 -3.54,-0.3 -1.18,0 -2.37,0.11 -3.54,0.32 -1.13,0.2 -2.25,0.52 -3.35,0.93zm50.62 -98.5l-30.78 0 0 72.87c1.09,0.32 2.2,0.71 3.3,1.16 1.75,0.72 3.46,1.59 5.09,2.56 2.23,1.33 4.37,2.87 6.22,4.46 1.93,1.66 3.59,3.39 4.79,5 3.52,4.75 6.14,9.71 7.82,14.75 1.68,5.07 2.42,10.21 2.14,15.28 -0.27,5.02 -1.53,9.98 -3.8,14.72 -2.19,4.57 -5.33,8.94 -9.45,12.99 -1.41,1.39 -2.9,2.65 -4.44,3.78 -1.57,1.15 -3.23,2.19 -4.94,3.1 -3.99,2.13 -8.26,3.54 -12.61,4.27 -4.48,0.74 -9.04,0.77 -13.47,0.1 -4.43,-0.67 -8.77,-2.04 -12.79,-4.06 -3.91,-1.97 -7.54,-4.57 -10.67,-7.76 -1.31,-1.33 -2.53,-2.76 -3.65,-4.29 -1.09,-1.49 -2.1,-3.08 -3,-4.78 -1.71,-3.19 -2.52,-5.48 -3.1,-7.12l-0.23 -0.65c-0.88,-0.03 -2.62,0.01 -5.4,0.06l-4.58 0.07 0 45.92 97.12 0 0 -167.81c0,-0.79 -0.11,-1.54 -0.32,-2.19 -0.19,-0.58 -0.46,-1.09 -0.81,-1.48 -0.26,-0.29 -0.6,-0.53 -1,-0.7 -0.4,-0.17 -0.89,-0.26 -1.45,-0.26zm-149.23 22.82c-2.08,0.88 -3.94,2.34 -5.22,4.33 -1.15,1.8 -1.85,4.06 -1.85,6.77 0,0.25 0.11,0.68 0.28,1.21 0.24,0.74 0.6,1.58 1,2.41 0.47,0.97 1,1.91 1.49,2.67 0.43,0.66 0.81,1.15 1.07,1.39 1.15,1.02 2.43,1.76 3.75,2.27 1.4,0.53 2.86,0.78 4.31,0.78 0.85,0 1.68,-0.08 2.45,-0.24 0.8,-0.16 1.57,-0.4 2.29,-0.71 0.71,-0.31 1.4,-0.7 2.04,-1.16 0.61,-0.44 1.18,-0.96 1.68,-1.52 0.78,-0.89 1.41,-1.95 1.84,-3.16 0.41,-1.17 0.64,-2.48 0.64,-3.93 0,-2.94 -0.63,-5.3 -1.67,-7.12 -1.12,-1.96 -2.74,-3.31 -4.57,-4.09 -0.71,-0.3 -1.47,-0.53 -2.24,-0.68 -0.81,-0.15 -1.64,-0.23 -2.44,-0.22 -0.8,0.01 -1.63,0.1 -2.46,0.27 -0.82,0.17 -1.63,0.42 -2.4,0.74zm-69.94 -1.01l39.15 0c0.53,-1.57 1.25,-3.68 2.8,-6.38 1.56,-2.7 3.94,-5.95 7.77,-9.76 2.29,-2.28 4.7,-4.16 7.18,-5.66l-53.21 0c-1.51,0 -2.43,0.98 -2.99,2.56 -0.77,2.17 -0.97,5.35 -0.97,8.9 0,2.49 0.09,4.87 0.17,7.25 0.11,0.92 0.07,2.15 0.1,3.1zm162.08 -21.81l-70.37 0c0.75,0.42 1.49,0.87 2.22,1.34 2.24,1.44 4.35,3.12 6.28,4.97 1.93,1.86 3.69,3.91 5.23,6.1 1.52,2.16 2.84,4.48 3.9,6.91 2.77,6.33 3.85,13.4 2.53,20.58 -1.17,6.4 -4.26,12.85 -9.75,18.91 -2.93,3.24 -5.79,5.29 -8.39,6.67 -2.6,1.38 -4.88,2.09 -6.74,2.66l-1.12 0.35 0 31.76 49.38 0 0.27 -0.75c1.35,-3.58 3.02,-6.9 5,-9.93 1.95,-2.95 4.19,-5.62 6.76,-7.94 2.25,-2.04 4.77,-3.84 7.54,-5.36 2.25,-1.23 4.67,-2.27 7.25,-3.1l0 -73.17zm-188.28 212.78l0 -202.93c0,-4.97 0.68,-9.71 1.98,-14.01 1.32,-4.36 3.27,-8.29 5.79,-11.57 2.56,-3.35 5.71,-6.04 9.36,-7.87 3.49,-1.75 7.42,-2.72 11.72,-2.72l217.57 0c2.06,0 4.12,0.32 6.12,0.87 2.14,0.59 4.19,1.46 6.1,2.5 2.04,1.12 3.93,2.46 5.59,3.91 1.75,1.52 3.24,3.18 4.35,4.79l0.52 0.75c1.14,1.64 2.07,2.99 2.85,4.5 0.81,1.58 1.44,3.29 1.91,5.56 1.24,5.96 1.7,38.13 1.8,76.16 0.11,37.9 -0.13,81.66 -0.29,110.94l-0.01 2.29c-0.05,10.28 -0.1,18.25 -0.1,26.83 0,4.81 -0.73,9.42 -2.11,13.62 -1.4,4.26 -3.47,8.1 -6.12,11.31 -2.66,3.21 -5.91,5.81 -9.67,7.58 -3.58,1.69 -7.6,2.62 -11.99,2.62l-215.48 0c-4.39,0 -8.4,-0.93 -11.99,-2.61 -3.75,-1.77 -7,-4.37 -9.67,-7.58 -2.66,-3.21 -4.73,-7.05 -6.12,-11.31 -1.38,-4.2 -2.11,-8.81 -2.11,-13.61z"/>
 </g>
</svg>
