<?xml version="1.0" encoding="UTF-8"?>
<!DOCTYPE svg PUBLIC "-//W3C//DTD SVG 1.1//EN" "http://www.w3.org/Graphics/SVG/1.1/DTD/svg11.dtd">
<!-- Creator: CorelDRAW 2019 (64-Bit) -->
<svg xmlns="http://www.w3.org/2000/svg" xml:space="preserve" width="25.4858mm" height="25.4mm" version="1.1" style="shape-rendering:geometricPrecision; text-rendering:geometricPrecision; image-rendering:optimizeQuality; fill-rule:evenodd; clip-rule:evenodd"
viewBox="0 0 1204.02 1199.97"
 xmlns:xlink="http://www.w3.org/1999/xlink">
 <defs>
  <style type="text/css">
   <![CDATA[
    .fil0 {fill:black}
   ]]>
  </style>
 </defs>
 <g id="Layer_x0020_1">
  <metadata id="CorelCorpID_0Corel-Layer"/>
  <path class="fil0" d="M529.39 605.13c-4.88,8.07 -23.6,38.99 -23.6,40.78l0 504.63 189.75 0 0 -500c0,-6.02 -21.77,-46.07 -35.31,-70.99 -4.42,-8.13 -8,-14.71 -9.67,-18l-36.23 -67.77c-1.31,-2.4 -2.58,-4.41 -3.78,-6.32 -2.1,-3.32 -4.03,-6.38 -5.58,-10.28 -3.82,7.63 -10.9,19.05 -16.53,28.12 -2.87,4.63 -5.35,8.63 -6.77,11.1 -6.77,6.77 -43.47,74.16 -52.28,88.75zm575.93 427.41l-41.71 0 0 -44.05 46.37 0 0 44.05 -4.67 0zm-69.45 0l-41.7 0 0 -44.05 46.37 0 0 44.05 -4.67 0zm-69.44 0l-41.71 0 0 -44.05 46.37 0 0 44.05 -4.66 0zm6.92 -513.63l-2.65 -37.01 4.6 -0.38c5.43,-0.45 10.19,-1.83 14.92,-3.2 6.13,-1.78 12.29,-3.58 20.09,-3.75l4.63 -0.1 0.11 4.65c0.13,5.99 1.1,11.09 2.09,16.38 1.25,6.65 2.57,13.61 2.57,23.07l0 4.67 -46.05 0 -0.31 -4.34zm-659.78 -0.33l0 -30.09c0,-3.95 0.78,-6.72 2.84,-8.77 2.06,-2.06 4.83,-2.84 8.77,-2.84 5.56,0 9.5,-0.12 12.79,-0.23 10.66,-0.34 15.94,-0.5 19.52,3.93 3.19,3.92 3.02,9.74 2.71,21.23 -0.11,4.26 -0.26,9.45 -0.26,16.78l0 4.67 -46.37 0 0 -4.67zm592.25 -102.43l-12.66 -6.66 1.94 -4.04c2.17,-4.53 3.86,-10.04 5.53,-15.54 1.78,-5.84 3.56,-11.69 6.04,-16.87l1.39 -2.91 3.18 0.26c8.71,0.73 17.89,5.74 25.24,9.74l4.32 2.31c10.39,5.34 25.37,16.87 37.44,29.45 10.06,10.49 18.26,21.92 20.5,31.54l1.02 4.4 -4.36 1.17c-4.74,1.26 -12.89,6.19 -19.89,10.43 -3.52,2.12 -6.79,4.1 -9.24,5.4l-3.7 1.96 -2.33 -3.49c-19.21,-28.68 -26.09,-32.3 -54.43,-47.14zm-631.57 639.53l-152.83 0 0 -44.05 157.49 0 0 44.05 -4.67 0zm-126.58 -487.58c-2.1,-1.51 -4.03,-2.9 -5.65,-3.99l-3.86 -2.59 9.06 -13.4c13.91,-20.41 42.3,-62.07 43.82,-67.77l0.92 -3.48 3.58 0c20.2,0 35.07,-0.32 46.8,-0.57 22.52,-0.48 34.18,-0.73 40.78,1.97 9.2,3.77 8.8,10.34 7.97,23.92 -0.26,4.4 -0.6,9.73 -0.6,16.38l0 4.67 -73.18 0c-3.2,7.3 -10.59,17.71 -17.97,28.11 -8.15,11.49 -16.31,22.99 -17.81,28.61l-1.01 3.76 -3.88 -0.32c-8.7,-0.72 -20.28,-9.07 -28.97,-15.32zm209.92 311.65l-236.16 0 0 -44.05 240.83 0 0 44.05 -4.67 0zm18.52 87.97l-254.68 0 0 -44.06 259.35 0 0 44.06 -4.67 0zm826.47 -33.16c0.02,64.66 3.25,136.19 -0.01,199.6 -0.41,5.11 -0.93,9.76 -1.56,13.77 -0.65,4.13 -1.44,7.5 -2.36,9.92 -6.22,16.33 -15.4,25.47 -26.11,30.59 -10.47,5.01 -22.13,5.99 -33.85,6.13 -36.37,12.12 -1004.25,0.02 -1130.69,0.02 0,-172.37 -18.01,-405.27 0.04,-556.47 0.93,-7.85 3.76,-12.07 11.97,-24.34l117.98 -176.94 2.81 -3.95c3.34,-4.55 5.87,-7.99 6.24,-16.23 1.25,-27.23 0.79,-56.94 0.34,-86.01 -0.23,-15.41 -0.47,-30.66 -0.47,-43.56l0 -4.67 481.58 0 0 94.95c0,54.57 1.74,55.74 4.35,57.51 2.07,1.39 4.42,2.99 6.76,8.94 1.1,-3.81 2.58,-7.83 4.27,-11.84 4.48,-10.71 10.46,-21.55 14.31,-27.93 15.7,-26.03 30.07,-43.07 47.09,-57.11 16.39,-13.52 35.06,-24.08 59.74,-37.18l0 -309.76 185.27 0 0 309.73c3.6,1.86 7.29,3.66 10.94,5.43 9.26,4.52 18.34,8.95 27.76,15.25 105.72,70.83 103.43,174.65 100.94,286.91 -0.33,15.25 -0.68,30.66 -0.73,47.06l8.94 -0.07c37.01,-0.36 56.39,-0.56 73.36,28.21 10.68,18.09 9.54,50.87 8.53,80.32 -0.27,8.03 -0.55,15.8 -0.55,23.53l0 4.67 -34.72 0 0 8.77c25.94,14.36 40.32,32.58 48.28,53.62 8.07,21.33 9.41,45.36 9.58,71.13zm-743.16 -272.42l-407.36 0 0 488.39 407.36 0 0 -488.39zm395.93 465.3l0 9.23c0,5.23 1.63,8.64 4.43,10.64 3.2,2.28 8.09,3.22 14.05,3.22l263.91 0c16.75,0 18.71,-7.13 18.71,-16.35l-0.13 -6.73 -300.97 0zm300.88 -187.51l-300.88 0 0 141.14 300.88 0 0 -141.14zm-243 -138.9l0 38.39 -3.6 0.84c-37.35,8.69 -46.51,36.21 -51.61,51.54l-0.59 1.76 298.18 0c-2.1,-12 -7.94,-22.69 -15.97,-31.36 -10.11,-10.92 -23.7,-18.68 -37.67,-21.93l-3.61 -0.85 0 -38.38 -185.13 0zm-30.28 -89.38c-2.82,2 -4.44,5.41 -4.44,10.64l0 34.69 254.61 0c0.07,-4.92 0.23,-9.78 0.37,-14.25 0.13,-4.26 0.26,-8.14 0.26,-12.29 0,-15.07 -2.59,-22.01 -19.15,-22.01l-217.61 0c-5.96,0 -10.85,0.94 -14.05,3.22zm-71.57 -531.02l0 152.75c0,9.52 -8.95,12.18 -17.5,14.72 -2.03,0.6 -4.02,1.2 -5.67,1.84 -12.52,4.9 -22.1,9.71 -31.06,15.4 -9,5.71 -17.5,12.38 -27.81,20.93 -15.54,12.89 -32.93,39.87 -44.29,66.51 -10.13,23.74 -15.43,46.86 -10.12,58.54 3.14,6.91 12.11,23.25 22.34,41.89 19.01,34.63 42.35,77.17 42.35,85.75l0 511.57 72.65 0c-5.61,-30.73 -4.28,-138.28 -3.57,-195.93 0.16,-12.93 0.29,-23.21 0.29,-30.9 0,-15.04 1.28,-28.73 4.02,-41.06 2.77,-12.45 7.03,-23.48 12.97,-33.07 15.2,-24.52 26.13,-30.45 33.24,-34.31 4.67,-2.52 7.05,-3.82 7.55,-14.21l-34.63 0 0 -4.67c0,-7.57 -0.19,-14.53 -0.37,-21.57 -0.88,-33.71 -1.83,-69.64 14.84,-90.57 4.63,-5.83 11.19,-11.05 19.15,-14.67 7.08,-3.21 15.3,-5.17 24.29,-5.17l152.75 0 0 -159.7c0,-35.11 -15.73,-71.18 -40.31,-100.66 -24.98,-29.99 -59.05,-53.1 -94.99,-61.47l-3.6 -0.85 0 -161.07 -92.53 0zm-737.89 435.14l397.22 0 58.05 -97.89c11.44,-19.05 30.35,-50.51 37.14,-64.09l-385.68 0c-3.98,8.72 -14.62,23.95 -21.83,34.26 -1.88,2.69 -3.43,4.9 -5.26,7.65l-10.99 16.27c-19.8,29.21 -57.61,85.06 -68.66,103.8zm510.95 -286.99l-393.47 0 0 78.64 393.47 0 0 -78.64zm319.47 -284.74l-92.53 0 0 92.53 92.53 0 0 -92.53z"/>
 </g>
</svg>
