<?xml version="1.0" encoding="UTF-8"?>
<!DOCTYPE svg PUBLIC "-//W3C//DTD SVG 1.1//EN" "http://www.w3.org/Graphics/SVG/1.1/DTD/svg11.dtd">
<!-- Creator: CorelDRAW 2019 (64-Bit) -->
<svg xmlns="http://www.w3.org/2000/svg" xml:space="preserve" width="17.3129mm" height="25.5994mm" version="1.1" style="shape-rendering:geometricPrecision; text-rendering:geometricPrecision; image-rendering:optimizeQuality; fill-rule:evenodd; clip-rule:evenodd"
viewBox="0 0 1723 2547.68"
 xmlns:xlink="http://www.w3.org/1999/xlink">
 <defs>
  <style type="text/css">
   <![CDATA[
    .fil0 {fill:black}
   ]]>
  </style>
 </defs>
 <g id="Layer_x0020_1">
  <metadata id="CorelCorpID_0Corel-Layer"/>
  <path class="fil0" d="M447.35 551.67c-7.49,0.3 -14.51,0.58 -20.14,1.48 -1.95,10.57 -2.93,32.11 -3.29,56.97 -0.64,43 0.72,95.35 1.9,120.42 7.28,2.2 13.69,3.52 19.43,4.69 20.05,4.08 33.46,6.83 49.03,32.05 7.84,12.71 14.18,28.15 21.9,47 15.65,38.2 37.3,91 88.4,160.61 50.97,69.44 102.65,114.06 153.44,138.38 43.97,21.06 87.45,26.91 129.36,20.56 42.13,-6.39 82.87,-25.15 121.1,-53.21 71.84,-52.75 134.75,-138.16 181.86,-236.49 14.17,-29.59 22.14,-49.45 27.52,-62.85 5.78,-14.4 8.81,-21.94 14.15,-27.72 6.33,-6.87 13.17,-8.8 27.47,-12.81 7.88,-2.21 18.44,-5.18 32.84,-10.13 1.74,-24.77 2.63,-61.75 2.32,-97.43 -0.27,-30.33 -1.4,-59.83 -3.6,-80.22 -5.32,-0.72 -11.78,-0.96 -18.69,-1.2 -36.45,-1.32 -83.72,-3.08 -96.31,-67.17 -2.06,-10.49 -3.48,-20.6 -4.89,-30.58 -1.98,-14.08 -3.94,-27.98 -7.79,-42.79 -3.94,-15.15 -9.12,-27.84 -14.08,-40.03 -2.21,-5.41 -4.38,-10.74 -6.43,-16.26l-12.35 8.24c-60.63,41 -214.19,144.85 -437.49,59.26 -45.57,-17.47 -76.24,-39.26 -98.38,-54.97 -7.25,-5.15 -13.52,-9.59 -18.85,-12.86 -7.83,23.93 -12.13,34.16 -15.04,41.07 -5.36,12.64 -5.63,13.29 -17.86,84.94 -11.55,67.72 -58.69,69.6 -95.53,71.05zm877.85 1089.6c41.8,-5.75 83.56,-11.49 128.87,-18.15 17.79,-2.62 39.84,-3.21 55.76,2.96 5.84,2.26 10.99,5.44 14.99,9.73 4.27,4.57 7.17,10.25 8.18,17.17 1.08,7.36 -0.04,16.09 -4.02,26.36 -10.88,28.08 -44.4,31.41 -76.52,34.58 -6.38,0.62 -12.71,1.25 -18.95,2.12l-59.97 8.24c-46.99,6.43 -94.06,12.86 -142.86,20.22 -18.56,2.8 -41.33,4.05 -57.78,-2.22 -19.65,-7.47 -30.79,-23.55 -19.85,-54.88 9.31,-26.68 45.35,-30.31 77.9,-33.56 6.69,-0.68 13.24,-1.33 19.4,-2.2l74.87 -10.38zm-517.87 758.53c17.89,17.49 39.07,38.2 50.79,46.98 53.05,-48.03 108.54,-102.2 163.09,-147.46 13.93,-11.55 15.45,-12.81 10.64,-39.31l-35.56 -205.9c-19.06,-109.05 -38.39,-222.58 -57.73,-336.34l-32.71 -191.72c-2.47,1.92 -4.76,4.18 -7.05,6.46 -9.29,9.21 -18.77,18.62 -39.67,18.62 -20.9,0 -30.39,-9.41 -39.68,-18.62 -2.29,-2.27 -4.57,-4.53 -7.04,-6.45l-113.47 662.54c-3.44,20.34 -6.81,36.2 -9.55,49.1 -7.64,36.1 -9.94,46.91 7.67,61.62 16.18,13.51 31.41,27.56 46.68,41.65 12.07,11.14 24.2,22.33 36.48,32.98 6.17,5.35 16.05,15.01 27.12,25.84zm198.63 -1072.85c13.22,-12.09 25.9,-23.72 47.44,-29.06l0.89 -0.23 5.73 -0.05c11.93,0.49 22.36,4.82 29.99,11.96 7.75,7.27 12.56,17.42 13.07,29.34l0 4.19c-0.98,23.27 -37.75,52.7 -74.32,81.95 -15.25,12.19 -30.46,24.37 -42.72,35.78 3.17,35.2 26.34,164.55 41.54,249.39l11.48 64.62 81.26 473.98c12.36,71.47 1.45,80.73 -26.43,104.37 -7.41,6.28 -16.23,13.75 -26.1,24.22 -8.3,8.81 -16.87,15.72 -25.41,22.61 -7.9,6.38 -15.82,12.79 -23.26,20.65 -30.59,29.94 -64.27,60.14 -95.98,89.13 -30.66,26.07 -46.96,38.5 -65.51,37.86 -18.51,-0.65 -34.46,-14.11 -64.89,-39.87 -31.26,-28.58 -65.79,-59.43 -95.56,-89.2 -19.9,-20.18 -37.24,-34.22 -51.53,-45.79 -42.62,-34.51 -60.77,-49.22 -46.97,-128l108.21 -630.78c2.16,-12.55 5,-27.13 7.97,-42.49 7.25,-37.42 15.44,-79.68 17.44,-110.67 -20.69,-19.55 -43.6,-37.91 -66.03,-55.9l-16.16 -13c-18.99,-15.39 -29.02,-29.21 -33.06,-41.15 -3.46,-10.2 -2.79,-19.22 0.48,-26.85 3.19,-7.49 8.81,-13.39 15.35,-17.67 9.33,-6.11 20.98,-9.05 30.01,-8.67l1.09 0.04 0.89 0.23c23.23,5.76 73.14,49.18 119.29,89.34 29.47,25.64 57.39,49.94 74.18,61.09l136.09 -111.14c3.85,-3.15 7.74,-6.73 11.57,-10.23zm-541.23 -914.78l-0.29 1.88c4.63,-25.33 11.22,-56.19 25.17,-86.76 35.93,-78.71 65.51,-89.56 100.59,-73.56 14.42,6.59 29.06,17.99 45.6,30.9 20.27,15.8 43.6,34.01 71.84,47.03 47.3,21.83 98.56,32.87 149.79,33.09 51.26,0.21 102.64,-10.4 150.15,-31.83 44.53,-20.07 69.07,-40.74 98.15,-65.25l9.07 -7.65c7.84,-6.56 15.72,-10.58 23.51,-12.39 11.25,-2.64 22,-0.75 32.1,4.49 9.31,4.82 17.96,12.48 25.85,21.91 23.14,27.66 40.91,72.12 50.28,103.61 -6.81,-28.39 -15.49,-54.8 -20.43,-66.96 -17.63,-43.23 -42.22,-79.73 -71.7,-109.83 -59.78,-60.99 -140.05,-96.09 -223.95,-108.38 -84.17,-12.33 -171.99,-1.71 -246.63,28.71 -43.41,17.68 -82.31,42.06 -113.32,72.46 -13.51,13.26 -29.84,33.19 -44.85,55.62 -13.06,19.52 -25.14,40.93 -33.48,61.41 -6.96,17.07 -21.23,62.15 -27.41,101.47zm-95.78 73.22c1.82,-1.17 2.97,-1.93 5.32,-9.03 0.16,-80.28 13.06,-145.95 36.17,-201.72 23.31,-56.26 56.96,-102.29 98.32,-142.94 43.48,-42.75 89.27,-75.69 145.28,-97.98 55.79,-22.19 121.53,-33.72 205.02,-33.71 83.51,0.01 149.29,11.52 205.11,33.71 56.05,22.29 101.86,55.22 145.28,97.98 41.36,40.73 75.01,86.69 98.31,142.86 23.18,55.89 36.11,121.77 36.19,202.53 1.02,4.22 4.8,7.75 9.27,11.93 11.89,11.07 27.24,25.4 29.29,66.77 1.36,27.45 3.91,92.48 0.66,145.51 -2.06,33.62 -6.61,63 -15.52,76.66 -17.2,26.39 -29.24,30.16 -50.03,36.66 -5.68,1.77 -12.13,3.79 -19.74,6.74 -6.86,11.96 -12.66,26.66 -18.39,41.21 -3.69,9.37 -7.38,18.72 -11.62,27.96 -5.59,12.18 -11.84,24.31 -18.17,35.94 -6.25,11.46 -12.75,22.7 -18.89,33.13 -30.82,52.34 -50.92,75.92 -63.13,90.26 -7,8.2 -11.06,12.98 -12.51,17.87 -2.18,7.38 -0.35,19.13 3.99,46.87 2.25,14.4 5.15,32.86 8.28,55.9 1.57,11.57 2.52,19.69 3.27,26.2 1.43,12.45 2.18,18.77 3.52,21.31 0.7,1.23 3.45,2.37 9,4.65 3.62,1.49 8.1,3.34 13.47,5.85l415.15 205.51c24.58,12.12 47.55,23.63 66.02,40.58 19.03,17.46 32.77,40.14 37.61,73.86 15.89,120.35 1.64,385.37 1.64,520.67 -0.82,43.51 -12.45,47.52 -42.36,57.74l-11.82 4.17c-41.88,15.39 -88.69,32.2 -135.68,49.04 -55.16,19.79 -110.44,39.63 -165.82,60.23 -6.03,2.28 -12.35,4.97 -19.52,7.99 -16.01,6.78 -35.97,15.22 -55.27,21.02 -37.07,11.14 -72.54,12.84 -82.43,-20.09 -14.05,-46.74 31.34,-61.49 90.26,-80.63 12.07,-3.9 24.78,-8.04 37.95,-12.81l295.37 -105.99 0 -365.72c0,-10.83 0.52,-23.44 1.04,-36.25 1.96,-48.17 4.06,-99.55 -23.26,-116.53l-370.39 -183.77c-11.12,-5.47 -24.69,-11.75 -38.74,-18.25 -29.88,-13.82 -62,-28.69 -85.1,-42.67 -22.39,-13.59 -24.06,-31.6 -26.41,-57.13 -0.51,-5.51 -1.06,-11.45 -1.94,-18.04l-3.41 -24.14c-2.06,-14.3 -4.13,-28.62 -5.74,-42.71 -6.3,4.18 -12.24,8.3 -18.1,12.36 -19.46,13.49 -38.25,26.51 -67.59,40.35 -19.57,9.22 -40.72,16.62 -63.03,21.62 -21.15,4.76 -43.26,7.35 -65.99,7.35 -91.26,0 -139.77,-32.18 -194.23,-68.28l-20.48 -13.48c-1.65,14.47 -3.77,29.13 -5.88,43.78l-4.83 34.77c-4.28,32.84 -6.11,46.92 -22.37,60.68 -10.97,9.28 -28,17.05 -57.71,30.61 -18.71,8.54 -42.66,19.48 -73.54,34.63 -43.75,21.49 -85.69,42.46 -127.59,63.39 -41.14,20.58 -82.1,41.05 -120.38,59.89 -23.67,11.64 -43.6,20.9 -60.37,28.68 -42.16,19.57 -63.63,29.53 -73.25,44.25 -9.9,15.14 -9.49,38.95 -8.68,87.39 0.29,16.91 0.63,36.41 0.63,55.86l0 360.64c33.17,9.03 76.56,25.8 113.89,40.23l34.02 13.02c29.53,11.03 58.27,21.35 87.12,31.69l63.57 22.94c12.82,4.7 25.27,8.78 37.11,12.65 16.06,5.26 31.15,10.2 44.12,15.59 35.96,14.97 56.75,33.33 42.14,68.42 -18.51,44.46 -93.38,12.84 -138.92,-6.39 -7.71,-3.25 -14.54,-6.14 -19.86,-8.12 -57.49,-21.41 -114.86,-42.01 -172.38,-62.64 -45.86,-16.45 -91.79,-32.94 -132.32,-47.8l-0.58 -0.24c-45.81,-16.76 -47.44,-17.39 -47.15,-72.8 0.1,-21.72 -0.14,-64.6 -0.43,-116.69 -0.86,-148.67 -2.13,-372.4 3.4,-398.39 13.39,-62.81 53.39,-82.51 103.94,-107.41l4.12 -2.03c42.02,-20.73 88.74,-44.25 136.84,-68.45 94.67,-47.64 194.83,-98.06 275.65,-135.59 3.35,-1.59 6.93,-3.05 9.88,-4.25 7.2,-2.93 9.18,-3.74 11.54,-14.76 1.62,-7.57 2.74,-18.24 3.78,-28.37 0.63,-6.08 1.24,-12.01 1.96,-17.26 3.12,-22.72 5.95,-39.73 8.12,-52.87 3.47,-20.99 5.22,-31.58 3.95,-38.54 -1.14,-6.29 -5.79,-11.97 -15.11,-23.38 -5.87,-7.2 -13.43,-16.43 -22.8,-29.1 -7.28,-9.84 -13.98,-19.46 -20.56,-29.55 -6.57,-10.09 -13,-20.61 -19.72,-32.23 -6.1,-10.56 -12.54,-21.71 -18.65,-33 -6.23,-11.45 -12.42,-23.58 -18.18,-36.32 -3.76,-8.31 -7.23,-17.12 -10.71,-25.95 -5.58,-14.18 -11.24,-28.54 -17.88,-40.17 -7.2,-2.79 -13.58,-4.82 -19.29,-6.62 -22.1,-7 -35.4,-11.23 -52.39,-39.8 -14.89,-25.04 -14.09,-58.62 -13.35,-90.04 0.13,-5.77 0.28,-11.44 0.28,-19.17 0,-11.1 -0.38,-21.81 -0.75,-32.96 -1.6,-46.79 -3.45,-101.05 17.4,-130.54 7.92,-11.16 12.93,-14.4 16.69,-16.85z"/>
 </g>
</svg>
