<?xml version="1.0" encoding="UTF-8"?>
<!DOCTYPE svg PUBLIC "-//W3C//DTD SVG 1.1//EN" "http://www.w3.org/Graphics/SVG/1.1/DTD/svg11.dtd">
<!-- Creator: CorelDRAW 2019 (64-Bit) -->
<svg xmlns="http://www.w3.org/2000/svg" xml:space="preserve" width="249.302mm" height="39.6116mm" version="1.1" style="shape-rendering:geometricPrecision; text-rendering:geometricPrecision; image-rendering:optimizeQuality; fill-rule:evenodd; clip-rule:evenodd"
viewBox="0 0 276352.54 43909.59"
 xmlns:xlink="http://www.w3.org/1999/xlink">
 <defs>
  <style type="text/css">
   <![CDATA[
    .fil1 {fill:#05D9FF;fill-rule:nonzero}
    .fil0 {fill:white;fill-rule:nonzero}
   ]]>
  </style>
 </defs>
 <g id="Layer_x0020_1">
  <metadata id="CorelCorpID_0Corel-Layer"/>
  <path class="fil0" d="M120.49 27556.17c-90.56,679.29 452.82,1358.69 1132.23,1358.69l3804.27 0c679.4,0 1494.6,-679.4 1585.05,-1358.69l3849.72 -21738.86 15398.44 0 -3849.72 21738.86c-90.45,679.29 452.82,1358.69 1132.23,1358.69l3804.38 0c679.29,0 1494.48,-679.4 1585.16,-1358.69l3894.84 -22055.89c316.92,-1811.63 -2807.95,-5389.43 -4619.58,-5389.43l-17300.41 0c-1811.63,0 -6204.63,3577.81 -6521.77,5389.43l-3894.84 22055.89zm35688.04 -724.74c-181.24,815.3 860.53,2083.43 1675.61,2083.43l22961.65 0c679.4,0 1494.71,-679.4 1630.61,-1358.69l498.16 -2989.19c135.9,-679.18 -407.71,-1358.58 -1132.23,-1358.58l-18523.31 0 1086.89 -5978.27 15941.72 0c679.4,0 1449.37,-679.29 1585.27,-1358.58l498.16 -2853.29c135.79,-724.63 -407.71,-1358.69 -1132.23,-1358.69l-15941.83 0 1041.55 -5842.26 18523.31 0c679.4,0 1494.71,-679.4 1585.16,-1358.69l498.27 -2989.19c135.79,-679.18 -362.37,-1358.58 -1087.11,-1358.58l-22961.65 0c-769.74,0 -2309.68,1268.13 -2445.58,2083.32l-4302.43 24637.26zm32789.42 -3306.11c-316.92,1811.63 2807.95,5389.54 4619.58,5389.54l17617.55 0c1811.63,0 6204.63,-3577.92 6521.55,-5389.54l3894.95 -22055.89c90.56,-679.18 -452.93,-1358.58 -1132.23,-1358.58l-3804.27 0c-724.74,0 -1494.6,679.4 -1585.16,1358.58l-3849.61 21738.97 -15670.14 0 3804.38 -21738.97c135.79,-679.18 -407.71,-1358.58 -1132.23,-1358.58l-3804.38 0c-679.29,0 -1449.26,679.4 -1585.16,1358.58l-3894.84 22055.89zm70696.68 0c-317.03,1811.63 2807.84,5389.54 4619.47,5389.54l17708.23 0c1811.41,0 6204.63,-3577.92 6521.55,-5389.54l3170.21 -18025.04c317.14,-1811.63 -2807.95,-5389.43 -4619.36,-5389.43l-17708.23 0c-1811.63,0 -6204.63,3577.81 -6521.66,5389.43l-3170.21 18025.04zm6566.88 -316.92l3079.64 -17391.09 15760.7 0 -3034.42 17391.09 -15805.93 0z"/>
  <path class="fil1" d="M174484.41 26740.98c-181.24,769.86 860.42,2173.89 1675.61,2173.89l21104.79 0c1811.63,0 6204.63,-3577.92 6521.77,-5389.54l1041.55 -5887.48c226.58,-1222.79 -1313.35,-2898.51 -2581.37,-3306.11 1358.58,-588.73 2988.97,-2083.43 3124.87,-3079.75l1041.66 -5751.69c317.03,-1811.63 -2807.95,-5389.43 -4619.58,-5389.43l-20561.3 0c-815.19,0 -2309.68,1268.13 -2445.58,2083.32l-4302.43 24546.81zm7110.38 -3532.58l1086.89 -6114.06 15715.36 0 -1041.66 6114.06 -15760.59 0zm1992.76 -11458.27l1086.89 -5932.82 15126.64 0 -1041.66 5932.82 -15171.86 0zm26222.53 11775.19c-317.03,1811.63 2807.84,5389.54 4619.47,5389.54l17708.23 0c1811.52,0 6204.63,-3577.92 6521.55,-5389.54l3170.32 -18025.04c317.03,-1811.63 -2807.95,-5389.43 -4619.47,-5389.43l-17708.23 0c-1811.63,0 -6204.63,3577.81 -6521.55,5389.43l-3170.32 18025.04zm6567 -316.92l3079.53 -17391.09 15760.7 0 -3034.31 17391.09 -15805.93 0zm37273.09 4347.77c-135.9,679.29 407.49,1358.69 1086.89,1358.69l3849.61 0c679.29,0 1449.15,-679.4 1585.05,-1358.69l3804.38 -21738.86 10190.14 0c724.52,0 1494.48,-679.4 1585.05,-1358.69l588.84 -2989.19c90.56,-679.18 -317.14,-1358.58 -1132.23,-1358.58l-26901.93 0c-679.4,0 -1494.48,679.4 -1585.16,1358.58l-543.39 2989.19c-135.9,679.29 407.49,1358.69 1132.23,1358.69l10144.8 0 -3804.27 21738.86z"/>
  <path class="fil0" d="M103697.16 27556.17c-90.56,679.29 452.93,1358.69 1132.23,1358.69l3804.27 0c679.4,0 1494.6,-679.4 1585.16,-1358.69l1358.69 -7653.88 9239.04 0 5344.09 9012.58c1546.58,0 6657.67,736.05 6657.67,-1268.13 0,-735.82 -922.61,-2013.26 -1310.36,-2655.2l-3128.09 -5179.81c2037.98,-543.5 5706.46,-3849.61 5978.16,-5163.08l1585.16 -9148.37c316.92,-1811.63 -2807.95,-5389.43 -4619.58,-5389.43l-20697.2 0c-815.19,0 -2264.45,1268.13 -2445.58,2083.32l-4483.67 25362zm8876.67 -13360.35l1494.6 -8378.51 15307.88 0 -1494.71 8378.51 -15307.77 0z"/>
  <path class="fil0" d="M51952.89 41130.46c234.78,29.04 449.61,104.53 644.26,225.91 194.54,121.6 349.07,272.25 463.35,452.05 114.4,179.8 171.49,371.9 171.49,575.98 0,257.51 -83.47,489.63 -250.3,696.14 -166.94,206.63 -409.37,369.46 -727.51,488.52 -318.25,119.05 -693.7,178.58 -1126.24,178.58l-2410.11 0 0 -5081.27 2317.33 0c438.75,0 812.53,57.09 1121.69,171.26 308.83,114.18 540.51,268.48 695.14,462.91 154.41,194.43 231.68,413.14 231.68,656.12 0,301.29 -103.42,550.48 -310.49,747.35 -206.96,196.87 -480.31,338.87 -820.29,426.44zm-2391.49 -269.81l1418.22 0c395.51,0 701.24,-72.83 917.62,-218.6 216.27,-145.88 324.46,-347.63 324.46,-605.13 0,-257.62 -108.19,-459.36 -324.46,-605.13 -216.38,-145.88 -528.42,-218.71 -936.24,-218.71l-1399.6 0 0 1647.57zm1492.27 2340.27c420.23,0 747.69,-77.71 982.69,-233.34 234.78,-155.52 352.17,-371.79 352.17,-648.81 0,-282 -123.71,-504.26 -370.79,-667.1 -247.2,-162.73 -577.75,-244.31 -991.78,-244.31l-1464.55 0 0 1793.56 1492.27 0zm11986.14 -3995.16l0 1698.67 2354.24 0 0 546.71 -2354.24 0 0 1749.77 2632.36 0 0 546.71 -3476.04 0 0 -5088.58 3476.04 0 0 546.71 -2632.36 0zm16231.26 -539.4l-2104.16 3163.89 0 1917.38 -843.46 0 0 -1917.38 -2113.58 -3163.89 936.24 0 1594.36 2573.39 1594.25 -2573.39 936.35 0zm11615.01 5132.37c-599.48,0 -1146.3,-110.63 -1640.58,-331.78 -494.28,-221.04 -885.14,-529.75 -1172.57,-925.82 -287.32,-396.07 -431.1,-842.13 -431.1,-1337.85 0,-495.72 143.77,-941.67 431.1,-1337.63 287.43,-396.18 678.29,-704.9 1172.57,-926.04 494.28,-221.04 1041.11,-331.66 1640.58,-331.66 605.69,0 1155.61,110.63 1650.01,331.66 494.28,221.15 883.7,528.53 1167.92,922.27 284.22,393.63 426.44,840.8 426.44,1341.4 0,500.71 -142.22,947.88 -426.44,1341.51 -284.22,393.74 -673.64,701.13 -1167.92,922.16 -494.39,221.15 -1044.32,331.78 -1650.01,331.78zm0 -575.98c451.16,0 857.54,-82.69 1219.02,-247.86 361.37,-165.17 645.7,-400.95 852.77,-707.11 206.96,-306.28 310.6,-661.11 310.6,-1064.5 0,-408.26 -103.65,-764.2 -310.6,-1067.93 -207.07,-303.84 -489.74,-538.29 -848.23,-703.57 -358.27,-165.17 -766.2,-247.86 -1223.57,-247.86 -457.26,0 -865.08,82.69 -1223.46,247.86 -358.49,165.28 -641.16,399.73 -848.12,703.57 -206.96,303.73 -310.71,659.67 -310.71,1067.93 0,403.38 103.76,758.22 310.71,1064.5 206.96,306.17 491.29,541.95 852.66,707.11 361.59,165.17 767.97,247.86 1218.91,247.86zm17232.46 524.88l-843.46 0 -3392.57 -4046.04 0 4046.04 -843.57 0 0 -5088.58 843.57 0 3392.57 4038.83 0 -4038.83 843.46 0 0 5088.58zm11244.55 -5081.27c704.34,0 1314.46,103.2 1830.47,309.72 516.01,206.63 911.63,501.93 1186.54,885.81 275.02,383.99 412.47,836.03 412.47,1356.03 0,520 -137.45,970.83 -412.47,1352.37 -274.91,381.55 -670.53,673.08 -1186.54,874.94 -516.01,201.53 -1126.13,302.4 -1830.47,302.4l-2011.6 0 0 -5081.27 2011.6 0zm0 4534.55c833.93,0 1470.43,-173.81 1909.4,-521.33 438.75,-347.52 658.23,-834.7 658.23,-1461.67 0,-631.85 -221.15,-1125.13 -662.88,-1479.96 -441.85,-354.72 -1076.8,-532.19 -1904.74,-532.19l-1168.03 0 0 3995.16 1168.03 0zm27586.88 -4534.55l0 5081.27 -843.46 0 0 -2303.69 -3290.59 0 0 2303.69 -843.68 0 0 -5081.27 843.68 0 0 2230.75 3290.59 0 0 -2230.75 843.46 0zm12161.94 5132.37c-599.37,0 -1146.3,-110.63 -1640.58,-331.78 -494.28,-221.04 -885.14,-529.75 -1172.57,-925.82 -287.32,-396.07 -430.99,-842.13 -430.99,-1337.85 0,-495.72 143.66,-941.67 430.99,-1337.63 287.43,-396.18 678.29,-704.9 1172.57,-926.04 494.28,-221.04 1041.22,-331.66 1640.58,-331.66 605.69,0 1155.61,110.63 1650.23,331.66 494.28,221.15 883.59,528.53 1167.7,922.27 284.22,393.63 426.44,840.8 426.44,1341.4 0,500.71 -142.22,947.88 -426.44,1341.51 -284.11,393.74 -673.42,701.13 -1167.7,922.16 -494.61,221.15 -1044.54,331.78 -1650.23,331.78zm0 -575.98c451.16,0 857.65,-82.69 1219.02,-247.86 361.37,-165.17 645.7,-400.95 852.88,-707.11 206.85,-306.28 310.49,-661.11 310.49,-1064.5 0,-408.26 -103.65,-764.2 -310.49,-1067.93 -207.18,-303.84 -489.85,-538.29 -848.23,-703.57 -358.38,-165.17 -766.31,-247.86 -1223.68,-247.86 -457.26,0 -865.08,82.69 -1223.34,247.86 -358.6,165.28 -641.16,399.73 -848.23,703.57 -206.96,303.73 -310.6,659.67 -310.6,1067.93 0,403.38 103.65,758.22 310.6,1064.5 207.07,306.17 491.29,541.95 852.66,707.11 361.59,165.17 767.97,247.86 1218.91,247.86zm15554.74 524.88l-1538.71 -2077.78 -1019.6 0 0 2077.78 -843.57 0 0 -5081.27 2085.54 0c488.3,0 900.77,65.62 1237.53,196.87 336.76,131.25 588.73,308.5 755.56,532.08 166.83,223.59 250.19,478.65 250.19,765.53 0,349.95 -128.25,658.45 -384.76,925.82 -256.51,267.37 -641.05,444.73 -1153.84,532.19l1622.07 2128.77 -1010.4 0zm-2558.31 -2609.86l1241.97 0c457.37,0 800.34,-88.79 1028.91,-266.15 228.8,-177.47 343.08,-414.36 343.08,-710.77 0,-301.29 -112.73,-534.74 -338.32,-699.91 -225.58,-165.17 -570.21,-247.86 -1033.68,-247.86l-1241.97 0 0 1924.69zm13432.07 -2471.41l0 5081.27 -843.68 0 0 -5081.27 843.68 0zm9946.6 4505.4l3151.47 0 0 575.87 -4152.68 0 0 -524.88 3133.07 -3980.52 -3095.94 0 0 -575.87 4096.92 0 0 524.77 -3132.85 3980.64zm15026.21 626.97c-599.48,0 -1146.3,-110.63 -1640.7,-331.78 -494.28,-221.04 -885.14,-529.75 -1172.46,-925.82 -287.43,-396.07 -430.99,-842.13 -430.99,-1337.85 0,-495.72 143.55,-941.67 430.99,-1337.63 287.32,-396.18 678.18,-704.9 1172.46,-926.04 494.39,-221.04 1041.22,-331.66 1640.7,-331.66 605.58,0 1155.5,110.63 1650.12,331.66 494.28,221.15 883.59,528.53 1167.7,922.27 284.33,393.63 426.55,840.8 426.55,1341.4 0,500.71 -142.22,947.88 -426.55,1341.51 -284.11,393.74 -673.42,701.13 -1167.7,922.16 -494.61,221.15 -1044.54,331.78 -1650.12,331.78zm0 -575.98c451.05,0 857.54,-82.69 1218.91,-247.86 361.59,-165.17 645.7,-400.95 852.88,-707.11 206.96,-306.28 310.49,-661.11 310.49,-1064.5 0,-408.26 -103.53,-764.2 -310.49,-1067.93 -207.18,-303.84 -489.74,-538.29 -848.23,-703.57 -358.38,-165.17 -766.31,-247.86 -1223.57,-247.86 -457.26,0 -865.19,82.69 -1223.46,247.86 -358.6,165.28 -641.16,399.73 -848.23,703.57 -206.85,303.73 -310.49,659.67 -310.49,1067.93 0,403.38 103.65,758.22 310.49,1064.5 207.07,306.17 491.4,541.95 852.77,707.11 361.48,165.17 767.97,247.86 1218.91,247.86zm17232.46 524.88l-843.57 0 -3392.57 -4046.04 0 4046.04 -843.46 0 0 -5088.58 843.46 0 3392.57 4038.83 0 -4038.83 843.57 0 0 5088.58z"/>
 </g>
</svg>
