<?xml version="1.0" encoding="UTF-8"?>
<!DOCTYPE svg PUBLIC "-//W3C//DTD SVG 1.1//EN" "http://www.w3.org/Graphics/SVG/1.1/DTD/svg11.dtd">
<!-- Creator: CorelDRAW 2019 (64-Bit) -->
<svg xmlns="http://www.w3.org/2000/svg" xml:space="preserve" width="25.6mm" height="25.6mm" version="1.1" style="shape-rendering:geometricPrecision; text-rendering:geometricPrecision; image-rendering:optimizeQuality; fill-rule:evenodd; clip-rule:evenodd"
viewBox="0 0 245.58 245.58"
 xmlns:xlink="http://www.w3.org/1999/xlink">
 <defs>
  <style type="text/css">
   <![CDATA[
    .fil0 {fill:black;fill-rule:nonzero}
   ]]>
  </style>
 </defs>
 <g id="Layer_x0020_1">
  <metadata id="CorelCorpID_0Corel-Layer"/>
  <path class="fil0" d="M122.79 0c8.2,0 16.22,0.81 23.98,2.34 7.96,1.58 15.64,3.92 22.97,6.96 7.48,3.1 14.59,6.91 21.23,11.36 6.72,4.49 12.97,9.63 18.64,15.3 5.68,5.68 10.81,11.92 15.3,18.64 4.44,6.64 8.26,13.75 11.36,21.23 3.04,7.33 5.38,15.02 6.96,22.97 1.54,7.76 2.34,15.78 2.34,23.98 0,8.2 -0.81,16.22 -2.34,23.98 -1.58,7.96 -3.92,15.64 -6.96,22.97 -3.1,7.48 -6.91,14.59 -11.36,21.23 -4.49,6.72 -9.63,12.97 -15.3,18.64 -5.68,5.68 -11.92,10.81 -18.64,15.3 -6.64,4.44 -13.75,8.26 -21.23,11.36 -7.33,3.04 -15.02,5.38 -22.97,6.96 -7.76,1.54 -15.78,2.34 -23.98,2.34 -8.2,0 -16.22,-0.81 -23.98,-2.34 -7.96,-1.58 -15.64,-3.92 -22.97,-6.96 -7.48,-3.1 -14.58,-6.91 -21.23,-11.36 -6.72,-4.49 -12.97,-9.63 -18.65,-15.31 -5.68,-5.68 -10.81,-11.92 -15.3,-18.64 -4.44,-6.64 -8.26,-13.75 -11.36,-21.23 -3.04,-7.33 -5.38,-15.02 -6.96,-22.97 -1.54,-7.76 -2.34,-15.78 -2.34,-23.98 0,-8.2 0.81,-16.22 2.34,-23.98 1.58,-7.96 3.92,-15.64 6.96,-22.97 3.1,-7.48 6.91,-14.59 11.36,-21.23 4.49,-6.72 9.63,-12.97 15.3,-18.64 5.68,-5.68 11.93,-10.81 18.65,-15.31 6.65,-4.44 13.75,-8.26 21.23,-11.36 7.33,-3.04 15.02,-5.38 22.97,-6.96 7.76,-1.54 15.78,-2.34 23.98,-2.34zm-46.48 105.25c4.84,0 9.23,1.96 12.4,5.14 3.17,3.17 5.14,7.56 5.14,12.4 0,4.84 -1.96,9.23 -5.14,12.4 -3.17,3.17 -7.56,5.14 -12.4,5.14 -4.84,0 -9.22,-1.96 -12.4,-5.14 -3.18,-3.18 -5.14,-7.56 -5.14,-12.4 0,-4.84 1.96,-9.22 5.14,-12.4 3.18,-3.18 7.56,-5.14 12.4,-5.14zm92.97 0c4.84,0 9.22,1.96 12.4,5.14 3.18,3.18 5.14,7.56 5.14,12.4 0,4.84 -1.96,9.22 -5.14,12.4 -3.18,3.18 -7.56,5.14 -12.4,5.14 -4.84,0 -9.23,-1.96 -12.4,-5.14 -3.17,-3.17 -5.14,-7.56 -5.14,-12.4 0,-4.84 1.96,-9.23 5.14,-12.4 3.17,-3.17 7.56,-5.14 12.4,-5.14zm-46.48 0c4.84,0 9.22,1.96 12.4,5.14 3.18,3.18 5.14,7.56 5.14,12.4 0,4.84 -1.96,9.22 -5.14,12.4 -3.18,3.18 -7.56,5.14 -12.4,5.14 -4.84,0 -9.22,-1.96 -12.4,-5.14 -3.18,-3.18 -5.14,-7.56 -5.14,-12.4 0,-4.84 1.96,-9.22 5.14,-12.4 3.18,-3.18 7.56,-5.14 12.4,-5.14zm78.61 -61.07c-5.16,-5.16 -10.82,-9.81 -16.88,-13.87 -6.01,-4.02 -12.44,-7.47 -19.2,-10.27 -6.63,-2.74 -13.59,-4.87 -20.8,-6.3 -7.02,-1.39 -14.29,-2.12 -21.73,-2.12 -7.44,0 -14.71,0.73 -21.72,2.12 -7.21,1.43 -14.17,3.55 -20.8,6.3 -6.76,2.8 -13.19,6.25 -19.2,10.27 -6.07,4.06 -11.73,8.71 -16.88,13.87 -5.16,5.16 -9.81,10.82 -13.87,16.88 -4.02,6.01 -7.47,12.44 -10.27,19.2 -2.74,6.63 -4.87,13.59 -6.3,20.8 -1.39,7.02 -2.12,14.29 -2.12,21.73 0,7.44 0.73,14.71 2.12,21.73 1.43,7.21 3.55,14.17 6.3,20.8 2.8,6.76 6.25,13.19 10.27,19.2 4.06,6.07 8.71,11.73 13.87,16.88 5.16,5.16 10.82,9.81 16.88,13.87 6.01,4.02 12.44,7.47 19.2,10.27 6.63,2.74 13.59,4.87 20.8,6.3 7.02,1.39 14.29,2.12 21.72,2.12 7.44,0 14.71,-0.73 21.73,-2.12 7.21,-1.43 14.17,-3.55 20.8,-6.3 6.76,-2.8 13.19,-6.25 19.2,-10.27 6.07,-4.06 11.73,-8.71 16.88,-13.87 5.16,-5.16 9.81,-10.82 13.87,-16.88 4.02,-6.01 7.47,-12.44 10.27,-19.2 2.74,-6.63 4.87,-13.59 6.3,-20.8 1.39,-7.02 2.12,-14.29 2.12,-21.73 0,-7.44 -0.73,-14.71 -2.12,-21.73 -1.43,-7.21 -3.55,-14.17 -6.3,-20.8 -2.8,-6.76 -6.25,-13.19 -10.27,-19.2 -4.06,-6.07 -8.71,-11.73 -13.87,-16.88z"/>
 </g>
</svg>
