<?xml version="1.0" encoding="UTF-8"?>
<!DOCTYPE svg PUBLIC "-//W3C//DTD SVG 1.1//EN" "http://www.w3.org/Graphics/SVG/1.1/DTD/svg11.dtd">
<!-- Creator: CorelDRAW 2019 (64-Bit) -->
<svg xmlns="http://www.w3.org/2000/svg" xml:space="preserve" width="25.4076mm" height="25.4mm" version="1.1" style="shape-rendering:geometricPrecision; text-rendering:geometricPrecision; image-rendering:optimizeQuality; fill-rule:evenodd; clip-rule:evenodd"
viewBox="0 0 1284 1283.62"
 xmlns:xlink="http://www.w3.org/1999/xlink">
 <defs>
  <style type="text/css">
   <![CDATA[
    .fil0 {fill:black}
   ]]>
  </style>
 </defs>
 <g id="Layer_x0020_1">
  <metadata id="CorelCorpID_0Corel-Layer"/>
  <path class="fil0" d="M666.95 1223.43l0.13 -521.24c24.59,16.46 82.54,117.87 107.84,117.87 9.02,0 60.19,-18.43 73.26,-22.04 24.31,-6.72 49.8,-15.15 72.5,-22.79 24.28,-8.17 49.25,-14.66 72.75,-22.54l74.9 -22.9 0 361.12 -401.38 132.54zm-300.81 -275.48c0,46.24 50.15,31.17 50.15,10.03 0,-46.25 -50.15,-31.18 -50.15,-10.03zm175.54 85.26c11.86,0 25.08,-11.07 25.08,-27.59 0,-19.39 -18.18,-23.73 -33.54,-29.15 -18.01,-6.36 -63.13,-33.48 -72.06,3.91 -3.1,12.97 2.08,21.39 12.8,27.77 5.23,3.11 62.19,25.06 67.73,25.06zm-175.54 22.57c0,25.87 20.4,27.43 41.9,35.84l113.16 42.33c23.12,8.71 45.56,6.92 45.56,-20.49 0,-25.61 -41.14,-32.3 -78.47,-46.92 -25.05,-9.8 -79.75,-33.33 -99.58,-33.33 -12.4,0 -22.57,10.17 -22.57,22.57zm275.86 -767.39c-24.79,-16.6 -24.71,-37.61 -55.17,-37.61 -14.24,0 -20.06,16.25 -20.06,30.09 0,10.23 59.98,70.21 70.22,70.21l10.03 0c11.57,0 76.37,-70.09 88.4,-82.13 12.04,-12.04 82.13,-76.83 82.13,-88.4 0,-22.05 -8.05,-30.09 -30.09,-30.09 -16.35,0 -120.83,121.44 -145.45,137.93zm-376.17 451.41l257.46 86.29c32.6,10.01 39.06,-16.36 66.84,-62.93 4.89,-8.2 8.21,-13.69 13.17,-21.94 2.81,-4.69 3.94,-6.78 6.53,-11.02l7.09 -10.47 0 501.56c-14.4,-3.36 -29.46,-10.73 -44.2,-15.98l-262.69 -98.44c-14.74,-5.26 -29.81,-12.63 -44.2,-15.98l0 -351.09zm-62.7 -230.72c9.16,0 266.41,87.56 298.11,98.12 15.97,5.32 89.77,31.38 100.63,32.28 -0.85,10.24 -11.95,24.57 -17.08,33.08 -8.82,14.62 -55.91,90.23 -58.15,99.84l-403.39 -134.02c9.17,-16.66 76.98,-129.3 79.88,-129.3zm579.3 253.29c-7.39,-11.05 -14.58,-19.33 -22.9,-29.77 -8.69,-10.9 -69.92,-83.82 -72.4,-93.12l398.62 -133.29c7.13,4.92 119.89,114.11 123,125.77 -13.98,1.17 -83.27,25.83 -105.86,32.07 -62.34,17.22 -147.04,47.6 -211.73,66.64 -21.45,6.31 -93.28,31.35 -108.74,31.7zm-506.57 -288.4c11.54,-0.96 37.02,-11.08 47.97,-14.73 24.03,-8.01 139.11,-47.97 147.64,-47.97 1.69,0 30,28.69 35.09,32.63l40.25 27.46c81.8,47.3 194.26,38.37 269.7,-18.49 50.16,-37.81 2.27,-40.74 151.19,8.88 9.75,3.25 29.69,11.33 40.44,12.22l0 5.02c-18.03,1.5 -357.3,120.37 -366.14,120.37l-318.17 -105.65c-10.95,-3.65 -36.43,-13.77 -47.97,-14.73l0 -5.02zm810.02 -27.58l-200.26 -66.29c1.27,-22.88 32.24,-36.23 32.24,-146.87 48.89,11.39 193.57,61.41 253.29,77.74 11.58,3.16 25.1,9.75 37.61,10.03 -3.2,11.98 -116.23,120.94 -122.88,125.39zm-421.31 -396.23c80.38,0 149.61,45.58 183.94,117 53.34,110.93 -14.79,250.56 -134.9,278.13 -93.95,21.56 -191.94,-27.01 -227.84,-111 -22.7,-53.1 -26.16,-109.29 -1.74,-163.73 31.71,-70.69 105.42,-120.4 180.53,-120.4zm-248.27 178.05c0,54.5 1.37,88.38 27.59,137.93l-245.65 80.61c-14.67,-10.1 -47.29,-46.28 -62.18,-61.17 -11.06,-11.06 -20.29,-20.29 -31.35,-31.35 -8.64,-8.64 -26.36,-21.6 -29.47,-33.23 14.1,-1.18 31.02,-8.46 42.93,-12.24l214.46 -66.41c14.72,-4.81 27.06,-8.18 42.01,-13.16 14.82,-4.93 29.32,-10.05 44.17,-13.51 -1.31,5.62 -2.51,5.76 -2.51,12.54zm-416.3 80.25c0,20.52 13.82,27.61 35.74,49.53l122.26 123.51 -50.02 82.9c-70.18,117.28 -75.75,97.93 63.5,144.37 11.89,3.96 32.87,12.54 44.19,13.48l-0.01 368.66c-0.2,44.98 0.02,34.46 65.21,60.18l268.04 100.6c14.92,5.41 30.81,11.57 45.73,16.97 63.93,23.17 38.04,20.54 146.72,-15.7l344.2 -114.73c18.56,-6.12 32.65,-6.72 33.08,-32.13 2.1,-124.49 -0.16,-267.83 -0.16,-393.88l44.84 -12.84c14.49,-4.6 27.33,-8.99 43.83,-13.85 31.34,-9.22 76.84,-17.26 76.84,-41.03 0,-21.51 -18.26,-32.04 -34.49,-48.27l-118.49 -119.75 137.31 -138.55c11.6,-11.46 15.67,-11.74 15.67,-29.47 0,-17.24 -14.77,-21.85 -29.18,-25.99 -37.16,-10.67 -341.52,-103.24 -347.34,-109.08 -4.87,-4.88 -5.32,-11.99 -8.2,-19.39 -3,-7.69 -6.14,-12.93 -9.81,-20.29 -36.36,-72.88 -123.93,-133.72 -212.36,-133.72 -77.27,0 -134.96,20.86 -187.46,73.35 -42.09,42.09 -49.93,74.4 -54.96,80.46 -5.31,6.4 3.08,1.35 -9.62,5.42 -9.26,2.97 -13.91,4.28 -22.84,7.25l-367.11 114.39c-15.54,4.22 -35.11,8.09 -35.11,27.58z"/>
 </g>
</svg>
