<?xml version="1.0" encoding="UTF-8"?>
<!DOCTYPE svg PUBLIC "-//W3C//DTD SVG 1.1//EN" "http://www.w3.org/Graphics/SVG/1.1/DTD/svg11.dtd">
<!-- Creator: CorelDRAW 2019 (64-Bit) -->
<svg xmlns="http://www.w3.org/2000/svg" xml:space="preserve" width="25.4mm" height="25.4mm" version="1.1" style="shape-rendering:geometricPrecision; text-rendering:geometricPrecision; image-rendering:optimizeQuality; fill-rule:evenodd; clip-rule:evenodd"
viewBox="0 0 5025.08 5025.08"
 xmlns:xlink="http://www.w3.org/1999/xlink">
 <defs>
  <style type="text/css">
   <![CDATA[
    .fil0 {fill:black}
   ]]>
  </style>
 </defs>
 <g id="Layer_x0020_1">
  <metadata id="CorelCorpID_0Corel-Layer"/>
  <path class="fil0" d="M3758.84 4119.44l-579.29 0c-8.69,24.16 -23.9,47.84 -38.56,70.69 -7.44,11.59 -14.78,23.01 -20.36,33.04l-188.34 327.58c-11.71,21.45 -21.7,36.72 -29.44,48.47 -13.27,20.38 -17.45,26.79 -9.85,45.25 20.81,50.61 65.98,100.09 120.66,136.71 52.92,35.49 114.43,58.6 170.81,58.6l574.36 0 0 -720.33zm-2716.73 -3554.33l-155.96 0 0 -292.44 175.58 0 0 292.44 -19.63 0zm-311.61 0l-155.96 0 0 -292.44 175.58 0 0 292.44 -19.63 0zm469.49 -11.95c-8.67,-8.72 -11.97,-20.3 -11.97,-36.88l0 -243.62 185.33 0 0 292.44 -136.47 0c-16.66,0 -28.25,-3.28 -36.9,-11.95zm311.59 0.02c-8.65,-8.67 -11.95,-20.26 -11.95,-36.9l0 -243.62 185.33 0 0 292.44 -136.47 0c-16.62,0 -28.25,-3.28 -36.92,-11.93zm776.99 11.93l-165.71 0 0 -292.44 185.33 0 0 292.44 -19.63 0zm-311.61 0l-165.71 0 0 -292.44 185.33 0 0 292.44 -19.63 0zm-740.07 2453.96l-457.54 0 0 252.9 408.83 0c36.13,0 68.27,9.06 91.28,27.88 22.18,18.08 35.47,44.43 35.47,79.37l0 428.34 252.88 0 0 -438.07c0,-41.55 16.78,-66.37 44.26,-81.01 24.53,-13.06 56.7,-16.5 92.23,-16.5l399.1 0 0 -252.9 -447.79 0c-28.15,0 -49.82,-7.6 -65.01,-22.79 -15.19,-15.17 -22.79,-36.86 -22.79,-65.01l0 -447.77 -252.88 0 0 418.57c0,27.16 -6.53,58.05 -20.1,80.68 -12.96,21.6 -32.07,36.32 -57.95,36.32zm-107.29 -175.6l0 -457.52c0,-17.05 11.24,-36.86 26.21,-51.83 14.92,-15 34.7,-26.23 51.83,-26.23l447.96 0c28.15,0 49.82,7.6 65.01,22.79 15.15,15.27 22.77,36.96 22.77,65.03l0 447.77 447.81 0c28.15,0 49.82,7.6 65.01,22.79 15.19,15.19 22.79,36.88 22.79,65.01l0 438.21c0,28.15 -7.6,49.82 -22.79,65.01 -15.19,15.19 -36.86,22.79 -65.01,22.79l-447.81 0 0 447.79c0,28.07 -7.62,49.74 -22.77,64.93 -15.19,15.27 -36.86,22.87 -65.01,22.87l-428.46 0c-28.92,0 -53.18,-9.79 -70.43,-27.02 -17.31,-17.35 -27.12,-41.61 -27.12,-70.51l0 -438.05 -438.03 0c-28.92,0 -53.18,-9.79 -70.43,-27.02 -17.31,-17.33 -27.1,-41.61 -27.1,-70.51l0 -438.21c0,-17.05 11.22,-36.86 26.19,-51.83 14.92,-15 34.7,-26.23 51.85,-26.23l457.52 0zm2814.58 1996.3l584.12 0c36.18,0 74.47,-12.13 110.41,-30.72 43.5,-22.47 83.51,-54.31 112.79,-85.78 15.02,-16.08 28.79,-32.68 40.52,-50.07 11.53,-17.15 21.27,-35.41 28.43,-55.24 18.26,-50.47 27.88,-96.33 27.62,-141.59 -0.24,-45.01 -10.33,-90.17 -31.44,-139.61 -24.73,-57.93 -71.34,-115.5 -130.22,-156.92 -51.99,-36.56 -113.44,-60.38 -177.6,-60.38l-564.63 0 0 720.33zm-1956.02 -35.61c-64.36,-66.85 -157.42,-163.59 -157.42,-392.73 0,-29.2 2.73,-44.63 5.34,-59.63 1.48,-8.39 2.93,-16.64 3.76,-27.86l-1664.07 0c1.17,60.54 7.81,118.43 22.59,171.37 16.22,57.83 42.22,110.12 81.61,153.9 154.02,171.23 251.33,171.21 537.41,171.13l1186.14 -0.06 -15.35 -16.12zm256.6 -37.97c42.32,15.59 90.13,24.87 141.2,24.87 47.4,0 88.16,-10.62 123.98,-26.35 36.54,-16.06 68.33,-37.53 96.84,-58.62 29.12,-21.52 79.43,-93.34 133.94,-180.37 85.09,-135.88 179.85,-308.69 222.79,-389.05l-635.16 -359.02c-13.18,30.13 -37.33,70.77 -56.9,103.75 -8.11,13.49 -15.37,25.7 -21.19,36.18 -50.57,101.15 -123.69,207.57 -179.3,308.67 -46.35,76.15 -64.28,164.86 -53.79,249.61 10.21,82.54 47.46,161.34 111.66,220.95 30.11,27.93 69.72,52.39 115.93,69.38zm463.79 -981.77c145.19,86.93 298.38,178.65 349.24,195.7l258.04 -453.29c37.51,-61.41 54.25,-126.81 54.25,-190.36 0,-65.54 -17.77,-129.17 -48.77,-184.48 -31,-55.28 -75.24,-102.32 -128.14,-134.63 -48.57,-29.64 -104.58,-46.99 -164.5,-46.99 -228.7,0 -292.34,108.3 -382.46,261.68l-222.19 390.16c54.44,24.45 166.96,91.82 284.53,162.21zm-2532.96 354.21l1741.33 0c201.18,-350.9 399.34,-711.29 606.69,-1057.64 29.77,-49.86 60.34,-100.96 104.22,-142.4 11.36,-10.64 27.54,-24.59 44.26,-35.77 8.33,-5.6 16.93,-10.6 25.32,-14.4l0 -726.3 -2521.82 0 0 1976.52zm25.9 -2198.59c-17.47,12.31 -25.9,18.26 -25.9,27.18l0 9.58 2521.42 0c-1.33,-22.02 -6.53,-25.84 -25.28,-39.57 -8.37,-6.13 -18.85,-13.81 -32.76,-25.11l-380.03 -302.1c-20.06,-16.5 -37.15,-29.7 -51.6,-40.83 -45.64,-35.23 -67.68,-52.27 -78.8,-90.79 -9.52,-32.94 -8.74,-78.56 -7.24,-166.46 0.63,-36.98 1.4,-82.14 1.54,-143.08l-1372.68 0c0.24,71.99 1.74,125.09 2.91,166.96 2.12,76.09 3.28,116.94 -5.68,147.73 -11.32,38.66 -34.8,56.23 -85.45,94.07 -14.01,10.41 -30.25,22.53 -51.46,39.19 -21.03,16.48 -41.43,33.2 -61.43,49.56 -29.04,23.76 -57.45,47.05 -90.12,71.38l-228.4 180.98c-11.53,8.96 -21.05,15.67 -29.06,21.31zm1921.38 -1102.25l-1372.74 0 0 145.75 1372.74 0 0 -145.75zm-1598.07 -361.45c0.73,20.54 1.38,38.46 1.38,49.68 0,40.48 5.82,73.26 21.17,94.96 14.2,20.08 38.32,31.46 76.05,31.46l1645.71 0c19.07,0 38.46,-9.81 53.22,-24.53 14.7,-14.78 24.53,-34.17 24.53,-53.22l0 -311.61c0,-20.87 -7.72,-41.47 -21.05,-56.28 -11.65,-12.96 -27.86,-21.47 -46.97,-21.47l-1694.4 0c-52.55,0 -61.65,106.38 -61.65,202.21 0,33.63 1.09,63.49 2,88.81zm-175.24 -157.4c0.53,-27.26 1.01,-51.64 1.01,-75.34 0,-63.23 30.45,-126.26 80.48,-172.28 46.69,-42.93 110.57,-71.32 182.62,-71.32l1665.18 0c20.06,0 39.86,3.44 58.18,8.78 21.64,6.31 41.25,15.41 57.23,24.87 145.65,86.16 142.56,232.1 138.98,401.85 -0.51,24.63 -1.07,50.01 -1.07,80.78 0,82.46 -20.18,166.42 -66.1,226.33 -36.3,47.36 -88.08,79.65 -157.87,84.73l0 584.81c0,10.52 10.98,18.36 28.05,30.49 7.36,5.24 15.65,11.1 25.96,19.35l347.56 275.67c18.02,14.13 35.73,27.34 51.75,39.23 81.47,60.62 121.59,90.45 121.67,180.05l-0.51 845.2c11.77,-1.72 23.68,-3.92 35.71,-6.11 29.48,-5.38 59.85,-10.96 90.79,-10.96 74.41,0 142.8,15.57 204.96,42.79 68.06,29.79 128.56,73.52 181.38,126 22.49,22.32 43.66,46.71 62.66,73.5 18.99,26.83 35.73,56.07 49.2,88.06 50.41,119.53 57.02,215.54 38.42,305.07 -18.42,88.55 -61.17,169.21 -110.35,260.16l-148.64 253.49 1085.69 0c114.05,0 193.72,4.75 262.27,22.69 69.38,18.14 126.18,49.44 193.74,102.32 71.54,56.01 120.78,123.77 152.1,200.15 31.1,75.95 44.47,160.13 44.47,249.51 0,137.08 -63.51,267.34 -164.46,362.66 -99,93.52 -234.28,153.62 -381.02,153.62l-1275.66 0c-46.45,0 -91.2,-7.7 -132.69,-19.76 -50.37,-14.66 -95.85,-35.89 -133.5,-57.55 -59.63,-34.34 -103.75,-84.32 -136.33,-121.29 -10.31,-11.75 -19.43,-22.12 -27.12,-29.72 -11.87,9.28 -23.17,19.9 -34.88,30.92 -18.48,17.39 -38.06,35.79 -64.44,53.44 -57.04,38.2 -136.45,67.96 -220.87,88.71 -95.81,23.58 -198.59,35.79 -282.39,35.79l-1470.43 0c-58.48,0 -106.89,-3.19 -152.35,-10.21 -45.48,-7.04 -87.38,-17.92 -132.85,-33.34 -111.26,-37.67 -218.99,-119.36 -296.78,-224.01 -72.51,-97.51 -119.32,-215.27 -119.32,-336.36l0 -2483.18c0,-53.4 25.11,-71.5 56.78,-94.27l5.44 -3.9 222.17 -175.88 33.81 -27.32c67.48,-54.7 206.17,-167.13 256.34,-197.2l0 -588.73c-7.79,-2.67 -15.57,-4.43 -23.52,-6.21 -16.1,-3.62 -32.92,-7.42 -53.87,-18.1 -27.14,-13.85 -51.99,-30.92 -73.36,-51.71 -21.58,-21.01 -39.47,-45.82 -52.37,-74.92 -27.82,-62.75 -24.29,-239.84 -21.88,-361.33z"/>
 </g>
</svg>
