<?xml version="1.0" encoding="UTF-8"?>
<!DOCTYPE svg PUBLIC "-//W3C//DTD SVG 1.1//EN" "http://www.w3.org/Graphics/SVG/1.1/DTD/svg11.dtd">
<!-- Creator: CorelDRAW 2019 (64-Bit) -->
<svg xmlns="http://www.w3.org/2000/svg" xml:space="preserve" width="25.5165mm" height="25.515mm" version="1.1" style="shape-rendering:geometricPrecision; text-rendering:geometricPrecision; image-rendering:optimizeQuality; fill-rule:evenodd; clip-rule:evenodd"
viewBox="0 0 314.78 314.76"
 xmlns:xlink="http://www.w3.org/1999/xlink">
 <defs>
  <style type="text/css">
   <![CDATA[
    .fil0 {fill:black;fill-rule:nonzero}
   ]]>
  </style>
 </defs>
 <g id="Layer_x0020_1">
  <metadata id="CorelCorpID_0Corel-Layer"/>
  <path class="fil0" d="M215.74 0.12c1.09,-0.07 2.3,-0.11 3.64,-0.12 1.33,-0.01 2.56,0.01 3.69,0.08 1.14,0.07 2.22,0.18 3.23,0.33 1.01,0.16 1.93,0.36 2.78,0.61 0.86,0.26 1.67,0.57 2.41,0.94 0.94,0.47 1.72,1 2.38,1.56 0.67,0.57 1.21,1.16 1.66,1.76 0.44,0.59 0.8,1.18 1.1,1.75 0.28,0.53 0.51,1.05 0.71,1.5l0.28 0.63c0.29,0.68 0.53,1.22 0.76,1.66 0.23,0.43 0.49,0.82 0.86,1.25 0.21,0.24 0.47,0.5 0.79,0.78 0.32,0.28 0.73,0.59 1.24,0.92 0.5,0.32 1.09,0.67 1.8,1.03 0.69,0.36 1.53,0.74 2.53,1.14 0.98,0.4 1.85,0.71 2.6,0.94 0.75,0.23 1.42,0.39 2.02,0.5 0.57,0.11 1.08,0.16 1.53,0.19 0.41,0.02 0.79,0.01 1.12,-0.02 1.05,-0.09 1.76,-0.38 2.9,-0.86l0.87 -0.36c0.6,-0.26 1.23,-0.5 1.89,-0.7 0.68,-0.2 1.39,-0.35 2.13,-0.43 0.73,-0.08 1.5,-0.09 2.3,-0.01 0.8,0.08 1.63,0.24 2.48,0.51 0.85,0.27 1.68,0.61 2.49,1.03 0.8,0.41 1.6,0.91 2.41,1.49 0.8,0.57 1.62,1.23 2.48,1.99 0.85,0.75 1.73,1.57 2.66,2.49 0.92,0.91 1.78,1.79 2.55,2.66 0.77,0.85 1.45,1.68 2.05,2.5 0.59,0.81 1.11,1.6 1.54,2.39 0.44,0.8 0.79,1.6 1.04,2.38 0.33,0.99 0.51,1.92 0.57,2.78 0.07,0.86 0.03,1.67 -0.07,2.42 -0.1,0.74 -0.27,1.42 -0.46,2.03 -0.18,0.59 -0.38,1.11 -0.56,1.57l-0.31 0.8c-0.47,1.21 -0.76,1.93 -0.84,3 -0.02,0.32 -0.03,0.7 0,1.13 0.03,0.45 0.09,0.95 0.21,1.52 0.12,0.58 0.29,1.24 0.53,1.99 0.24,0.75 0.57,1.61 0.98,2.58 0.39,0.94 0.79,1.77 1.19,2.51 0.38,0.71 0.73,1.3 1.06,1.78 0.33,0.48 0.65,0.89 0.95,1.22 0.28,0.32 0.55,0.57 0.8,0.78 0.4,0.34 0.77,0.58 1.17,0.78 0.46,0.24 0.94,0.44 1.53,0.68l0.87 0.36c0.63,0.26 1.25,0.56 1.87,0.9 0.61,0.34 1.2,0.73 1.77,1.18 0.57,0.46 1.12,0.99 1.62,1.59 0.5,0.6 0.96,1.29 1.37,2.09 0.41,0.78 0.76,1.61 1.05,2.49 0.28,0.87 0.5,1.79 0.67,2.77 0.17,0.98 0.29,2.04 0.37,3.18 0.07,1.09 0.11,2.3 0.12,3.64 0.01,1.33 -0.01,2.56 -0.08,3.69 -0.07,1.14 -0.18,2.22 -0.34,3.23 -0.16,1.01 -0.36,1.93 -0.61,2.77 -0.26,0.86 -0.57,1.66 -0.93,2.39 -0.45,0.9 -0.97,1.67 -1.52,2.32 -0.56,0.65 -1.16,1.21 -1.76,1.67 -0.6,0.46 -1.2,0.84 -1.75,1.15 -0.56,0.31 -1.08,0.55 -1.52,0.74l-0.92 0.39c-0.58,0.25 -1.05,0.45 -1.48,0.68 -0.39,0.21 -0.75,0.45 -1.13,0.78 -0.24,0.21 -0.51,0.47 -0.79,0.79 -0.28,0.32 -0.59,0.73 -0.92,1.24 -0.33,0.51 -0.68,1.1 -1.03,1.79 -0.37,0.74 -0.76,1.58 -1.14,2.53 -0.33,0.81 -0.59,1.53 -0.8,2.17 -0.21,0.64 -0.37,1.22 -0.49,1.74 -0.12,0.51 -0.2,0.97 -0.25,1.39l-0.07 0.83c0.88,0.93 1.7,1.85 2.45,2.77 0.83,1.01 1.56,1.99 2.2,2.94 0.65,0.96 1.21,1.9 1.69,2.83 0.48,0.94 0.87,1.85 1.15,2.7 0.41,1.24 0.64,2.41 0.73,3.5 0.09,1.09 0.05,2.12 -0.07,3.1 -0.12,0.97 -0.33,1.87 -0.58,2.68 -0.23,0.79 -0.51,1.54 -0.78,2.22 -0.13,0.33 -0.28,0.79 -0.43,1.1 -0.81,2.03 -1.44,3.63 -1.6,5.91 -0.04,0.66 -0.05,1.4 0.01,2.23 0.06,0.85 0.19,1.79 0.4,2.83 0.21,1.05 0.52,2.22 0.94,3.52 0.42,1.3 0.96,2.75 1.64,4.36 0.68,1.61 1.35,3 2,4.22 0.65,1.22 1.28,2.25 1.88,3.12 0.61,0.88 1.2,1.62 1.76,2.24 0.55,0.62 1.09,1.13 1.6,1.56 0.87,0.73 1.7,1.26 2.55,1.7 0.86,0.45 1.8,0.84 2.85,1.26l1.04 0.43c0.8,0.33 1.61,0.71 2.42,1.15 0.81,0.44 1.6,0.94 2.35,1.53 0.76,0.6 1.49,1.28 2.16,2.07 0.67,0.79 1.29,1.7 1.84,2.75 0.51,0.98 0.95,2.06 1.33,3.25 0.37,1.18 0.68,2.48 0.92,3.92 0.24,1.44 0.43,3.01 0.56,4.71 0.12,1.67 0.19,3.52 0.21,5.56 0.02,2.02 -0.01,3.85 -0.1,5.51 -0.09,1.71 -0.24,3.25 -0.45,4.65 -0.21,1.42 -0.5,2.72 -0.86,3.92 -0.36,1.2 -0.8,2.32 -1.33,3.38 -0.59,1.18 -1.26,2.18 -1.97,3.02 -0.7,0.84 -1.47,1.54 -2.25,2.14 -0.76,0.59 -1.54,1.07 -2.3,1.48 -0.73,0.39 -1.45,0.72 -2.12,1.02l-1.06 0.46c-1.05,0.46 -1.99,0.86 -2.81,1.31 -0.84,0.46 -1.65,1 -2.5,1.74 -0.5,0.43 -1.03,0.95 -1.57,1.58 -0.56,0.65 -1.13,1.4 -1.72,2.28 -0.6,0.91 -1.21,1.95 -1.83,3.15 -0.62,1.22 -1.27,2.62 -1.92,4.25 -0.66,1.63 -1.18,3.09 -1.57,4.4 -0.4,1.31 -0.68,2.49 -0.88,3.55 -0.19,1.05 -0.31,1.99 -0.35,2.84 -0.04,0.82 -0.02,1.56 0.03,2.24 0.19,2.22 0.85,3.79 1.67,5.74l0.51 1.22c0.35,0.85 0.66,1.7 0.92,2.57 0.26,0.9 0.46,1.81 0.57,2.74 0.11,0.93 0.13,1.91 0.03,2.95 -0.09,1.03 -0.3,2.1 -0.65,3.22 -0.35,1.12 -0.81,2.23 -1.39,3.36 -0.58,1.11 -1.28,2.25 -2.11,3.42 -0.82,1.16 -1.79,2.38 -2.9,3.66 -1.1,1.27 -2.36,2.62 -3.76,4.04 -1.42,1.44 -2.74,2.72 -3.98,3.83 -1.26,1.13 -2.46,2.12 -3.61,2.97 -1.16,0.85 -2.27,1.57 -3.38,2.17 -1.12,0.61 -2.23,1.09 -3.34,1.46 -1.11,0.37 -2.17,0.59 -3.2,0.7 -1.02,0.11 -2,0.1 -2.95,0 -0.94,-0.1 -1.86,-0.28 -2.75,-0.54 -0.89,-0.25 -1.75,-0.55 -2.6,-0.88l-1.05 -0.41c-2.06,-0.82 -3.67,-1.46 -5.96,-1.62 -0.66,-0.04 -1.39,-0.05 -2.22,0.01 -0.85,0.06 -1.79,0.19 -2.83,0.4 -1.05,0.22 -2.22,0.52 -3.52,0.94 -1.32,0.43 -2.77,0.96 -4.36,1.64 -1.62,0.69 -3.01,1.36 -4.22,2 -1.19,0.64 -2.23,1.27 -3.12,1.88 -0.88,0.6 -1.62,1.19 -2.25,1.76 -0.63,0.57 -1.14,1.1 -1.56,1.6 -0.73,0.86 -1.25,1.68 -1.68,2.51 -0.44,0.85 -0.82,1.78 -1.25,2.8l-0.47 1.13c-0.28,0.66 -0.59,1.39 -0.98,2.14 -0.39,0.76 -0.87,1.55 -1.44,2.33 -0.58,0.78 -1.27,1.55 -2.1,2.28 -0.83,0.72 -1.8,1.41 -2.96,2.01 -0.99,0.52 -2.07,0.96 -3.26,1.33 -1.17,0.37 -2.48,0.67 -3.91,0.91 -1.43,0.24 -2.99,0.43 -4.69,0.55 -1.66,0.12 -3.51,0.19 -5.54,0.21 -2.02,0.02 -3.85,-0.01 -5.51,-0.1 -1.71,-0.09 -3.26,-0.24 -4.66,-0.45 -1.42,-0.21 -2.73,-0.5 -3.93,-0.85 -1.21,-0.36 -2.32,-0.8 -3.38,-1.33 -1.18,-0.59 -2.17,-1.25 -3.01,-1.95 -0.84,-0.7 -1.55,-1.46 -2.15,-2.23 -0.6,-0.76 -1.08,-1.54 -1.49,-2.29 -0.4,-0.75 -0.73,-1.46 -1.02,-2.12l-0.46 -1.08c-0.87,-2.02 -1.57,-3.63 -3.06,-5.33 -0.44,-0.5 -0.96,-1.03 -1.58,-1.58 -0.63,-0.55 -1.38,-1.12 -2.27,-1.72 -0.91,-0.6 -1.95,-1.22 -3.15,-1.83 -1.2,-0.62 -2.61,-1.26 -4.25,-1.92 -1.63,-0.66 -3.08,-1.17 -4.39,-1.57 -1.3,-0.39 -2.47,-0.68 -3.53,-0.88 -1.05,-0.2 -1.98,-0.31 -2.82,-0.35 -0.81,-0.04 -1.55,-0.02 -2.22,0.03 -2.24,0.19 -3.82,0.86 -5.79,1.69l-1.18 0.49c-0.69,0.28 -1.44,0.57 -2.22,0.81 -0.83,0.26 -1.73,0.48 -2.68,0.61 -0.96,0.14 -2,0.19 -3.1,0.11 -1.09,-0.08 -2.25,-0.28 -3.47,-0.66 -0.96,-0.26 -1.99,-0.67 -3.08,-1.23 -1.07,-0.56 -2.22,-1.26 -3.42,-2.11 -1.21,-0.85 -2.48,-1.85 -3.81,-2.99 -1.32,-1.13 -2.71,-2.41 -4.15,-3.82 -1.45,-1.42 -2.73,-2.76 -3.85,-4.02 -1.13,-1.27 -2.12,-2.49 -2.99,-3.69 -0.86,-1.16 -1.58,-2.29 -2.17,-3.38 -0.6,-1.11 -1.07,-2.17 -1.41,-3.19 -0.37,-1.13 -0.6,-2.19 -0.71,-3.21 -0.11,-1.02 -0.11,-2.01 -0.01,-2.96 0.09,-0.95 0.28,-1.86 0.52,-2.75 0.24,-0.9 0.54,-1.75 0.87,-2.58 0.14,-0.36 0.28,-0.76 0.44,-1.11 0.81,-2.02 1.43,-3.61 1.6,-5.89 0.04,-0.6 0.05,-1.27 0.01,-2.01 -0.04,-0.74 -0.14,-1.58 -0.3,-2.51 -0.17,-0.95 -0.4,-1.97 -0.72,-3.07 -0.29,-1 -0.66,-2.11 -1.12,-3.32l-0.63 -0.11c-0.37,-0.09 -0.72,-0.21 -1.06,-0.36 -0.35,-0.15 -0.68,-0.33 -0.98,-0.53 -0.3,-0.2 -0.59,-0.44 -0.85,-0.7l-5.55 -5.6 -0.09 5.26c-0.11,5.79 -0.22,11.79 0.11,16.99l0 0.08c-0,0.8 -0.16,1.57 -0.45,2.26 -0.3,0.72 -0.75,1.37 -1.29,1.92 -0.54,0.55 -1.2,0.99 -1.92,1.29 -0.7,0.29 -1.47,0.45 -2.26,0.45l-78.38 -0c-0.81,-0 -1.58,-0.17 -2.27,-0.46 -0.72,-0.3 -1.37,-0.75 -1.92,-1.3 -0.54,-0.55 -0.98,-1.21 -1.28,-1.94 -0.29,-0.69 -0.44,-1.46 -0.44,-2.27l-0 -83.8c0,-4.83 0.74,-9.44 2.12,-13.72 1.42,-4.4 3.53,-8.45 6.21,-12.02 2.7,-3.6 5.99,-6.73 9.77,-9.26 3.36,-2.26 7.1,-4.04 11.14,-5.27 -1.88,-1.65 -3.6,-3.47 -5.14,-5.44 -1.8,-2.31 -3.36,-4.82 -4.62,-7.48 -1.24,-2.61 -2.2,-5.39 -2.85,-8.29 -0.63,-2.83 -0.96,-5.76 -0.96,-8.75 0,-5.39 1.08,-10.55 3.02,-15.25 2.02,-4.89 4.99,-9.28 8.66,-12.96 3.67,-3.67 8.06,-6.63 12.94,-8.65 4.7,-1.94 9.85,-3.02 15.25,-3.02 5.4,0 10.55,1.07 15.25,3.02 4.88,2.02 9.27,4.98 12.94,8.65 3.68,3.68 6.64,8.07 8.66,12.95 1.95,4.71 3.02,9.86 3.02,15.25 0,3.19 -0.38,6.31 -1.1,9.31 -0.74,3.09 -1.83,6.03 -3.22,8.77 -1.42,2.8 -3.18,5.42 -5.21,7.8 -1.75,2.06 -3.71,3.93 -5.84,5.59l1.39 0.57c0.85,0.37 1.69,0.77 2.49,1.19 0.83,0.43 1.62,0.89 2.37,1.35 0.75,0.47 1.51,0.98 2.28,1.54 1.25,0.91 2.44,1.9 3.59,2.95 1.14,1.04 2.23,2.15 3.28,3.31 1.05,1.15 2.07,2.36 3.06,3.62 0.63,0.8 1.27,1.63 1.9,2.48 0.58,-4.7 -0.69,-7.61 -1.73,-9.99l-0.52 -1.21c-0.17,-0.43 -0.32,-0.83 -0.43,-1.19 -0.2,-0.68 -0.41,-1.39 -0.59,-2.2 -0.18,-0.8 -0.31,-1.64 -0.36,-2.54 -0.05,-0.91 -0,-1.88 0.17,-2.94 0.17,-1.05 0.48,-2.18 0.95,-3.42 0.37,-0.95 0.85,-1.93 1.43,-2.93 0.58,-1 1.28,-2.04 2.08,-3.13 0.8,-1.08 1.73,-2.21 2.77,-3.41 1.04,-1.19 2.2,-2.43 3.47,-3.72 1.42,-1.44 2.73,-2.72 3.97,-3.83 1.25,-1.13 2.44,-2.11 3.6,-2.97 1.16,-0.85 2.28,-1.58 3.38,-2.17 1.13,-0.61 2.23,-1.09 3.34,-1.46 1.21,-0.4 2.37,-0.63 3.47,-0.72 1.09,-0.09 2.13,-0.06 3.1,0.06 0.97,0.12 1.87,0.32 2.7,0.56 0.8,0.23 1.55,0.5 2.24,0.77 0.4,0.13 0.87,0.35 1.27,0.51 1.95,0.79 3.52,1.42 5.72,1.57 0.66,0.05 1.4,0.05 2.23,-0 0.85,-0.06 1.79,-0.18 2.83,-0.39 1.05,-0.22 2.23,-0.52 3.53,-0.94 1.09,-0.35 2.28,-0.79 3.56,-1.31l-0.28 -0.16c-0.44,-0.23 -0.95,-0.45 -1.54,-0.69l-0.01 -0c-0.6,-0.25 -1.29,-0.53 -2.07,-0.91 -0.64,-0.3 -1.27,-0.67 -1.87,-1.1 -0.57,-0.4 -1.11,-0.87 -1.62,-1.39 -0.48,-0.5 -0.94,-1.06 -1.34,-1.67 -0.39,-0.58 -0.74,-1.22 -1.05,-1.92 -0.32,-0.73 -0.59,-1.5 -0.81,-2.31 -0.22,-0.8 -0.39,-1.66 -0.53,-2.59 -0.14,-0.92 -0.24,-1.9 -0.31,-2.96 -0.06,-1.02 -0.1,-2.14 -0.11,-3.36 -0.01,-1.33 0.01,-2.53 0.06,-3.63 0.06,-1.15 0.16,-2.21 0.3,-3.18 0.15,-0.99 0.35,-1.9 0.61,-2.77 0.26,-0.88 0.59,-1.71 1,-2.51 0.46,-0.92 0.99,-1.7 1.55,-2.36 0.56,-0.67 1.16,-1.22 1.75,-1.68 0.59,-0.46 1.19,-0.83 1.74,-1.13 0.53,-0.29 1.05,-0.52 1.51,-0.72l0.65 -0.29c0.66,-0.29 1.18,-0.52 1.63,-0.76 0.41,-0.22 0.79,-0.48 1.21,-0.85 0.24,-0.21 0.5,-0.47 0.8,-0.8 0.29,-0.33 0.6,-0.73 0.94,-1.22 0.33,-0.49 0.68,-1.08 1.04,-1.78 0.37,-0.72 0.75,-1.55 1.14,-2.51 0.39,-0.97 0.7,-1.84 0.93,-2.6 0.23,-0.78 0.39,-1.44 0.49,-2.01 0.1,-0.6 0.16,-1.11 0.18,-1.54 0.02,-0.42 0,-0.8 -0.02,-1.13 -0.09,-1.08 -0.4,-1.82 -0.91,-3.04 -0.07,-0.24 -0.23,-0.52 -0.31,-0.76 -0.18,-0.45 -0.38,-0.97 -0.57,-1.57 -0.19,-0.61 -0.36,-1.28 -0.46,-2.03 -0.11,-0.74 -0.15,-1.55 -0.09,-2.41 0.06,-0.86 0.22,-1.79 0.52,-2.76 0.26,-0.82 0.6,-1.63 1.02,-2.44 0.41,-0.8 0.91,-1.6 1.49,-2.42 0.57,-0.81 1.24,-1.65 1.99,-2.52 0.75,-0.86 1.58,-1.76 2.5,-2.69 0.93,-0.95 1.8,-1.79 2.62,-2.53 0.86,-0.77 1.67,-1.45 2.45,-2.02 0.8,-0.59 1.59,-1.1 2.38,-1.53 0.81,-0.43 1.63,-0.79 2.48,-1.07 0.98,-0.32 1.91,-0.5 2.78,-0.58 0.86,-0.07 1.67,-0.04 2.42,0.06 0.75,0.1 1.43,0.26 2.03,0.44 0.58,0.17 1.11,0.38 1.58,0.56l0.75 0.3c0.64,0.25 1.15,0.46 1.64,0.6 0.44,0.13 0.88,0.22 1.42,0.26 0.32,0.02 0.7,0.03 1.12,0 0.45,-0.03 0.95,-0.1 1.52,-0.21 0.58,-0.12 1.24,-0.29 1.99,-0.53 0.77,-0.25 1.63,-0.57 2.59,-0.97 0.96,-0.41 1.79,-0.81 2.51,-1.18 0.71,-0.38 1.3,-0.74 1.78,-1.07 0.49,-0.33 0.89,-0.65 1.22,-0.95 0.32,-0.28 0.57,-0.56 0.78,-0.81 0.34,-0.41 0.59,-0.79 0.8,-1.2 0.23,-0.45 0.44,-0.96 0.7,-1.59l0.31 -0.76c0.2,-0.48 0.44,-1.02 0.7,-1.53 0.29,-0.56 0.65,-1.15 1.1,-1.76 0.44,-0.6 0.98,-1.2 1.64,-1.78 0.65,-0.57 1.42,-1.11 2.33,-1.58 0.78,-0.41 1.61,-0.75 2.49,-1.03 0.87,-0.28 1.79,-0.49 2.76,-0.66 0.98,-0.16 2.03,-0.28 3.16,-0.36zm6.05 11.79c-0.68,-0.03 -1.44,-0.04 -2.27,-0.04 -0.78,0 -1.52,0.03 -2.19,0.07 -0.72,0.04 -1.36,0.1 -1.92,0.17 -0.68,0.09 -1.23,0.18 -1.64,0.28 -0.5,0.11 -0.79,0.21 -0.91,0.28l-0.53 1.26c-0.29,0.7 -0.67,1.64 -1.21,2.65 -0.56,1.05 -1.29,2.23 -2.28,3.4 -0.57,0.68 -1.21,1.34 -1.91,1.97 -0.71,0.64 -1.51,1.27 -2.39,1.89 -0.87,0.6 -1.84,1.2 -2.92,1.79 -1.07,0.58 -2.24,1.14 -3.49,1.68 -1.26,0.53 -2.46,0.98 -3.62,1.34 -1.18,0.38 -2.29,0.66 -3.32,0.87 -1.05,0.21 -2.05,0.35 -3.01,0.41 -0.96,0.07 -1.88,0.07 -2.74,0.01 -3.06,-0.22 -5.39,-1.17 -6.8,-1.73 -0.17,-0.09 -0.62,-0.26 -0.84,-0.36l-0.3 -0.09 -0.19 -0.03c-0.13,0.06 -0.38,0.19 -0.75,0.43 -0.36,0.23 -0.8,0.55 -1.34,0.98 -0.42,0.34 -0.91,0.76 -1.46,1.26 -0.49,0.46 -1.02,0.97 -1.58,1.54 -0.57,0.58 -1.07,1.12 -1.49,1.59 -0.48,0.54 -0.89,1.04 -1.23,1.48 -0.41,0.53 -0.73,0.99 -0.96,1.37 -0.27,0.42 -0.41,0.7 -0.46,0.85l0.5 1.21c0.59,1.39 1.58,3.71 1.84,6.77 0.07,0.86 0.09,1.78 0.04,2.75 -0.05,0.97 -0.17,1.97 -0.35,3.01 -0.2,1.07 -0.46,2.18 -0.8,3.32 -0.34,1.16 -0.77,2.38 -1.28,3.65 -0.5,1.24 -1.03,2.4 -1.58,3.47 -0.57,1.1 -1.16,2.11 -1.76,3.02 -0.6,0.9 -1.22,1.7 -1.84,2.43 -0.63,0.73 -1.29,1.38 -1.95,1.96 -2.3,2.01 -4.6,2.97 -5.99,3.55 -0.42,0.18 -0.83,0.37 -1.24,0.57 -0.06,0.12 -0.15,0.4 -0.26,0.89 -0.09,0.43 -0.19,0.99 -0.26,1.65 -0.06,0.56 -0.11,1.2 -0.14,1.93 -0.03,0.67 -0.04,1.41 -0.04,2.2 0.01,0.77 0.03,1.49 0.07,2.16 0.04,0.7 0.1,1.33 0.16,1.88 0.07,0.62 0.16,1.13 0.24,1.54 0.1,0.47 0.19,0.78 0.26,0.94l0.05 0.14 0.18 0.09 0.79 0.32c0.93,0.36 2.35,0.91 3.97,1.9 1.49,0.9 3.12,2.15 4.64,3.92l0.88 -0.88 0.37 -0.43c0.73,-0.87 1.26,-1.7 1.7,-2.54 0.45,-0.85 0.83,-1.79 1.25,-2.83l0.44 -1.07c0.27,-0.65 0.58,-1.35 1,-2.14 0.4,-0.76 0.88,-1.56 1.46,-2.33 0.58,-0.78 1.27,-1.55 2.11,-2.28 0.83,-0.72 1.8,-1.41 2.94,-2 0.58,-0.31 1.19,-0.59 1.82,-0.83 0.63,-0.25 1.29,-0.47 1.98,-0.67 0.69,-0.2 1.41,-0.37 2.16,-0.52 0.58,-0.12 1.19,-0.23 1.83,-0.32 0.63,-4.33 2.01,-8.44 4,-12.16 2.13,-3.98 4.96,-7.53 8.33,-10.48 3.34,-2.92 7.2,-5.27 11.44,-6.86 4.08,-1.53 8.5,-2.37 13.12,-2.37 5.04,0 9.85,1.01 14.24,2.82 4.57,1.89 8.67,4.66 12.1,8.09 3.44,3.44 6.21,7.55 8.1,12.1 1.82,4.4 2.83,9.21 2.83,14.24 0,1.92 -0.15,3.85 -0.45,5.76 -0.3,1.92 -0.75,3.8 -1.33,5.62 -0.59,1.84 -1.32,3.62 -2.18,5.33 -0.52,1.04 -1.09,2.05 -1.71,3.03l1.02 -0.42c0.81,-0.33 1.64,-0.64 2.5,-0.9 0.89,-0.26 1.8,-0.47 2.74,-0.59 0.96,-0.12 1.95,-0.15 2.97,-0.07 1.04,0.09 2.12,0.29 3.25,0.64 0.63,0.2 1.28,0.44 1.95,0.74 0.66,0.29 1.32,0.63 2,1.02 0.69,0.39 1.4,0.83 2.11,1.32 0.46,0.31 0.93,0.65 1.42,1.02 0.17,-0.48 0.37,-0.96 0.55,-1.43 0.53,-1.32 1.07,-2.5 1.62,-3.58 0.55,-1.07 1.13,-2.05 1.72,-2.94 0.58,-0.88 1.19,-1.67 1.82,-2.39 0.63,-0.72 1.27,-1.36 1.93,-1.93 2.29,-2 4.6,-2.96 6,-3.55l0.56 -0.24c0.4,-0.18 0.62,-0.28 0.73,-0.36l-0.01 -0 0.12 -0.28c0.03,-0.06 0.11,-0.31 0.21,-0.86 0.08,-0.41 0.16,-0.94 0.22,-1.58 0.05,-0.52 0.1,-1.13 0.12,-1.82 0.02,-0.64 0.04,-1.34 0.03,-2.1 -0.01,-0.81 -0.03,-1.55 -0.07,-2.22 -0.04,-0.71 -0.09,-1.33 -0.16,-1.86 -0.08,-0.63 -0.17,-1.13 -0.25,-1.5 -0.1,-0.45 -0.19,-0.7 -0.25,-0.8l-0.13 -0.3 -1.21 -0.52c-0.69,-0.28 -1.61,-0.65 -2.67,-1.21 -1.06,-0.56 -2.24,-1.29 -3.41,-2.27 -0.67,-0.56 -1.33,-1.2 -1.98,-1.91 -0.63,-0.7 -1.26,-1.5 -1.87,-2.39 -0.62,-0.89 -1.21,-1.87 -1.78,-2.92 -0.57,-1.06 -1.13,-2.22 -1.66,-3.48 -0.53,-1.26 -0.98,-2.47 -1.35,-3.63 -0.38,-1.18 -0.66,-2.29 -0.87,-3.32 -0.21,-1.05 -0.35,-2.05 -0.41,-3.01 -0.07,-0.96 -0.07,-1.88 -0.01,-2.75 0.21,-3 1.14,-5.3 1.7,-6.71l0.5 -1.32 -0.11 -0.25c-0.04,-0.12 -0.16,-0.35 -0.4,-0.72 -0.21,-0.32 -0.51,-0.73 -0.92,-1.23 -0.33,-0.4 -0.74,-0.87 -1.24,-1.41 -0.45,-0.48 -0.97,-1.02 -1.55,-1.59 -0.6,-0.59 -1.13,-1.09 -1.6,-1.51 -0.51,-0.46 -1,-0.86 -1.44,-1.21 -0.52,-0.41 -0.94,-0.7 -1.26,-0.91 -0.41,-0.26 -0.68,-0.39 -0.82,-0.44 -0.05,-0.02 -0.1,-0.04 -0.14,-0.08 -0.11,0.02 -0.31,0.1 -0.59,0.22l-0.7 0.3c-1.39,0.59 -3.69,1.57 -6.73,1.83 -0.86,0.07 -1.77,0.09 -2.75,0.04 -0.94,-0.05 -1.95,-0.17 -3.01,-0.36 -1.07,-0.19 -2.18,-0.46 -3.33,-0.8 -1.15,-0.34 -2.36,-0.77 -3.64,-1.29 -1.27,-0.51 -2.44,-1.05 -3.52,-1.61 -1.07,-0.56 -2.06,-1.14 -2.95,-1.74 -0.9,-0.6 -1.71,-1.22 -2.42,-1.84 -0.71,-0.62 -1.36,-1.28 -1.95,-1.95 -1.02,-1.16 -1.78,-2.34 -2.36,-3.39 -0.57,-1.04 -0.97,-1.95 -1.26,-2.64l-0.53 -1.21 -0.03 -0.02c-0.08,-0.05 -0.33,-0.13 -0.78,-0.23 -0.41,-0.09 -0.95,-0.19 -1.62,-0.26 -0.56,-0.06 -1.21,-0.11 -1.95,-0.14zm64.85 73.17c-0.11,0.06 -0.06,0.05 0,0zm-150.81 -67.59c0.45,-0.05 0.9,-0.05 1.34,0l0.01 0c0.72,0.09 1.43,0.31 2.08,0.65 0.65,0.34 1.24,0.79 1.73,1.33 0.47,0.52 0.85,1.14 1.11,1.82 0.24,0.64 0.37,1.35 0.37,2.1l-0.04 10.46c-0.04,1.3 -0.4,2.39 -0.96,3.27 -0.64,1 -1.54,1.72 -2.54,2.14 -0.39,0.17 -0.8,0.29 -1.22,0.37 -0.41,0.08 -0.84,0.12 -1.27,0.11 -0.44,-0 -0.86,-0.05 -1.27,-0.14 -0.4,-0.09 -0.8,-0.22 -1.2,-0.39 -0.99,-0.44 -1.88,-1.15 -2.49,-2.15 -0.54,-0.87 -0.88,-1.95 -0.9,-3.22l-0 -10.46c-0.01,-0.39 0.02,-0.78 0.09,-1.14 0.07,-0.39 0.18,-0.76 0.32,-1.1 0.15,-0.35 0.33,-0.69 0.55,-1.02 0.22,-0.33 0.47,-0.63 0.75,-0.91 0.33,-0.33 0.68,-0.61 1.04,-0.85 0.39,-0.25 0.79,-0.45 1.19,-0.59 0.42,-0.15 0.86,-0.25 1.29,-0.3zm-26.25 14.18c0.37,-0.07 0.75,-0.11 1.14,-0.11 0.37,-0 0.75,0.04 1.13,0.12 0.37,0.08 0.74,0.19 1.08,0.34 0.35,0.15 0.7,0.34 1.02,0.56 0.32,0.22 0.63,0.47 0.91,0.75l7.38 7.39c0.61,0.61 1.06,1.26 1.36,1.92 0.33,0.73 0.48,1.49 0.48,2.23 0,0.79 -0.17,1.56 -0.48,2.27 -0.32,0.73 -0.78,1.4 -1.34,1.97 -0.57,0.57 -1.24,1.03 -1.98,1.35 -0.72,0.31 -1.49,0.49 -2.28,0.49 -0.71,0 -1.44,-0.14 -2.15,-0.45 -0.69,-0.3 -1.37,-0.75 -2,-1.38l-7.38 -7.38c-0.57,-0.57 -1.01,-1.22 -1.3,-1.92 -0.3,-0.71 -0.46,-1.48 -0.46,-2.25 -0,-0.75 0.15,-1.51 0.46,-2.25 0.29,-0.69 0.72,-1.36 1.29,-1.95l0.03 -0.03c0.29,-0.28 0.61,-0.53 0.93,-0.75 0.34,-0.23 0.69,-0.42 1.04,-0.56 0.37,-0.15 0.74,-0.26 1.11,-0.34zm120.21 23.91c-2.99,-1.24 -6.27,-1.93 -9.7,-1.93 -2.99,0 -5.85,0.51 -8.5,1.45 -2.76,0.97 -5.29,2.41 -7.51,4.21 -2.25,1.82 -4.18,4.02 -5.69,6.51 -1.34,2.19 -2.35,4.6 -2.98,7.16 1.45,0.02 2.8,0.08 4.03,0.17 1.52,0.11 2.93,0.27 4.23,0.49 1.29,0.21 2.48,0.49 3.58,0.83 1.12,0.34 2.14,0.74 3.06,1.21 1.15,0.58 2.13,1.24 2.97,1.95 0.85,0.71 1.56,1.48 2.15,2.25 0.59,0.77 1.08,1.55 1.5,2.31 0.41,0.75 0.74,1.47 1.03,2.14l0.48 1.1c0.44,1.03 0.83,1.94 1.3,2.81 0.45,0.84 0.99,1.65 1.73,2.5 0.42,0.49 0.94,1.01 1.58,1.57 0.64,0.56 1.4,1.14 2.28,1.72 0.9,0.59 1.94,1.21 3.16,1.83 1.22,0.63 2.62,1.27 4.22,1.92l1.87 0.71 1.32 0.45c1.42,-1.13 2.71,-2.4 3.85,-3.8 1.23,-1.51 2.29,-3.15 3.13,-4.87 0.85,-1.72 1.5,-3.56 1.95,-5.47 0.43,-1.86 0.66,-3.8 0.66,-5.76 0,-3.44 -0.68,-6.71 -1.92,-9.69 -1.29,-3.11 -3.18,-5.9 -5.51,-8.24 -2.35,-2.35 -5.15,-4.24 -8.26,-5.53zm-134.41 1.95c0.37,-0.07 0.76,-0.1 1.15,-0.09l10.49 -0c1.27,0.02 2.34,0.36 3.21,0.9 0.99,0.62 1.7,1.5 2.14,2.48 0.17,0.39 0.3,0.79 0.39,1.21 0.09,0.4 0.13,0.84 0.13,1.27 0,0.43 -0.04,0.86 -0.12,1.27 -0.08,0.41 -0.2,0.82 -0.37,1.21 -0.43,1.01 -1.14,1.91 -2.15,2.55 -0.88,0.56 -1.97,0.92 -3.27,0.96l-10.47 0.04c-0.82,0 -1.58,-0.16 -2.26,-0.44 -0.73,-0.3 -1.38,-0.75 -1.92,-1.29 -0.27,-0.26 -0.51,-0.57 -0.74,-0.91 -0.21,-0.32 -0.4,-0.67 -0.55,-1.04 -0.15,-0.36 -0.27,-0.74 -0.35,-1.13 -0.08,-0.38 -0.12,-0.77 -0.12,-1.16 -0,-0.76 0.14,-1.54 0.46,-2.28 0.29,-0.68 0.73,-1.34 1.32,-1.92 0.27,-0.27 0.57,-0.52 0.9,-0.75 0.33,-0.22 0.67,-0.41 1.02,-0.55 0.35,-0.14 0.72,-0.26 1.1,-0.33zm-29.11 13.9c-3.3,-1.37 -6.92,-2.12 -10.72,-2.12 -3.8,0 -7.42,0.75 -10.72,2.12 -3.42,1.42 -6.51,3.5 -9.1,6.09 -2.58,2.58 -4.66,5.66 -6.08,9.08 -1.36,3.29 -2.11,6.91 -2.11,10.72 0,3.8 0.75,7.42 2.11,10.71 1.42,3.42 3.5,6.51 6.07,9.09 2.59,2.58 5.68,4.67 9.1,6.08 3.3,1.37 6.92,2.12 10.72,2.12 3.8,0 7.43,-0.75 10.73,-2.12 3.42,-1.41 6.5,-3.49 9.09,-6.08 2.58,-2.58 4.66,-5.66 6.08,-9.08 1.36,-3.29 2.11,-6.91 2.11,-10.72 0,-3.81 -0.75,-7.43 -2.11,-10.72 -1.41,-3.42 -3.5,-6.5 -6.08,-9.08 -2.59,-2.59 -5.67,-4.67 -9.09,-6.08zm131.39 13.5c-1.36,-0.07 -2.92,-0.1 -4.71,-0.09 -1.76,0.01 -3.33,0.08 -4.71,0.17 -1.36,0.1 -2.49,0.23 -3.44,0.38 -0.94,0.15 -1.73,0.33 -2.39,0.53 -0.62,0.19 -1.1,0.38 -1.47,0.57 -0.56,0.3 -0.91,0.62 -1.17,0.99 -0.29,0.4 -0.52,0.96 -0.79,1.61l-0.45 1.08c-0.43,1.06 -0.97,2.37 -1.76,3.88 -0.78,1.5 -1.8,3.13 -3.17,4.76 -0.79,0.93 -1.68,1.86 -2.7,2.77 -1.01,0.91 -2.15,1.8 -3.42,2.68 -1.29,0.89 -2.7,1.75 -4.27,2.6 -1.56,0.84 -3.29,1.67 -5.19,2.48 -1.91,0.81 -3.71,1.48 -5.4,2.02 -1.71,0.55 -3.32,0.97 -4.84,1.27 -1.53,0.31 -2.97,0.51 -4.31,0.6 -1.36,0.1 -2.65,0.1 -3.86,0.01 -2.14,-0.15 -4.02,-0.56 -5.64,-1.04 -1.59,-0.47 -2.94,-1.02 -4.02,-1.47l-1.1 -0.44c-0.64,-0.25 -1.19,-0.46 -1.68,-0.54 -0.44,-0.07 -0.91,-0.04 -1.51,0.16 -0.4,0.13 -0.97,0.4 -1.7,0.85 -0.67,0.41 -1.44,0.94 -2.32,1.63 -0.76,0.6 -1.64,1.34 -2.63,2.23 -0.9,0.82 -1.87,1.75 -2.9,2.8 -0.99,1 -1.85,1.93 -2.59,2.77 -0.81,0.92 -1.51,1.76 -2.1,2.53 -0.64,0.83 -1.16,1.57 -1.57,2.23 -0.43,0.69 -0.73,1.27 -0.91,1.72 -0.28,0.69 -0.35,1.2 -0.32,1.62 0.03,0.4 0.16,0.77 0.28,1.11l0.05 0.14c0.2,0.58 0.49,1.24 0.79,1.96l0.01 0.03c0.83,1.93 1.85,4.32 2.36,7.59 0.51,3.24 0.49,7.29 -0.77,12.47l-1.81 6.84 16.81 23.61c1.31,-7.59 3.86,-14.76 7.45,-21.28 3.96,-7.19 9.17,-13.61 15.35,-18.94 6.12,-5.28 13.19,-9.51 20.91,-12.38 7.45,-2.77 15.5,-4.29 23.89,-4.29 9.29,0 18.15,1.85 26.23,5.19 8.4,3.48 15.96,8.57 22.27,14.89 6.32,6.32 11.42,13.88 14.9,22.28 3.35,8.09 5.2,16.96 5.2,26.24 0,9.29 -1.85,18.16 -5.2,26.25 -3.48,8.4 -8.57,15.97 -14.89,22.29 -6.31,6.31 -13.86,11.4 -22.27,14.88 -8.08,3.34 -16.95,5.19 -26.25,5.19 -5.22,0 -10.38,-0.6 -15.38,-1.75 -5.06,-1.17 -9.97,-2.9 -14.61,-5.16 -4.65,-2.26 -9.04,-5.04 -13.08,-8.3 -3.91,-3.15 -7.5,-6.75 -10.67,-10.74l-28.4 0c0.26,0.9 0.48,1.77 0.67,2.63 0.25,1.13 0.45,2.23 0.59,3.27 0.14,1.04 0.22,2.05 0.25,3.01 0.03,0.98 0.02,1.9 -0.04,2.77 -0.15,2.13 -0.56,4.01 -1.04,5.63 -0.47,1.61 -1.02,2.95 -1.45,4.03l-0.34 0.85c-0.2,0.51 -0.35,0.94 -0.47,1.32 -0.1,0.33 -0.17,0.6 -0.2,0.84 -0.03,0.21 -0.02,0.41 0,0.6 0.03,0.21 0.09,0.44 0.17,0.69 0.14,0.41 0.35,0.89 0.67,1.44 0.34,0.6 0.79,1.28 1.36,2.05 0.57,0.77 1.3,1.65 2.21,2.66 0.92,1.02 2,2.15 3.27,3.4 1.26,1.24 2.41,2.3 3.45,3.21 1.01,0.88 1.91,1.6 2.69,2.16 0.77,0.56 1.45,1 2.06,1.32 0.57,0.3 1.05,0.51 1.46,0.64 0.23,0.07 0.44,0.12 0.65,0.15 0.2,0.02 0.4,0.02 0.63,-0.01 0.23,-0.03 0.51,-0.1 0.86,-0.21 0.39,-0.12 0.82,-0.28 1.31,-0.48l0.84 -0.36c2.17,-0.91 5.35,-2.26 9.59,-2.62 1.2,-0.1 2.48,-0.13 3.86,-0.06 1.35,0.07 2.79,0.24 4.32,0.52 1.54,0.28 3.16,0.67 4.86,1.17 1.7,0.51 3.51,1.15 5.44,1.93 1.92,0.77 3.66,1.57 5.24,2.39 1.59,0.82 3.03,1.66 4.32,2.52 1.29,0.85 2.44,1.73 3.47,2.62 1.03,0.89 1.94,1.8 2.74,2.72 1.39,1.6 2.42,3.2 3.21,4.66 0.77,1.43 1.34,2.76 1.79,3.85l0.39 0.92c0.23,0.51 0.42,0.92 0.61,1.25 0.17,0.31 0.32,0.54 0.47,0.73 0.14,0.18 0.29,0.31 0.44,0.43 0.18,0.13 0.38,0.25 0.61,0.36 0.4,0.2 0.89,0.39 1.52,0.57 0.66,0.19 1.45,0.35 2.39,0.48 0.96,0.14 2.09,0.24 3.43,0.31 1.37,0.07 2.93,0.1 4.71,0.09 1.46,-0.01 2.8,-0.06 4.03,-0.14 1.32,-0.08 2.45,-0.2 3.43,-0.34 1.11,-0.16 2.02,-0.34 2.77,-0.54 0.82,-0.21 1.41,-0.44 1.81,-0.64 0.22,-0.12 0.4,-0.23 0.55,-0.34 0.14,-0.11 0.29,-0.27 0.44,-0.46 0.15,-0.2 0.31,-0.45 0.48,-0.77 0.19,-0.36 0.38,-0.77 0.59,-1.27l0.36 -0.88c0.44,-1.09 0.98,-2.44 1.74,-3.89 0.79,-1.5 1.8,-3.13 3.15,-4.75 0.78,-0.93 1.68,-1.85 2.69,-2.76 1,-0.9 2.13,-1.8 3.42,-2.69 1.28,-0.89 2.7,-1.76 4.26,-2.6 1.56,-0.84 3.29,-1.67 5.2,-2.48 1.88,-0.8 3.68,-1.46 5.4,-2.01 1.73,-0.55 3.34,-0.97 4.84,-1.27 1.51,-0.3 2.95,-0.49 4.31,-0.59 1.37,-0.09 2.65,-0.09 3.86,-0.01 2.12,0.15 4,0.55 5.63,1.03 1.63,0.48 2.96,1.02 4.03,1.46l0.86 0.35c0.52,0.2 0.94,0.36 1.29,0.46 0.31,0.09 0.56,0.15 0.78,0.18 0.21,0.02 0.41,0.02 0.61,-0 0.23,-0.03 0.48,-0.09 0.78,-0.17 0.4,-0.14 0.87,-0.35 1.42,-0.65 0.6,-0.34 1.28,-0.78 2.05,-1.36 0.76,-0.57 1.65,-1.3 2.66,-2.21 1.02,-0.92 2.15,-2 3.39,-3.27 1.03,-1.05 1.95,-2.04 2.77,-2.97 0.87,-0.99 1.59,-1.87 2.19,-2.66 0.69,-0.91 1.21,-1.69 1.58,-2.33 0.42,-0.72 0.67,-1.28 0.81,-1.7 0.36,-1.15 -0.03,-2.18 -0.41,-3.14l-0.52 -1.25c-0.92,-2.16 -2.27,-5.31 -2.64,-9.53 -0.11,-1.2 -0.13,-2.48 -0.05,-3.86 0.07,-1.35 0.25,-2.78 0.53,-4.31 0.29,-1.54 0.68,-3.16 1.19,-4.85 0.51,-1.7 1.15,-3.5 1.93,-5.43 0.78,-1.92 1.58,-3.66 2.39,-5.24 0.82,-1.59 1.67,-3.02 2.52,-4.31 0.85,-1.28 1.73,-2.44 2.63,-3.46 0.89,-1.03 1.8,-1.94 2.72,-2.74 1.62,-1.41 3.25,-2.46 4.74,-3.27 1.47,-0.8 2.81,-1.37 3.88,-1.82l1.02 -0.44c0.57,-0.25 1.12,-0.48 1.55,-0.79 0.39,-0.28 0.74,-0.65 1.03,-1.22 0.2,-0.39 0.41,-0.98 0.61,-1.81 0.18,-0.73 0.35,-1.65 0.49,-2.78 0.12,-1 0.22,-2.14 0.28,-3.42 0.06,-1.21 0.08,-2.55 0.07,-4.03 -0.01,-1.47 -0.06,-2.81 -0.14,-4.04 -0.08,-1.31 -0.2,-2.45 -0.34,-3.42 -0.15,-1.11 -0.34,-2.02 -0.54,-2.76 -0.21,-0.83 -0.44,-1.41 -0.64,-1.8 -0.13,-0.23 -0.24,-0.43 -0.36,-0.58 -0.12,-0.15 -0.27,-0.3 -0.45,-0.44 -0.2,-0.16 -0.45,-0.31 -0.76,-0.47 -0.31,-0.16 -0.74,-0.36 -1.29,-0.59l-0.91 -0.37c-2.18,-0.87 -5.37,-2.15 -8.59,-4.86 -0.93,-0.78 -1.85,-1.68 -2.76,-2.7 -0.9,-1.01 -1.8,-2.15 -2.68,-3.44 -0.89,-1.29 -1.76,-2.71 -2.6,-4.28 -0.84,-1.56 -1.66,-3.29 -2.48,-5.21 -0.8,-1.89 -1.47,-3.69 -2.01,-5.39 -0.55,-1.73 -0.97,-3.34 -1.27,-4.84 -0.3,-1.52 -0.5,-2.95 -0.59,-4.31 -0.1,-1.36 -0.09,-2.64 -0.01,-3.86 0.29,-4.19 1.57,-7.35 2.45,-9.53l0.38 -0.94c0.21,-0.55 0.37,-0.98 0.47,-1.31 0.09,-0.31 0.15,-0.57 0.18,-0.81 0.02,-0.21 0.02,-0.42 -0,-0.62 -0.03,-0.24 -0.09,-0.49 -0.17,-0.79 -0.11,-0.33 -0.29,-0.73 -0.57,-1.23 -0.3,-0.55 -0.72,-1.19 -1.28,-1.96 -0.56,-0.75 -1.27,-1.64 -2.18,-2.67 -0.92,-1.05 -2.02,-2.22 -3.33,-3.52 -1.06,-1.04 -2.06,-1.97 -2.99,-2.79 -0.98,-0.86 -1.88,-1.6 -2.7,-2.22 -0.93,-0.7 -1.71,-1.23 -2.36,-1.61 -0.74,-0.43 -1.32,-0.69 -1.75,-0.83 -0.6,-0.19 -1.08,-0.21 -1.53,-0.13 -0.52,0.09 -1.06,0.31 -1.68,0.56l-1.11 0.47c-2.16,0.92 -5.34,2.27 -9.59,2.64 -1.21,0.1 -2.49,0.13 -3.87,0.05 -1.35,-0.07 -2.79,-0.24 -4.32,-0.52 -1.55,-0.28 -3.17,-0.67 -4.86,-1.17 -1.7,-0.51 -3.51,-1.15 -5.44,-1.92 -1.92,-0.78 -3.67,-1.58 -5.24,-2.4 -1.58,-0.82 -3.01,-1.67 -4.3,-2.54 -1.28,-0.86 -2.43,-1.74 -3.45,-2.64 -1.03,-0.9 -1.93,-1.81 -2.73,-2.72 -1.41,-1.62 -2.46,-3.24 -3.27,-4.72 -0.81,-1.48 -1.37,-2.8 -1.82,-3.86l-0.36 -0.83c-0.21,-0.5 -0.41,-0.91 -0.59,-1.25 -0.16,-0.3 -0.31,-0.54 -0.47,-0.73 -0.12,-0.16 -0.26,-0.29 -0.42,-0.41 -0.16,-0.13 -0.36,-0.24 -0.61,-0.36l-0.01 -0.01c-0.39,-0.2 -0.89,-0.4 -1.53,-0.58 -0.66,-0.19 -1.45,-0.36 -2.39,-0.49 -0.96,-0.14 -2.09,-0.24 -3.42,-0.31zm17.97 56.42c-6.69,-2.77 -14.02,-4.31 -21.68,-4.31 -7.66,0 -14.98,1.53 -21.65,4.29 -6.93,2.87 -13.18,7.07 -18.41,12.3 -5.24,5.23 -9.47,11.48 -12.36,18.43 -2.71,6.52 -4.24,13.67 -4.31,21.15l14.94 0c0.93,0 1.86,0.07 2.79,0.19 0.94,0.13 1.85,0.32 2.75,0.56 0.92,0.25 1.81,0.57 2.68,0.94 0.52,0.22 1.03,0.46 1.53,0.71l0.01 -12.14c0,-2.23 0.44,-4.34 1.24,-6.27 0.83,-2.01 2.05,-3.81 3.55,-5.31 1.51,-1.51 3.32,-2.72 5.32,-3.55 1.93,-0.8 4.06,-1.24 6.28,-1.24l41.78 0.01c2.21,-0 4.33,0.44 6.25,1.24 2.01,0.83 3.81,2.05 5.31,3.55 1.51,1.51 2.72,3.31 3.55,5.31 0.8,1.94 1.24,4.06 1.24,6.26l0 31.34c0,2.22 -0.44,4.34 -1.24,6.26 -0.83,2.01 -2.04,3.81 -3.54,5.31 -1.51,1.51 -3.31,2.73 -5.32,3.56 -1.94,0.8 -4.05,1.25 -6.27,1.25l-41.78 0c-0.88,0 -1.77,-0.07 -2.65,-0.21 -0.88,-0.14 -1.73,-0.35 -2.56,-0.62 -0.83,-0.27 -1.63,-0.61 -2.41,-1.02 -0.57,-0.3 -1.12,-0.64 -1.64,-0.99 -0.76,0.96 -1.61,1.85 -2.53,2.66 -1.1,0.97 -2.29,1.83 -3.56,2.56 -1.26,0.72 -2.6,1.32 -4.01,1.78 -0.91,0.3 -1.85,0.54 -2.81,0.72 2.3,2.07 4.76,3.94 7.35,5.59 3.01,1.92 6.2,3.56 9.52,4.87 3.3,1.31 6.74,2.32 10.27,2.99 3.47,0.66 7.05,1.01 10.67,1.01 7.68,0 15,-1.53 21.68,-4.3 6.94,-2.88 13.2,-7.1 18.43,-12.34 5.23,-5.23 9.45,-11.48 12.33,-18.43 2.76,-6.68 4.29,-14 4.29,-21.7 0,-7.68 -1.53,-15 -4.29,-21.67 -2.88,-6.94 -7.1,-13.19 -12.32,-18.41 -5.24,-5.24 -11.49,-9.46 -18.44,-12.34zm-158.19 -4.14l-14.92 0c-4.35,0 -8.44,0.78 -12.12,2.23 -3.76,1.48 -7.1,3.65 -9.87,6.4 -2.74,2.72 -4.94,6.01 -6.42,9.74 -1.43,3.6 -2.22,7.64 -2.22,11.99l0 77.89 66.46 0 0 -28.34 -8.73 -8.81c-0.93,-0.94 -1.47,-1.97 -1.69,-3 -0.25,-1.17 -0.1,-2.34 0.35,-3.38 0.15,-0.37 0.36,-0.73 0.59,-1.07 0.23,-0.34 0.5,-0.66 0.79,-0.95 0.29,-0.29 0.62,-0.56 0.96,-0.78 0.34,-0.23 0.7,-0.43 1.08,-0.59 1.04,-0.43 2.21,-0.58 3.39,-0.31 1.03,0.23 2.06,0.78 2.99,1.72l24.34 24.62 49.75 0c1.34,0 2.6,-0.26 3.74,-0.73 1.19,-0.49 2.25,-1.21 3.15,-2.1 0.9,-0.9 1.62,-1.98 2.11,-3.16 0.47,-1.15 0.73,-2.42 0.73,-3.75 0,-1.33 -0.26,-2.6 -0.73,-3.75 -0.49,-1.19 -1.21,-2.26 -2.11,-3.16 -0.9,-0.89 -1.97,-1.61 -3.15,-2.1 -1.14,-0.47 -2.4,-0.73 -3.74,-0.73l-20.85 -0c-0.46,0 -0.94,-0.05 -1.4,-0.16 -0.45,-0.1 -0.9,-0.27 -1.33,-0.49 -0.43,-0.22 -0.82,-0.48 -1.18,-0.79 -0.35,-0.31 -0.67,-0.66 -0.95,-1.05l-30.55 -42.83c-2.78,-3.89 -5.15,-7.2 -7.41,-9.97 -2.24,-2.73 -4.4,-4.95 -6.82,-6.71 -1.27,-0.93 -2.64,-1.76 -4.16,-2.48 -1.53,-0.73 -3.23,-1.35 -5.15,-1.85 -1.92,-0.5 -4.09,-0.89 -6.54,-1.15 -2.45,-0.26 -5.23,-0.4 -8.38,-0.4zm125.35 41.79l-4.49 0c-0.64,0 -1.23,0.12 -1.76,0.33 -0.56,0.23 -1.05,0.56 -1.46,0.96 -0.41,0.41 -0.75,0.91 -0.97,1.45 -0.22,0.53 -0.34,1.13 -0.34,1.74l-0.01 31.33c0,0.63 0.12,1.22 0.34,1.75 0.22,0.55 0.56,1.04 0.97,1.45 0.41,0.41 0.91,0.74 1.47,0.97 0.54,0.22 1.14,0.34 1.76,0.34l41.78 0c0.63,0 1.21,-0.12 1.73,-0.33 0.55,-0.23 1.04,-0.56 1.45,-0.97 0.42,-0.42 0.75,-0.92 0.98,-1.47 0.22,-0.53 0.34,-1.12 0.34,-1.74l0 -31.33c0,-0.62 -0.12,-1.2 -0.34,-1.73 -0.23,-0.55 -0.56,-1.04 -0.97,-1.46 -0.41,-0.41 -0.91,-0.74 -1.45,-0.97 -0.52,-0.21 -1.11,-0.33 -1.73,-0.33l-4.53 0 0 20.17c0,0.47 -0.06,0.93 -0.16,1.37 -0.1,0.45 -0.26,0.88 -0.47,1.28 -0.24,0.49 -0.56,0.94 -0.93,1.35 -0.37,0.41 -0.8,0.76 -1.27,1.05 -0.47,0.29 -0.97,0.52 -1.5,0.66 -0.52,0.15 -1.07,0.23 -1.62,0.23 -0.45,0 -0.9,-0.05 -1.35,-0.16 -0.45,-0.11 -0.88,-0.27 -1.29,-0.47l-7.78 -3.9 -7.82 3.89c-0.42,0.21 -0.86,0.37 -1.3,0.47 -0.47,0.11 -0.92,0.16 -1.36,0.16 -0.55,0 -1.1,-0.08 -1.62,-0.23 -0.52,-0.15 -1.03,-0.38 -1.5,-0.67 -0.46,-0.28 -0.89,-0.64 -1.26,-1.05 -0.37,-0.4 -0.68,-0.85 -0.93,-1.35 -0.2,-0.41 -0.36,-0.84 -0.47,-1.29 -0.1,-0.44 -0.16,-0.9 -0.16,-1.37l0 -20.17zm20.88 0l-9.01 0 0 10.58 1.86 -0.94c0.42,-0.21 0.85,-0.37 1.3,-0.47 0.45,-0.11 0.91,-0.16 1.36,-0.16 0.46,0 0.92,0.05 1.36,0.16 0.43,0.1 0.87,0.26 1.28,0.47l1.85 0.94 0 -10.58z"/>
 </g>
</svg>
