<?xml version="1.0" encoding="UTF-8"?>
<!DOCTYPE svg PUBLIC "-//W3C//DTD SVG 1.1//EN" "http://www.w3.org/Graphics/SVG/1.1/DTD/svg11.dtd">
<!-- Creator: CorelDRAW 2019 (64-Bit) -->
<svg xmlns="http://www.w3.org/2000/svg" xml:space="preserve" width="25.5918mm" height="25.6mm" version="1.1" style="shape-rendering:geometricPrecision; text-rendering:geometricPrecision; image-rendering:optimizeQuality; fill-rule:evenodd; clip-rule:evenodd"
viewBox="0 0 812.25 812.51"
 xmlns:xlink="http://www.w3.org/1999/xlink">
 <defs>
  <style type="text/css">
   <![CDATA[
    .fil0 {fill:black}
   ]]>
  </style>
 </defs>
 <g id="Layer_x0020_1">
  <metadata id="CorelCorpID_0Corel-Layer"/>
  <path class="fil0" d="M235.78 733.69l47.52 0c31.48,0 31.31,-23.15 31.16,-43.39l-0.01 -4.13c-0.01,-4.21 -0.54,-7.91 -1.5,-11.12 -1.01,-3.37 -2.49,-6.24 -4.34,-8.66 -1.64,-2.16 -3.57,-3.96 -5.69,-5.44 -2.32,-1.62 -4.92,-2.9 -7.67,-3.86 -2.51,-0.88 -5.15,-1.51 -7.83,-1.92 -2.96,-0.44 -6,-0.65 -9,-0.65 -6.05,0 -12.04,0.84 -17.15,2.03 -6.07,1.41 -10.75,3.26 -12.69,4.73 -1.12,0.85 -3.07,2.48 -5.14,4.41 -1.48,1.39 -2.99,2.91 -4.27,4.4 -1.13,1.33 -2.09,2.67 -2.7,3.89 -0.44,0.88 -0.7,1.69 -0.7,2.37l0 57.34zm477.83 -125.02l-10.55 15.56 -15.43 0c0.63,1.08 1.22,2.22 1.76,3.41 0.75,1.65 1.39,3.4 1.9,5.22 0.28,0.99 0.53,2.02 0.75,3.11l24.93 0 -13.91 20.51 -11.05 0c-0.36,1.56 -0.8,3.08 -1.31,4.55 -0.83,2.35 -1.87,4.61 -3.09,6.73 -1.24,2.14 -2.68,4.14 -4.3,5.97 -1.64,1.86 -3.48,3.57 -5.5,5.12 -2.02,1.55 -4.22,2.93 -6.58,4.12 -2.37,1.19 -4.9,2.21 -7.58,3.06 -2.72,0.85 -5.6,1.49 -8.64,1.91l-2.46 0.29 58.73 62.65 -34.26 0c-19.44,-20.87 -38.84,-41.8 -58.24,-62.71l0 -18.57 17.3 0c2.17,0 4.2,-0.1 6.09,-0.29 1.89,-0.19 3.75,-0.49 5.57,-0.88 1.72,-0.37 3.37,-0.86 4.93,-1.43 1.55,-0.57 2.98,-1.23 4.28,-1.96 1.32,-0.75 2.53,-1.57 3.61,-2.47 1.05,-0.87 2,-1.83 2.83,-2.86l0.02 -0.03c0.82,-0.99 1.51,-2.06 2.08,-3.21l-54.21 0 13.91 -20.51 40.08 0c-0.43,-0.84 -0.91,-1.64 -1.46,-2.4 -1.36,-1.9 -3.08,-3.56 -5.16,-4.98 -2.13,-1.42 -4.65,-2.51 -7.55,-3.23 -3.02,-0.75 -6.49,-1.13 -10.41,-1.13l-29.41 0 13.91 -20.51 91.8 0 -3.36 4.95zm-297.58 20.16l-75.39 0 0 -26.15 78.56 0 0 26.15 -3.17 0zm134.96 27.89c-0.49,3.96 -0.77,7.84 -0.77,11.44 0,8.85 1,17.42 2.88,25.61 1.96,8.53 4.86,16.67 8.56,24.32 4.88,10.08 11.16,19.34 18.51,27.55 7.52,8.4 16.19,15.73 25.64,21.76 9.46,6.02 19.75,10.75 30.5,13.96 10.45,3.11 21.36,4.78 32.41,4.78 8.09,0 16.25,-0.89 24.33,-2.75 7.81,-1.8 15.58,-4.5 23.18,-8.18 7.26,-3.51 13.7,-7.15 19.49,-11.08 5.73,-3.89 10.87,-8.11 15.59,-12.83 4.69,-4.68 8.91,-9.83 12.81,-15.58 3.92,-5.78 7.56,-12.23 11.08,-19.49 7.77,-16.06 11.26,-32.42 11.22,-48.27 -0.04,-17.1 -4.19,-33.67 -11.47,-48.72 -3.01,-6.21 -6.56,-12.18 -10.58,-17.81 -4.06,-5.69 -8.6,-11.05 -13.54,-15.99 -4.93,-4.94 -10.29,-9.47 -15.97,-13.53 -5.63,-4.02 -11.6,-7.58 -17.82,-10.58 -15.04,-7.28 -31.6,-11.42 -48.69,-11.46 -15.85,-0.03 -32.2,3.45 -48.28,11.23 -3.33,1.61 -6.6,3.31 -9.78,5.1 -3.09,1.73 -6.14,3.6 -9.11,5.58 -2.93,1.97 -5.76,4.04 -8.45,6.23 -2.69,2.18 -5.28,4.5 -7.75,6.97 -2.49,2.5 -4.81,5.08 -6.96,7.73 -2.19,2.7 -4.27,5.54 -6.24,8.48 -1.94,2.89 -3.79,5.93 -5.58,9.1 -1.79,3.18 -3.49,6.45 -5.1,9.78 -1.42,2.94 -2.87,6.6 -4.21,10.69 -1.34,4.07 -2.58,8.5 -3.6,13 -0.97,4.3 -1.77,8.7 -2.31,12.95zm-261.68 -71.15c-0.72,1.73 -1.12,3.63 -1.12,5.62l0 37.69c4.22,0 8.06,0.35 11.59,1.02 3.53,0.66 6.75,1.64 9.7,2.89 2.97,1.26 5.68,2.78 8.18,4.52 2.51,1.75 4.83,3.72 7.03,5.83 8.54,8.25 12.72,16.9 14.68,26.38 1.91,9.21 1.67,19.05 1.41,30.07l-0.02 1c-0.09,3.77 -0.17,7.65 -0.17,11.79 0,5.88 -1.55,11.97 -4.38,17.75 -2.79,5.7 -6.87,11.11 -11.93,15.7 -4.78,4.33 -10.46,7.95 -16.82,10.41 -5.9,2.29 -12.38,3.61 -19.25,3.61l-0.08 5.85c0,8.86 1.22,20.4 14.82,20.4l153.94 0c1.99,0 3.9,-0.4 5.62,-1.12 1.8,-0.75 3.43,-1.86 4.8,-3.22 1.37,-1.37 2.48,-3.01 3.22,-4.8 0.72,-1.72 1.12,-3.63 1.12,-5.62l0 -180.14c0,-1.99 -0.4,-3.9 -1.12,-5.62 -0.75,-1.8 -1.85,-3.43 -3.22,-4.8 -1.37,-1.37 -3,-2.48 -4.8,-3.22 -1.72,-0.72 -3.63,-1.12 -5.62,-1.12l-153.94 0c-1.99,0 -3.89,0.4 -5.61,1.12 -1.81,0.76 -3.45,1.86 -4.82,3.22 -1.36,1.37 -2.47,3.01 -3.22,4.81zm-27.28 43.31l0.01 -42.6c0,-2.58 0.42,-5.2 1.14,-7.75 0.76,-2.7 1.89,-5.35 3.25,-7.83 1.49,-2.72 3.25,-5.23 5.11,-7.38 1.98,-2.29 4.09,-4.21 6.14,-5.6 5.55,-3.75 9.47,-5.63 14.02,-6.59 4.41,-0.92 9.18,-0.9 16.6,-0.87 25.24,0.09 50.49,0.06 75.73,0.03l15.59 -0.02 -0.01 -0.03c-0.86,-3.71 -2.81,-8.06 -5.48,-12.72 -3.03,-5.3 -7.05,-11.02 -11.53,-16.7 -5.12,-6.5 -10.84,-12.94 -16.39,-18.65 -5.96,-6.14 -11.75,-11.46 -16.41,-15.13 -5.22,-4.11 -12.02,-8.73 -19.59,-13.22 -7.01,-4.16 -14.69,-8.22 -22.38,-11.69 -6.78,-3.05 -13.63,-5.65 -20.1,-7.47 -5.74,-1.61 -11.15,-2.59 -15.89,-2.69l-0.03 0.02c0,8.52 -2.42,27.75 -5.04,48.48l-0.07 0.64c-2.7,21.33 -5.59,44.17 -6.23,58.58l-0.27 6.1 -4.82 -3.73c-3.53,-2.73 -8.46,-7.4 -13.99,-12.95 -5.49,-5.5 -11.57,-11.85 -17.48,-18.03 -5.79,-6.05 -11.44,-11.94 -16.25,-16.73 -4.73,-4.69 -8.67,-8.33 -11.14,-9.98 -5.12,3.41 -24.11,22.8 -37.22,36.2 -3.24,3.38 -6.6,6.71 -9.89,10.05l-1.91 2.03 -1.95 2.23c-2.45,2.82 -4.97,5.73 -8.05,7.79l-4.72 3.17 -0.2 -5.7c-0.46,-13.33 -2.68,-30.34 -4.87,-47.26l-0.04 -0.27c-2.42,-18.74 -4.84,-37.35 -4.84,-50.81l-0.03 -0.03c-10.19,2.37 -26.8,16.31 -35.7,23.79l-1.5 1.27c-6.07,5.08 -11.95,11.28 -17.46,18.22 -5.86,7.37 -11.32,15.57 -16.2,24.17 -5.04,8.87 -9.5,18.21 -13.16,27.53 -3.64,9.26 -6.5,18.49 -8.38,27.21 -2.14,9.95 -3.34,20.06 -3.49,30.08 -0.15,9.73 0.67,19.44 2.55,28.89 1.8,9.05 4.59,17.85 8.42,26.18 3.68,7.99 8.32,15.56 13.97,22.52 1.45,1.81 2.87,3.69 4.29,5.52 0.69,0.83 1.43,1.69 2.31,2.62 34.42,35.92 81.97,35.06 129.39,34.2l0.81 -0.01c7,-0.12 14.06,-0.25 20.95,-0.25l0.02 -52.46c-7.23,0 -14.02,0.17 -20.52,0.32l-0.92 0.03c-34.97,0.85 -61.13,1.48 -86.27,-23.66 -12.27,-12.27 -18.31,-24.28 -21.2,-37.21 -2.85,-12.71 -2.6,-26.1 -2.3,-41.51l0.25 -15.84 26.1 0 0 34.37c0,26.13 9.98,40.51 24.68,48.31 15.11,8.03 35.39,9.43 55.16,9.43 5.1,0 10.01,-0.1 14.83,-0.19l1.28 -0.03c4.77,-0.09 9.45,-0.18 13.8,-0.18 2.3,0 5.26,-2.9 9.2,-6.76l0.03 -0.03c3.88,-3.81 8.75,-8.58 14.95,-12.45 6.36,-3.97 14.04,-6.96 23.33,-6.96zm-108.08 -180.19l-4.96 0.02c0,5.71 0.33,10.98 0.82,16.02 0.5,5.14 1.18,10.14 1.85,15.13l0.01 0.08c1.22,9.05 2.43,18.07 2.62,28.13l0 0.06 24.23 -25.02c-0.96,-1.43 -2.28,-3.22 -3.79,-5.21 -1.75,-2.26 -3.63,-4.56 -5.31,-6.86 -6.77,-8.68 -14.47,-18.57 -15.47,-22.34zm60.14 34.8l25.02 24.23 6.53 -60.67c-1.14,0.09 -1.98,0.07 -2.59,0.05l-0.16 -0.01c-0.86,-0.03 -1.33,-0.04 -1.85,0.37 -0.25,0.19 -0.51,0.48 -0.84,0.9 -8.47,11.92 -17.31,23.44 -26.1,35.14zm442.94 -84.42c-1.24,1.83 -1.99,4.18 -1.99,7.05 0,2.86 0.75,5.21 1.99,7.03 1.39,2.05 3.45,3.53 5.77,4.42 0.86,0.34 1.74,0.58 2.62,0.75 0.87,0.16 1.79,0.24 2.74,0.24 0.96,0 1.89,-0.08 2.76,-0.24 0.87,-0.16 1.75,-0.41 2.59,-0.73 2.34,-0.9 4.39,-2.38 5.78,-4.42 1.24,-1.83 1.99,-4.18 1.99,-7.04 0,-2.87 -0.75,-5.22 -2,-7.04 -1.38,-2.05 -3.43,-3.52 -5.77,-4.41 -0.88,-0.33 -1.76,-0.59 -2.62,-0.75 -0.86,-0.16 -1.78,-0.24 -2.74,-0.24 -0.96,0 -1.89,0.08 -2.75,0.24 -0.86,0.16 -1.75,0.41 -2.62,0.73 -2.33,0.9 -4.38,2.37 -5.76,4.41zm-329.34 -112.54l-0.14 -8.04 2.81 -0.35c0.98,-0.12 1.51,-0.23 1.82,-0.36 0.23,-0.09 0.54,-0.33 0.99,-0.68 0.32,-0.25 0.73,-0.57 1.34,-0.96 0.56,-0.36 1.35,-0.81 2.49,-1.37l3.1 -1.41c0.56,-0.23 1.03,-0.43 1.8,-0.82 0.64,-0.3 1.47,-0.78 2.76,-1.57 5.98,-3.66 8.53,-7.66 8.86,-11.79 0.35,-4.36 -1.61,-9.19 -4.62,-14.09 -2.76,-4.51 -6.46,-9.05 -9.98,-13.37l-0.19 -0.23c-2.76,-3.36 -5.41,-6.61 -7.44,-9.59 -2.27,-3.34 -3.74,-6.39 -3.74,-9.01l0 -29.5 -157.27 0 0 52.42 -6.72 -0.09c-7.01,-0.12 -13.68,-0.23 -19.69,0.86 -5.75,1.05 -11.07,3.24 -15.84,7.73 -2.98,2.8 -5.34,6.03 -7.01,9.49 -1.66,3.46 -2.65,7.16 -2.87,10.91 -0.21,3.66 0.29,7.36 1.57,10.93 1.22,3.4 3.17,6.71 5.9,9.77 4.63,5.21 8.28,7.94 13.86,12.09l0.15 0.11c6.49,4.82 13,9.37 19.47,13.9l11.17 7.85 0 83.51c0,4.57 -0.09,8.23 -0.15,11.21l-0 0.14c-0.08,3.44 -0.14,6.04 -0.02,8.21 0.1,1.95 0.37,3.52 0.93,5.08 1.16,3.22 3.56,6.29 8.36,12.4l0.17 0.23c2.19,2.79 4.85,6.18 7.58,9.78l2.1 2.63c2.35,2.88 4.67,5.75 5.61,9.28l3.33 0.03c0.6,-2.22 2.53,-5.33 5.07,-8.82 2.44,-3.35 5.37,-6.99 8.21,-10.53 3.03,-3.77 5.99,-7.45 8.16,-10.6 1.89,-2.75 3.13,-4.94 3.13,-6.1l0 -58.93 62.2 0c19.12,0 29.88,-7.27 35.82,-18.02 6.15,-11.15 7.44,-26.22 7.44,-41.06 0,-5.14 -0.17,-10.21 -0.32,-15.09l-0.19 -6.15zm222.54 -245.61l0 206.35c0,1.99 0.4,3.9 1.12,5.62 0.75,1.81 1.86,3.44 3.22,4.79 1.38,1.37 3.02,2.48 4.81,3.23 1.73,0.72 3.63,1.12 5.61,1.12l206.35 0c1.99,0 3.89,-0.4 5.61,-1.12 1.81,-0.76 3.45,-1.86 4.82,-3.22 1.36,-1.38 2.47,-3.01 3.22,-4.81 0.72,-1.72 1.12,-3.63 1.12,-5.62l0 -206.35c0,-6.48 -2.68,-10.25 -7.04,-12.37 -4.95,-2.41 -12.1,-3.03 -20.12,-3.02l-6.06 0.09 -12.57 0.43c-2.4,0.07 -4.66,0.11 -6.64,0.11l-0.02 78.61 -130.97 0 0 -78.61c-4.27,0 -8.61,-0.16 -12.89,-0.32l-6.53 -0.23 -5.87 -0.09c-8.04,0 -15.18,0.62 -20.12,3.02 -4.36,2.12 -7.04,5.89 -7.04,12.37zm-407.85 291.96c-33.25,-22.26 -50.65,-33.91 -50.65,-72.51 0,-2.81 0.45,-5.73 1.23,-8.64 0.83,-3.11 2.06,-6.24 3.52,-9.24 1.66,-3.43 3.63,-6.68 5.66,-9.53 2.23,-3.15 4.58,-5.86 6.72,-7.85 2.35,-2.19 5.15,-4.45 8.28,-6.53 2.74,-1.82 5.77,-3.52 9.01,-4.94 2.84,-1.25 5.87,-2.28 9.02,-2.99 2.92,-0.65 5.92,-1.03 8.95,-1.03l0.03 -26.25 -78.66 0c0,4.89 -0.08,10.41 -0.16,16.14l-0.02 1.27c-0.42,29.12 -0.95,65.27 6.94,87.23 2.9,8.08 7.11,16.37 12.28,24.34 5.17,7.99 11.31,15.65 18.06,22.43 6.45,6.48 13.47,12.19 20.77,16.66 6.77,4.15 13.77,7.22 20.76,8.85l0.03 0.01 0 -26.24 -1.75 -1.17zm211.34 -149.51l-0.01 19.68c0,1.23 0.85,3.08 2.22,5.38 1.55,2.59 3.73,5.64 6.14,9l0.19 0.27c7.63,10.63 17.65,24.58 17.65,36.12 0,5.14 -0.65,10.09 -1.86,14.69 -1.25,4.75 -3.09,9.12 -5.42,12.93 -2.3,3.75 -5.12,6.98 -8.32,9.53 -3.17,2.52 -6.73,4.38 -10.58,5.41 -0.02,4.68 0.05,8.96 0.11,12.95l0.03 1.53c0.37,22.61 0.6,36.52 -10.91,53.39 -20.56,30.15 -46.95,29.62 -78.98,28.96l-1.73 -0.03c-4.33,-0.09 -8.76,-0.17 -13.34,-0.17l-0.03 27.89c8.66,0 17.83,1.06 27.19,2.96 9.95,2.02 20.06,4.98 29.89,8.59 10.48,3.86 20.75,8.5 30.29,13.6 9.73,5.21 18.7,10.89 26.36,16.7 3.88,2.95 7.5,5.87 10.9,8.81 3.44,2.97 6.71,5.99 9.85,9.09 3.2,3.17 6.24,6.39 9.2,9.7 2.87,3.23 5.81,6.74 8.86,10.55 2.25,2.82 6.04,8.06 10.06,14.18 3.16,4.8 6.5,10.17 9.39,15.35 2.28,4.06 4.29,8.02 5.74,11.47 1.35,3.22 2.23,6.09 2.42,8.34l0.03 0.02c3.41,0 6.71,-0.08 10.03,-0.16l0.75 -0.02c6.93,-0.17 13.76,-0.34 19.94,0.14 6.52,0.51 12.45,1.73 17.33,4.38 2.86,1.55 5.78,3.61 8.48,6.08 2.49,2.27 4.79,4.91 6.71,7.84 1.72,2.63 3.14,5.52 4.11,8.62 0.9,2.89 1.41,5.94 1.41,9.12l0 68.81 26.25 0c0.07,-3.25 0.51,-6.87 1.22,-10.69 0.76,-4.13 1.84,-8.52 3.11,-12.89 1.45,-5 3.11,-9.9 4.81,-14.36 1.83,-4.8 3.78,-9.25 5.59,-12.86 3.66,-7.3 7.76,-14.12 12.29,-20.46 4.55,-6.37 9.55,-12.28 15.01,-17.73 5.43,-5.45 11.35,-10.45 17.75,-15.02 6.34,-4.53 13.16,-8.62 20.46,-12.29 3.61,-1.81 8.05,-3.75 12.84,-5.58 4.45,-1.7 9.37,-3.37 14.37,-4.82 4.37,-1.27 8.76,-2.35 12.89,-3.11 3.82,-0.7 7.45,-1.14 10.67,-1.21l0.02 -77c0,-1.9 -0.45,-3.03 -1.16,-3.79 -0.87,-0.91 -2.36,-1.63 -4.01,-2.43l-1.57 -0.78c-0.56,-0.29 -1.13,-0.62 -1.69,-0.98 -2.73,-1.77 -5.15,-3.8 -7.24,-5.99 -2.18,-2.29 -4.03,-4.8 -5.55,-7.46 -1.83,-3.17 -3.17,-6.57 -4.03,-10.05 -0.88,-3.55 -1.25,-7.2 -1.15,-10.84 0.1,-3.62 0.7,-7.21 1.76,-10.64 1.05,-3.4 2.56,-6.66 4.51,-9.67 1.58,-2.43 3.46,-4.7 5.61,-6.73 2.09,-1.97 4.44,-3.73 7.05,-5.22l1.53 -0.81 1.26 -0.58c1.62,-0.75 2.99,-1.39 3.71,-2.17 0.62,-0.66 0.97,-1.76 0.97,-3.75l0 -77 -95.01 0c-4.41,0 -8.84,-1.09 -12.99,-2.99 -4.3,-1.97 -8.33,-4.82 -11.75,-8.25 -3.44,-3.44 -6.29,-7.47 -8.26,-11.77 -1.9,-4.16 -2.99,-8.59 -2.99,-12.99l0 -95.01 -117.96 0c0,11.79 -5.09,18.51 -12.42,22.29 -6.88,3.56 -15.61,4.3 -23.73,4.3l-4.94 -0.08 -8.2 -0.27 -3.11 -0.04zm26.24 -52.41l-340.67 0 -0.03 26.25 340.69 0 0 -26.25zm-124.49 -104.81l-91.71 0c-6.72,0 -13.07,0.5 -19.03,1.44 -6.21,0.98 -12.09,2.45 -17.6,4.33 -5.69,1.94 -10.98,4.35 -15.82,7.12 -4.98,2.85 -9.48,6.09 -13.47,9.65 -4.02,3.57 -7.99,7.79 -11.64,12.43 -3.53,4.47 -6.81,9.37 -9.62,14.51 -2.64,4.81 -4.87,9.85 -6.52,14.94 -1.52,4.7 -2.55,9.49 -2.94,14.22l285.01 0.03c-0.9,-10.8 -4.14,-21.07 -9.27,-30.41 -5.31,-9.65 -12.66,-18.33 -21.55,-25.57 -8.8,-7.16 -19.13,-12.92 -30.49,-16.85 -10.91,-3.76 -22.83,-5.84 -35.34,-5.84zm452.03 0l-78.64 0 -0.02 52.46 78.66 0 0 -52.46zm-690.49 91.17c3.82,-7.43 10.56,-12.5 22.29,-12.5l0.03 -0.02c1.11,-13.35 5.09,-26.45 11.24,-38.6 6.42,-12.69 15.22,-24.38 25.58,-34.27 10.34,-9.88 22.27,-17.99 34.96,-23.56 12.17,-5.34 25.05,-8.35 37.92,-8.35l121.19 0c5.38,0 11.05,0.71 16.78,1.97 6.06,1.35 12.19,3.31 18.09,5.7 6.21,2.52 12.23,5.54 17.73,8.85 5.56,3.35 10.61,7.01 14.84,10.78l14.16 14.1c9.19,10.55 14.59,19.3 18.36,28.3 3.74,8.92 5.81,17.95 8.39,29.24l1.36 5.87c3.72,0 7.19,0.66 10.31,1.88 3.24,1.27 6.11,3.14 8.48,5.51 2.38,2.38 4.26,5.25 5.52,8.49 1.22,3.12 1.88,6.6 1.88,10.29l117.96 0.03 0 -95.01c0,-4.41 1.09,-8.83 3,-12.99 1.98,-4.32 4.84,-8.35 8.26,-11.76 3.42,-3.42 7.45,-6.28 11.76,-8.26 4.16,-1.91 8.58,-3 12.99,-3l216.18 0c4.41,0 8.83,1.09 12.99,3 4.3,1.97 8.33,4.83 11.76,8.26 3.43,3.43 6.29,7.45 8.26,11.75 1.9,4.17 2.99,8.59 2.99,13l0 216.18c0,4.41 -1.09,8.83 -2.99,12.99 -1.97,4.3 -4.82,8.33 -8.25,11.76 -3.44,3.44 -7.46,6.29 -11.77,8.26 -4.16,1.91 -8.59,3 -13,3l-95.01 0 0 77c0,1.22 0.6,2.26 1.59,3.27 1.34,1.36 3.4,2.74 5.72,4.29 7.74,5.18 18.89,12.63 18.89,30.11 0,12.5 -2.92,20.57 -6.81,26.11 -3.94,5.61 -8.72,8.48 -12.54,10.77 -2.2,1.32 -4.14,2.49 -5.36,3.73 -0.92,0.94 -1.49,2.06 -1.49,3.61l0 77c3.4,0.07 7.1,0.51 10.94,1.22 4.2,0.77 8.58,1.86 12.92,3.14 4.93,1.45 9.84,3.16 14.43,4.95 5.02,1.96 9.69,4.02 13.58,5.97 4.34,2.17 8.11,4.23 11.52,6.3 3.48,2.11 6.57,4.21 9.46,6.39 2.99,2.28 5.79,4.63 8.63,7.21 2.8,2.54 5.74,5.39 9,8.62 7.51,7.47 13.81,15.09 19.03,23.05 5.23,7.95 9.36,16.24 12.55,25.04 3.18,8.8 5.42,18.12 6.86,28.16 1.43,10.01 2.08,20.7 2.08,32.25 0,12.13 -2.04,24.09 -5.76,35.59 -3.9,12.04 -9.63,23.54 -16.79,34.17 -7.45,11.05 -16.46,21.2 -26.56,30.07 -10.14,8.9 -21.39,16.51 -33.28,22.45 -9.16,4.58 -19.07,8.03 -29.35,10.33 -10.53,2.36 -21.45,3.55 -32.34,3.55 -10.89,0 -21.81,-1.19 -32.34,-3.55 -10.28,-2.31 -20.19,-5.76 -29.35,-10.33 -4.21,-2.09 -8.01,-4.09 -11.58,-6.12 -3.55,-2.02 -6.75,-4.01 -9.78,-6.12 -3.02,-2.1 -5.94,-4.37 -8.91,-6.92 -2.94,-2.52 -5.93,-5.33 -9.15,-8.56 -3.31,-3.32 -6.18,-6.32 -8.72,-9.17 -2.63,-2.97 -4.95,-5.82 -7.1,-8.75 -2.18,-2.97 -4.22,-6.07 -6.25,-9.51 -1.98,-3.35 -4.01,-7.11 -6.19,-11.45 -1.81,-3.62 -3.75,-8.06 -5.59,-12.86 -1.7,-4.46 -3.37,-9.36 -4.81,-14.36 -1.27,-4.37 -2.35,-8.76 -3.11,-12.89 -0.7,-3.81 -1.15,-7.44 -1.22,-10.66l-26.25 -0.03 0 95.01c0,4.41 -1.09,8.83 -3,12.99 -1.97,4.3 -4.82,8.33 -8.25,11.76 -3.44,3.44 -7.46,6.29 -11.77,8.26 -4.16,1.9 -8.59,2.99 -12.99,2.99l-163.77 0c-4.41,0 -8.83,-1.09 -12.99,-3 -4.32,-1.98 -8.34,-4.84 -11.76,-8.26 -3.42,-3.44 -6.28,-7.46 -8.26,-11.77 -1.9,-4.16 -3,-8.58 -3,-12.99l0 -16.4 -131.04 0c-7.83,0 -15.68,-0.97 -23.4,-2.73 -8.13,-1.85 -16.1,-4.6 -23.76,-8.03 -8.12,-3.64 -15.88,-8.05 -23.05,-12.98 -7.44,-5.12 -14.27,-10.8 -20.25,-16.78 -8.09,-8.09 -14.68,-16.12 -19.99,-24.29 -5.34,-8.2 -9.4,-16.57 -12.44,-25.31 -3.04,-8.73 -5.07,-17.89 -6.34,-27.68 -1.26,-9.78 -1.77,-20.1 -1.77,-31.21 0,-19.73 4.12,-39.95 11.42,-59.5 7.66,-20.52 18.83,-40.32 32.39,-58.04 13.68,-17.88 29.82,-33.68 47.25,-46 16.79,-11.86 34.81,-20.53 53.04,-24.78l0.02 -32.8c-2.65,-1.27 -5.1,-2.36 -7.43,-3.35l-6.4 -2.63c-3.9,-1.57 -7.61,-3.06 -11.89,-5.14 -4.27,-2.07 -9.08,-4.73 -15.15,-8.6 -3.07,-1.96 -5.93,-3.97 -8.6,-6.05 -2.69,-2.09 -5.32,-4.33 -7.86,-6.68 -2.56,-2.37 -5,-4.81 -7.33,-7.33 -2.42,-2.6 -4.75,-5.29 -7.02,-8.07 -35.06,-42.8 -34.39,-79.84 -33.45,-130.96l0.01 -0.35c0.16,-8.61 0.32,-17.61 0.32,-27.16l-0.03 -0.03c-3.39,0 -6.56,-0.63 -9.43,-1.72 -3.14,-1.19 -5.94,-2.94 -8.28,-5 -2.58,-2.26 -4.65,-4.9 -6.08,-7.58 -1.55,-2.9 -2.39,-5.9 -2.39,-8.61l-0.06 -3.7 -0.33 -9.47 -0.09 -5.55c0,-8.54 0.78,-17.46 4.37,-24.43z"/>
 </g>
</svg>
